<svg id="Layer_1" data-name="Layer 1" xmlns="http://www.w3.org/2000/svg" width="33.9857" height="53.1505" viewBox="0 0 33.9857 53.1505">
  <defs>
    <style>
      .cls-1 {
        fill: #404040;
      }
    </style>
  </defs>
  <title>attachments</title>
  <path class="cls-1" d="M54.7378,91.5173a10.6153,10.6153,0,0,0-7.2207-4.9048c-1.9277-.4375-5.2549-1.2744-6.1982,1.1646a2.6029,2.6029,0,0,0,.792,2.9409,3.8457,3.8457,0,0,0,2.7734.52c2.8584-.0635,5.8965.585,7.1865,3.4194,1.3037,2.8658.9971,6.3926.6162,9.4248-.3925,3.12-.9179,5.834-2.792,8.4239a33.1684,33.1684,0,0,1-6.47,6.45c-.8789.6909-1.7793,1.3559-2.71,1.9765-.8838.5894-.35,2.0625.6416,1.4287a12.7782,12.7782,0,0,0,2.4843-1.7021c1.211-.8882,2.3868-1.83,3.5059-2.8325a22.8665,22.8665,0,0,0,5.91-7.44,38.0131,38.0131,0,0,0,2.4717-8.9482C56.2788,98.1633,56.4146,94.5085,54.7378,91.5173ZM43.896,90.08a1.3752,1.3752,0,0,1,0-2.749A1.3752,1.3752,0,0,1,43.896,90.08Zm-19.2549,1.437c-1.6767,2.9912-1.5405,6.646-.9912,9.9214a38.1119,38.1119,0,0,0,2.4707,8.9482,22.8725,22.8725,0,0,0,5.9121,7.44c1.1192,1.0024,2.293,1.9443,3.5039,2.8325a12.8426,12.8426,0,0,0,2.4844,1.7021c.9922.6338,1.5254-.8393.6426-1.4287-.93-.6206-1.8311-1.2856-2.7109-1.9765a33.161,33.161,0,0,1-6.4688-6.45c-1.875-2.59-2.4-5.3037-2.793-8.4239-.3789-3.0322-.6865-6.559.6172-9.4248,1.2891-2.8344,4.3282-3.4829,7.1875-3.4194a3.8442,3.8442,0,0,0,2.7725-.52,2.6047,2.6047,0,0,0,.792-2.9409c-.9434-2.439-4.27-1.6021-6.1992-1.1646A10.6136,10.6136,0,0,0,24.6411,91.5173Zm10.8428-4.186a1.3753,1.3753,0,0,1,0,2.749A1.3753,1.3753,0,0,1,35.4839,87.3313ZM56.9516,74.42c.3721-.5391.5069-4.6127-.1357-4.88h0a2.27,2.27,0,0,0-2.2246.2749L38.3355,81.9a2.27,2.27,0,1,0,2.708,3.6431l13.1982-9.812M39.689,85.0959a1.3748,1.3748,0,1,1,1.375-1.375A1.3745,1.3745,0,0,1,39.689,85.0959Z" transform="translate(-23.2786 -69.3664)"/>
</svg>
