<svg id="Layer_1" data-name="Layer 1" xmlns="http://www.w3.org/2000/svg" width="896.3035" height="318.4777" viewBox="0 0 896.3035 318.4777">
  <defs>
    <style>
      .cls-1, .cls-2, .cls-3 {
        fill: #3a3a3a;
      }

      .cls-2, .cls-3 {
        stroke: #3a3a3a;
        stroke-width: 2px;
      }

      .cls-2 {
        stroke-miterlimit: 10;
      }

      .cls-3 {
        stroke-linecap: round;
        stroke-linejoin: round;
      }

      .cls-4 {
        fill: none;
      }
    </style>
  </defs>
  <title>delimber</title>
  <g>
    <path class="cls-1" d="M-131.0687-185.402m-9.0757,4.4817c0,12.67.8651,22.423-.3135,31.9221-.7475,6.024-4.5369,11.6707-6.962,17.4866l-14.0331-2.7469c-2.8758-13.491-5.7517-26.9819-8.9516-41.9929-.6447,1.8841-1.4081,4.1147-2.6011,7.6008-2.01-3.845-2.6742-5.1169-3.6588-7.0007l-10.2975-1.8321-3.7929,4.4367-6.2451-.411c2.4-19.2273,4.7216-37.82,7.056-56.5175h6.6878l-3.0109-7.66c20.22-8.82,39.87-19.5876,60.8733-25.7246,12.4585-3.64,27.0539.4422,40.6828.3339,116.4527-.9252,232.9891-5.175,349.3287-2.045,91.2844,2.4559,182.3238,13.9882,273.4739,21.4665Q614.87-237.3055,691.6505-231.03c1.7391.1438,3.4239.9457,7.653,2.17l-24.8317,12.2254v35.2815L641.17-178.9747q.0489-1.5936.0977-3.1872H411.4808c2.9156,3.5732,7.6883,9.4227,12.2415,15.003,9.871.7072,19.2208,1.6336,28.592,1.9754,9.1657.3344,18.3532.0728,26.571.0728l94.1323,14.7852v26.4867H449.7123l2.79,8.5676c1.5126-2.8932,120.7507.8389,120.7507.8389l5.7987,72.43L431.7554-39.7019,424.28-30.8561c35.82,2.0978,71.5823,2.985,106.96,7.14,8.5032.9988,19.5742,11.5572,22.4281,20.0764,2.6612,7.9437-3.91,19.06-6.7432,28.6843-.46,1.5619-2.6113,2.6259-9.5028,9.1378-36.7684,0-79.3266-.3964-121.8737.121-36.296.4414-72.6647,3.844-108.8353,2.2266-20.9119-.9351-42.3665-7.131-61.7829-15.25-7.4067-3.097-16.1578-22.254-13.15-26.9447,6.142-9.5784,19.1009-17.9169,30.5836-20.2713,22.1949-4.5508,45.3072-4.6693,68.0519-6.4633,4.7742-.3765,9.6035-.0547,15.4693-1.6992-23.9808-1.5816-50.67.2052-39.4889-37.0968L294.16-83.2958q1.8126-1.9455,3.6249-3.891l-32.68-30.8578-7.5983,5.2452-12.7887-58.7132-16.4715,2.2877c-1.0968,16.3928-2.2013,32.9018-3.3059,49.4108l-6.5659-.9314q-1.3305-25.1262-2.6609-50.2522l-6.092-.0193q-1.2731,27.25-2.5462,54.5l-6.23.7878c-1.1366-19.4527-2.2734-38.9054-3.15-53.9028l-27.63,3.742,13.7212-28.1881H-130.0373m781.57-21.6358L297.55-246.66c-.9136,3.5186-1.4608,5.6259-2.8544,10.993l71.8068,17.9659c2.1716-2.39,5.0435-8.0889,8.0287-8.1489,3.2076-.0644,6.18,5.7287,9.8638,7.9618,6.6,4.0012,13.52,10.0242,20.544,10.3687,49.876,2.4466,99.8041,4.0212,149.732,5.148,31.0221.7,62.0729.13,93.5054.13C648.6878-204.2932,649.2391-206.5064,651.5329-215.7143Zm6.46-13.0693-361.347-33.323c1.5392,2.4541,2.3854,3.803,3.2313,5.1517-.45,2.0319-.8689,3.9251-1.6407,7.4119L659.6618-220.84q.272-3.553.544-7.1061ZM321.8974-202.0227H261.0117s1.3108,58.58,1.45,58.4633l59.4361,0" transform="translate(197 266.204)"/>
    <path class="cls-2" d="M620.6524-221.37q-149.75-12.375-299.4986-24.7669c-8.5107-.7056-17.0014-1.65-25.5014-2.4831" transform="translate(197 266.204)"/>
    <path class="cls-3" d="M291.6524-262.12c19,.8333,38.0612.9679,56.989,2.6253,68.6945,6.0155,137.3465,12.5176,206.01,18.8842q55.7574,5.17,111.5009,10.49" transform="translate(197 266.204)"/>
  </g>
  <path class="cls-4" d="M260.5953-151.2689a13.3353,13.3353,0,0,0,13.342,13.3378h37.03a13.3362,13.3362,0,0,0,13.3461-13.3378v-43.703A13.3367,13.3367,0,0,0,310.9677-208.31h-37.03a13.3358,13.3358,0,0,0-13.342,13.3378Z" transform="translate(197 266.204)"/>
  <path class="cls-1" d="M520.6442-31.8181H255.9563a42.0459,42.0459,0,1,0,0,84.0918H520.6442a42.0459,42.0459,0,1,0,0-84.0918Z" transform="translate(197 266.204)"/>
  <path class="cls-4" d="M520.6463,38.8949H255.9584a28.6671,28.6671,0,1,1,0-57.3342H520.6463a28.6671,28.6671,0,1,1,0,57.3342Z" transform="translate(197 266.204)"/>
  <path class="cls-1" d="M499.9251,10.2274a21.0228,21.0228,0,1,1-21.0227-21.0269A21.0543,21.0543,0,0,1,499.9251,10.2274Z" transform="translate(197 266.204)"/>
  <path class="cls-1" d="M297.173,10.2274a21.0207,21.0207,0,1,1-21.0186-21.0269A21.0508,21.0508,0,0,1,297.173,10.2274Z" transform="translate(197 266.204)"/>
</svg>
