<svg id="Layer_1" data-name="Layer 1" xmlns="http://www.w3.org/2000/svg" width="307.1921" height="153.1018" viewBox="0 0 307.1921 153.1018">
  <defs>
    <style>
      .cls-1, .cls-6 {
        fill: #3a3a3a;
      }

      .cls-1, .cls-2, .cls-3, .cls-4 {
        fill-rule: evenodd;
      }

      .cls-2, .cls-5 {
        fill: #6a6a6a;
      }

      .cls-3, .cls-7 {
        fill: #4d4d4d;
      }

      .cls-4 {
        fill: none;
      }
    </style>
  </defs>
  <title>dozer</title>
  <g>
    <path class="cls-1" d="M284.4878,8.8275C284.143,3.984,280.5083,0,275.66,0H195.295c-4.8515,0-8.469,3.99-8.8275,8.8275l-3.2013,43.1351H115.3193c-4.8063,0-8.1128,3.98-8.7516,8.7513l-8.2429,56.9149H292.2417Zm-54.9714,61.64-35.8277-.0812,4.293-58.6286h31.5347Zm11.7572.0272V11.7572H272.91l4.1913,58.8181Z" transform="translate(0 0)"/>
    <path class="cls-1" d="M152.2212,56.5513h-7.8381l-.0677-42.921c-.0086-5.7218-4.7621-5.8519-4.7745-5.8533L140.4291,0c8.0529.4247,11.7766,7.2063,11.779,14.8615Z" transform="translate(0 0)"/>
    <polygon class="cls-2" points="51.134 90.176 115.157 107.438 109.243 113.101 48.244 97.036 51.134 90.176"/>
    <polygon class="cls-1" points="267.74 82.361 113.726 82.361 113.726 80.793 267.639 80.793 267.74 82.361"/>
    <path class="cls-1" d="M125.9336,58.4105h7.8382v1.4773h-7.8382ZM161.49,72.8687h7.8382V74.346H161.49Zm0-4.8194h7.8382v1.4776H161.49Zm0-4.8191h7.8382v1.4773H161.49Zm0-4.82h7.8382v1.4773H161.49V58.41ZM144.3512,72.8687h7.838V74.346h-7.838Zm0-4.8194h7.838v1.4776h-7.838Zm0-4.8191h7.838v1.4773h-7.838Zm0-4.82h7.838v1.4773h-7.838V58.41ZM125.9336,72.8687h7.8382V74.346h-7.8382Zm0-4.8194h7.8382v1.4776h-7.8382Zm0-4.8191h7.8382v1.4773h-7.8382Z" transform="translate(0 0)"/>
    <path class="cls-3" d="M112.5612,52.4382c-3.292,1.1908-5.4851,4.4832-5.993,8.2757l-8.2429,56.9149h14.25Z" transform="translate(0 0)"/>
    <polygon class="cls-1" points="235.364 96.639 174.982 99.042 174.982 91.362 235.364 88.958 235.364 96.639"/>
    <polygon class="cls-3" points="101.652 94.655 98.325 117.629 292.242 117.629 290.604 94.655 101.652 94.655"/>
    <polygon class="cls-2" points="238.865 94.579 135.256 98.703 135.256 94.863 238.865 90.739 238.865 94.579"/>
    <polygon class="cls-1" points="240.067 90.178 242.018 107.117 228.742 107.117 230.674 90.178 235.398 86.765 240.067 90.178"/>
    <path class="cls-2" d="M235.3645,95.21a2.3426,2.3426,0,1,0-2.3425-2.3427h0A2.347,2.347,0,0,0,235.3645,95.21Z" transform="translate(0 0)"/>
    <path class="cls-1" d="M114.1222,52.0482l.0215,55.0691h-1.5616l-.0206-54.68A7.9221,7.9221,0,0,1,114.1222,52.0482Z" transform="translate(0 0)"/>
    <path class="cls-4" d="M289.7282,82.3613l-108.687-.2469,5.3677-73.3025C186.7629,3.9742,190.4436,0,195.2951,0H275.66c4.848,0,8.4827,3.984,8.8275,8.8275Z" transform="translate(0 0)"/>
    <path class="cls-2" d="M279.08,5.339l5.8668,72.5181-98.6152-.0137L192.1822,5.39,279.08,5.339ZM193.6212,6.9547l-5.5844,69.332h46.5639V6.9547Zm42.5472,0v69.332h47.0821l-5.59-69.332Z" transform="translate(0 0)"/>
    <polygon class="cls-1" points="139.942 94.097 141.892 111.036 128.617 111.036 130.549 94.097 135.272 90.684 139.942 94.097"/>
    <path class="cls-2" d="M135.2481,99.1293a2.3883,2.3883,0,1,0-2.3421-2.4337l0,.0459A2.37,2.37,0,0,0,135.2481,99.1293Z" transform="translate(0 0)"/>
    <rect class="cls-5" x="68.2944" y="118.1741" width="25.0812" height="22.2435"/>
    <path class="cls-6" d="M108.3261,107.1173H284.2a22.9921,22.9921,0,0,1,22.9921,22.9921h0A22.9921,22.9921,0,0,1,284.2,153.1018H108.3262A22.9921,22.9921,0,0,1,85.3341,130.11h0a22.992,22.992,0,0,1,22.992-22.992h0Z" transform="translate(0 0)"/>
    <path class="cls-6" d="M106.384,110.9574H286.1415a17.21,17.21,0,0,1,17.21,17.21v3.8839a17.21,17.21,0,0,1-17.21,17.21H106.3844a17.21,17.21,0,0,1-17.21-17.21v-3.8839A17.21,17.21,0,0,1,106.384,110.9574Z" transform="translate(0 0)"/>
    <rect class="cls-7" x="100.682" y="117.6288" width="162.3603" height="24.9611"/>
    <path class="cls-3" d="M283.2033,142.59a12.4809,12.4809,0,1,0-12.4808-12.481A12.481,12.481,0,0,0,283.2033,142.59Z" transform="translate(0 0)"/>
    <rect class="cls-5" x="100.682" y="117.6288" width="162.3603" height="12.4809"/>
    <path class="cls-2" d="M295.6839,130.11H270.7225a12.4807,12.4807,0,1,1,24.9614-.0148Z" transform="translate(0 0)"/>
    <polygon class="cls-1" points="65.512 87.542 71.941 140.417 35.68 153.101 0 153.101 31.168 140.417 37.577 87.542 51.591 81.663 65.512 87.542"/>
    <path class="cls-2" d="M51.5339,98.3988A4.0345,4.0345,0,1,0,47.5,94.3642,4.0424,4.0424,0,0,0,51.5339,98.3988Z" transform="translate(0 0)"/>
    <rect class="cls-6" x="224.9706" y="37.7487" width="4.5461" height="6.8343"/>
    <rect class="cls-6" x="227.2585" y="38.8147" width="2.2579" height="4.7027"/>
  </g>
</svg>
