<svg id="Layer_1" data-name="Layer 1" xmlns="http://www.w3.org/2000/svg" width="79.94" height="32.0996" viewBox="0 0 79.94 32.0996">
  <defs>
    <style>
      .cls-1 {
        fill: #3a3a3a;
      }
    </style>
  </defs>
  <title>feller-buncher</title>
  <path class="cls-1" d="M114.1965,58.32a2.6,2.6,0,0,0,0,3.9751c.5488.4643,1.1582.9946,1.1582,1.5268s-.6094,1.0625-1.1582,1.5269a2.6,2.6,0,0,0,0,3.9756,2.7842,2.7842,0,0,1,1.1582,1.8642v2.7872a1.3,1.3,0,0,0,1.3007,1.3007h2.2139a1.6924,1.6924,0,0,1,0,3.3848h-5.207A1.6925,1.6925,0,0,1,111.97,76.969V55.8172a1.6924,1.6924,0,0,1,3.3848,0v.97C115.3547,57.3225,114.7453,57.8557,114.1965,58.32Zm11.3105,3.2891h-9.6318a1.3016,1.3016,0,1,1,0-2.6031h9.6318a1.3016,1.3016,0,1,1,0,2.6031Zm-9.6318,7.0288a1.3018,1.3018,0,1,1,0-2.6036h9.6318a1.3018,1.3018,0,1,1,0,2.6036Zm-9.8252,8.58c-3.2393-11.1816-4.7471-11.1816-8.0508-11.1816H92.6379a2.343,2.343,0,1,1,0-4.686h5.3613c6.2519,0,8.9424,2.1049,12.5508,14.563a2.3426,2.3426,0,1,1-4.5,1.3046Zm2.25.7666a1.4194,1.4194,0,1,0-1.42-1.4189A1.4186,1.4186,0,0,0,108.3,77.9846ZM92.6379,65.1126a1.4195,1.4195,0,1,0-1.42-1.4195A1.4185,1.4185,0,0,0,92.6379,65.1126Zm32.8691.0112h-7.5488a1.3015,1.3015,0,1,1,0-2.603h7.5488a1.3015,1.3015,0,1,1,0,2.603ZM108.1818,80.1975h16.1416a1.3018,1.3018,0,0,1,0,2.6035H108.1818a1.3018,1.3018,0,0,1,0-2.6035ZM88.1808,51.843H75.1691c-2.1553,0-2.9131.9478-2.9131,2.8692V69.4387a.5212.5212,0,0,0,.52.5215H86.8117a.6384.6384,0,0,0,.6074-.5136l2.5576-14.9219C90.2629,52.7024,90.0754,51.843,88.1808,51.843ZM87.96,56.1643l-.9013,5.26a1.5989,1.5989,0,0,1-1.5215,1.2827h-6.97a1.3015,1.3015,0,0,1-1.3008-1.3018V56.1829a1.3018,1.3018,0,0,1,1.3008-1.3018h8.3105A1.0607,1.0607,0,0,1,87.96,56.1643ZM86.7179,76.1634a7.78,7.78,0,1,0,7.7793-7.78A7.7787,7.7787,0,0,0,86.7179,76.1634Zm3.9141,0a3.8662,3.8662,0,1,1,3.8652,3.8652A3.8652,3.8652,0,0,1,90.632,76.1634Zm-32.543,0a7.78,7.78,0,1,0,7.78-7.78A7.7795,7.7795,0,0,0,58.089,76.1634Zm3.9141,0a3.8662,3.8662,0,1,1,3.8662,3.8652A3.8654,3.8654,0,0,1,62.0031,76.1634ZM47.31,67.0042c.543-3.4595,1.6739-7.2583,3.0606-7.2583H70.6945a.5211.5211,0,0,1,.52.521v7.26c0,.7188-.4678.9473-1.1025.61a9.0744,9.0744,0,0,0-13.0157,5.68,1.49,1.49,0,0,1-1.539,1.1455c-2.8584-.291-5.6836-.5977-6.7178-.7676-2.37-.3906-2.1582-3.166-1.624-6.5937C47.2472,67.3977,47.2785,67.1966,47.31,67.0042Zm27.3282,3.999H85.7287c.72,0,.96.4766.6387,1.1191a9.0157,9.0157,0,0,0-.95,4.0411c0,.25.01.498.0312.7421.0332.41-.4922.7383-1.2109.7383H76.0148c-.6562,0-1.1289-.3281-1.0957-.7383.0215-.2441.0313-.4921.0313-.7421a9.0165,9.0165,0,0,0-.9512-4.0411C73.6779,71.48,73.92,71.0032,74.6379,71.0032Z" transform="translate(-46.8697 -51.843)"/>
</svg>
