<svg id="Layer_1" data-name="Layer 1" xmlns="http://www.w3.org/2000/svg" width="111.4309" height="66.7576" viewBox="0 0 111.4309 66.7576">
  <defs>
    <style>
      .cls-1 {
        fill: #3a3a3a;
      }
    </style>
  </defs>
  <title>forwarder</title>
  <path class="cls-1" d="M120.3381,119.7451c.12.125.0722.2129-.1045.1978l-3.3706-.3a1.3647,1.3647,0,0,1-.6431-.2393,2.4126,2.4126,0,0,0-1.5884-.3374l-6.251.9869c-.6245.0957-1.1132.0058-1.1035-.2012q.01-.186.0093-.3745,0-.2812-.02-.5572c-.0225-.3071.4468-.6318,1.0713-.7275l5.9492-.94a1.1436,1.1436,0,0,0,.957-1.3037l-.3335-2.1773a1.65,1.65,0,0,1,.7686-1.5478l.896-.5171a.2.2,0,0,1,.3237.1435l.6275,4.0943a3.8418,3.8418,0,0,0,.873,1.7661Zm-78.8443-8.2407a6.8333,6.8333,0,1,0,6.833,6.8335A6.833,6.833,0,0,0,41.4938,111.5044Zm0,10.229a3.3955,3.3955,0,1,1,3.3955-3.3955A3.3964,3.3964,0,0,1,41.4938,121.7334ZM25.945,111.5044a6.8333,6.8333,0,1,0,6.833,6.8335A6.8326,6.8326,0,0,0,25.945,111.5044Zm0,10.229a3.3955,3.3955,0,1,1,3.396-3.3955A3.3955,3.3955,0,0,1,25.945,121.7334Zm73.4736-10.229a6.8333,6.8333,0,1,0,6.833,6.8335A6.8326,6.8326,0,0,0,99.4186,111.5044Zm0,10.229a3.3955,3.3955,0,1,1,3.3955-3.3955A3.3955,3.3955,0,0,1,99.4186,121.7334ZM83.87,111.5044a6.8333,6.8333,0,1,0,6.8335,6.8335A6.8334,6.8334,0,0,0,83.87,111.5044Zm0,10.229a3.3955,3.3955,0,1,1,3.396-3.3955A3.396,3.396,0,0,1,83.87,121.7334Zm14.6313-19.7055,13.3643,1.0922c.6968.0879.9819.3716,1.1938,1.7041.1665,1.0435.9419,7.6617,1.2071,10.3223a1.4173,1.4173,0,0,1-1.1841,1.5215l-4.5957.7388a1.1828,1.1828,0,0,1-1.3164-.9454,7.98,7.98,0,0,0-8.79-6.0332.8783.8783,0,0,1-1.019-.9414v-6.4087A1.0361,1.0361,0,0,1,98.5016,102.0279ZM72.0842,113.1094c.3393-3.0869.8584-7.4541.9907-8.2852.2119-1.3325.4971-1.6162,1.1938-1.7041l2.3457-.1914a1.2716,1.2716,0,0,1,1.3326,1.0337l.9873,5.7627a1.7877,1.7877,0,0,0,.4848.9439c.4155.4258.4649.7343-.0552,1.0918a8.0977,8.0977,0,0,0-3.25,4.6743,8.1821,8.1821,0,0,0-.22,1.9028,7.96,7.96,0,0,0,.0484.875c.0547.4819-.3662.8652-.9981.8652H71.3361a1.1431,1.1431,0,0,1-1.1431-1.1435v-3.5454a1.1619,1.1619,0,0,1,1.1431-1.1431C71.9391,114.2461,72.0153,113.7368,72.0842,113.1094Zm5.2524-19.4775,2.7246,15.9a.6808.6808,0,0,0,.6484.5468H95.612a.6015.6015,0,0,0,.6064-.5547V93.8321c0-2.0479-.8071-3.0577-3.1035-3.0577H79.2507c-2.02,0-2.2193.9161-1.9224,2.8077Zm4.0464,13.31L79.1257,93.9a.9293.9293,0,0,1,.9482-1.1264H93.1847a1.1434,1.1434,0,0,1,1.1431,1.1435v6.5571a2.0362,2.0362,0,0,1-1.02,1.6592l-10.71,5.4185A.7976.7976,0,0,1,81.383,106.9414Zm7.2309,4.28,3.0318.002,3.0322-.002c.6309,0,.6807.2261.1646.59a8.0193,8.0193,0,0,0-2.8609,3.6558c-.1147.2959-.2251.4429-.3359.4414-.11.0015-.2212-.1455-.3355-.4414a8.0208,8.0208,0,0,0-2.8613-3.6558C87.9328,111.4478,87.9826,111.2217,88.6139,111.2217Zm-57.8491,0,3.0318.002,3.0322-.002c.6313,0,.6807.2261.1645.59a8.02,8.02,0,0,0-2.8608,3.6558c-.1143.2959-.2251.4429-.3359.4414-.11.0015-.2207-.1455-.3355-.4414A8.0165,8.0165,0,0,0,30.6,111.8115C30.0842,111.4478,30.1335,111.2217,30.7648,111.2217Zm32.5708-7.8794V95.2915a2.2867,2.2867,0,0,1,4.5733,0v8.0508a2.2867,2.2867,0,0,1-4.5733,0ZM9.9074,114.2656V89.6231a.6858.6858,0,1,1,1.3716,0v24.623h6.6787c.6318,0,.8716.4365.6274,1.0191a7.8859,7.8859,0,0,0-.2929.8261,1.3714,1.3714,0,0,1-1.3809,1.0142l-6.7988-.6094A1.2375,1.2375,0,0,1,8.9733,115.32,1.094,1.094,0,0,1,9.9074,114.2656Zm39.5728-.02H51.98V89.6231a.686.686,0,1,1,1.372,0v24.623h5.1509c1.2627,0,2.1289-.7539,2.8638-2.2129s1.7681-3.64,2.167-4.3.8-1.1059,1.4316-1.1059h1.1719a1.143,1.143,0,0,1,1.1431,1.143v5.3321c0,.6318.0195,1.1435.853,1.1435a1.0332,1.0332,0,0,1,1.1435,1.1431v3.5454a1.1435,1.1435,0,0,1-1.1435,1.1435H50.42c-.6318,0-1.0522-.3833-.9985-.8652a7.9473,7.9473,0,0,0-.5674-3.9477C48.61,114.6826,48.8488,114.2461,49.48,114.2461ZM34.0475,66.3277a.936.936,0,1,1-1.2861-.3121A.9372.9372,0,0,1,34.0475,66.3277ZM16.5685,90.3731A1.8293,1.8293,0,1,0,19.95,91.7686l6.9223-16.7749a9.1579,9.1579,0,0,1,2.7481-3.4214l4.6733-3.2573a1.8295,1.8295,0,0,0,.0562-2.96l-1.334-1.0078a2.0665,2.0665,0,0,1-.8394-2.207c.273-.6626.4951-1.1992.4951-1.1992A1.8295,1.8295,0,0,0,29.29,59.5449Zm1.6905-.2383a.9358.9358,0,1,1-.9356.9355A.9357.9357,0,0,1,18.259,90.1348Zm47.3632-.8379a.9358.9358,0,1,1-.9355.9355A.9358.9358,0,0,1,65.6222,89.2969ZM35.76,68.3706a2.9414,2.9414,0,0,1-.6137.731c-.396.3515-.3438.8252.1933,1.1572L59.4391,85.1607a6.3118,6.3118,0,0,1,1.61,1.55l3.0547,4.5424A1.8293,1.8293,0,0,0,67.14,89.2119l-3.9131-5.8188a1.8268,1.8268,0,0,0-.5561-.5347L37.1735,67.0908c-.5371-.332-.9429-.1567-1.0654.37A3.4048,3.4048,0,0,1,35.76,68.3706ZM25.6618,110.3672c-.1558.0064-.2822-.4956-.2822-1.1269V89.6231a.686.686,0,1,1,1.372,0v19.6357c0,.6309-.18,1.124-.4028,1.1128q-.2007-.011-.4038-.0107C25.85,110.3609,25.756,110.3633,25.6618,110.3672Zm15.5107.001c-.1777.0088-.3208-.4907-.3208-1.1221V89.6231a.6861.6861,0,1,1,1.3721,0v19.6294c0,.6318-.1631,1.1274-.3647,1.1176-.1211-.0058-.2432-.0092-.3653-.0092C41.3854,110.3609,41.279,110.3638,41.1725,110.3682Zm-23.812-5.6851a6.8045,6.8045,0,0,1-1.959-.7163,6.4638,6.4638,0,0,1-3.0185-3.5849c-.815-2.4419-.47-5.168,1.9985-6.5,1.02-.55,2.9634-1.0581,3.1587.6748.1714,1.5195-1.7251,1.6132-2.6,2.3139-2.4165,1.9351.5313,6.354,2.8257,7.0288C18.4753,104.1123,17.8718,104.77,17.3605,104.6831Zm-1.9663-9.979a.7786.7786,0,1,0,.7783-.7788A.7781.7781,0,0,0,15.3942,94.7041Zm6.1836,2.1665c-.8745-.7007-2.7715-.7944-2.6-2.3139.1958-1.7329,2.1387-1.2246,3.1587-.6748,2.4692,1.332,2.814,4.0581,1.9985,6.5a6.4588,6.4588,0,0,1-3.019,3.5849,6.8014,6.8014,0,0,1-1.9585.7163c-.5112.0869-1.1148-.5708-.4058-.7837C21.0466,103.2246,23.9943,98.8057,21.5778,96.8706Zm-1.2314-2.9453a.7784.7784,0,1,0,.7773.7788A.7788.7788,0,0,0,20.3464,93.9253Z" transform="translate(-8.9733 -58.4133)"/>
</svg>
