<svg id="Layer_1" data-name="Layer 1" xmlns="http://www.w3.org/2000/svg" width="99.2552" height="40.2803" viewBox="0 0 99.2552 40.2803">
  <defs>
    <style>
      .cls-1 {
        fill: #3a3a3a;
      }
    </style>
  </defs>
  <title>harvester</title>
  <path class="cls-1" d="M81.81,92.513v-.3838a.5276.5276,0,0,0-.5273-.5273H69.1087a1.8481,1.8481,0,0,1-1.8457-1.8457V84.8607a.527.527,0,0,0-.5273-.5274H50.4662c-1.5664,0-2.8418.9053-3.4551,4.81-.0137.0762-.0254.1553-.0381.2344-.02.13.2.2353.4912.2353H55.558a4.663,4.663,0,0,1,4.3711,2.4024c.5263.7783.7265,1.0253,1.4257,1.0253H81.2826A.5276.5276,0,0,0,81.81,92.513ZM48.7377,98.9485H81.2826a.5276.5276,0,0,0,.5273-.5273V94.6224a.527.527,0,0,0-.5273-.5274H61.3548c-2.8339,0-1.7724-3.4287-5.7968-3.4287H47.3031a.6256.6256,0,0,0-.6016.5225C46.1976,94.8216,45.9847,98.9485,48.7377,98.9485Zm5.0488,6.167a5.0308,5.0308,0,0,0,5.0312,5.03H83.4515a5.03,5.03,0,1,0,0-10.06H58.8177A5.03,5.03,0,0,0,53.7865,105.1155Zm1.6015,0a3.4292,3.4292,0,0,1,3.43-3.43H83.4515a3.43,3.43,0,1,1,0,6.8593H58.8177A3.4292,3.4292,0,0,1,55.388,105.1155Zm3.43-2.5156a2.5157,2.5157,0,1,1-2.5156,2.5156A2.519,2.519,0,0,1,58.8177,102.6Zm24.6338,0a2.5157,2.5157,0,1,1-2.5146,2.5156A2.5176,2.5176,0,0,1,83.4515,102.6ZM82.3607,74.5706H70.8861c-1.9,0-2.5684.836-2.5684,2.5313V90.0882a.4593.4593,0,0,0,.459.46h12.377a.5646.5646,0,0,0,.5371-.4532l2.2549-13.1591C84.1976,75.3284,84.0326,74.5706,82.3607,74.5706Zm-.1934,3.8115L81.3724,83.02a1.41,1.41,0,0,1-1.3418,1.1319H73.8841a1.148,1.148,0,0,1-1.1474-1.1475V78.3987A1.1488,1.1488,0,0,1,73.8841,77.25h7.3291A.9351.9351,0,0,1,82.1673,78.3821Zm59.7842,26.2051-.2256.2256-.2255-.2246.2255-.2266Zm0,1.2412-.2256.2266-.2255-.2266.2255-.2246Zm-.62.6211-.2266.2256-.2246-.2256.2246-.2265Zm-.6211.6211-.2256.2246-.2256-.2246.2256-.2265Zm1.2412,0-.2256.2246-.2255-.2246.2255-.2265Zm-1.2412-1.2422-.2256.2266-.2256-.2266.2256-.2246Zm.6211-.6211-.2266.2266-.2246-.2266.2246-.2246Zm1.8613,1.8633-.2246.2246-.2265-.2246.2265-.2265ZM139.97,90.8382v.5185a6.66,6.66,0,0,1,2.54,4.61c.085,1.8682-.8291,3.6348-2.7178,5.248a1.4861,1.4861,0,1,1-1.9306-2.26,3.8081,3.8081,0,0,0,1.68-2.84,3.91,3.91,0,0,0-1.5782-2.5546,1.4894,1.4894,0,0,1-.3505-2.0684c.0234-.0313.0468-.0606.0712-.09v-.54c0-.2988.3018-.48.6807-.4639.294.0127.6309.0127.9258,0C139.6693,90.3821,139.97,90.553,139.97,90.8382Zm3.2226,14.99-.2246.2266-.2265-.2266.2265-.2246Zm-.62.6211-.2256.2256-.2265-.2256.2265-.2265Zm.62-1.8613-.2246.2246-.2265-.2256.2265-.2256Zm-.62.6191-.2256.2266-.2265-.2266.2265-.2246Zm-3.1035-.6191-.2256.2246-.2256-.2256.2256-.2256Zm-1.2412,1.24-.2256.2266-.2256-.2266.2256-.2246Zm0,1.2422-.2256.2246-.2256-.2246.2256-.2265Zm.6211-1.8633-.2266.2266-.2256-.2266.2256-.2246Zm0,1.2422-.2266.2256-.2256-.2256.2256-.2265Zm-3.1055-7.4355c.3789,0,.5508.2812.4912.6552a2.6262,2.6262,0,0,0,4.3,2.4151,10.1071,10.1071,0,0,0,2.1475-2.4668c.1943-.3252.43-.6035.56-.6035h.2343a2.1719,2.1719,0,1,1,0,4.3437h-8.32a.686.686,0,0,0-.6855.6865v2.9346a.6729.6729,0,1,1-1.3457,0v-2.9346c0-.3789-.211-.6865-.4707-.6865s-.4707.3076-.4707.6865v2.9346a.6729.6729,0,1,1-1.3457,0v-2.9346c0-.3789-.1387-.6865-.3116-.6865h-.3115a2.1719,2.1719,0,1,1,0-4.3437Zm2.4844,5.5732-.2256.2256-.2256-.2246.2256-.2266Zm2.4824.001-.2256.2246-.2256-.2256.2256-.2256Zm-.62,1.8613-.2256.2256-.2266-.2256.2266-.2265Zm0-1.2422-.2256.2266-.2266-.2266.2266-.2246Zm-2.8643-.6045v2.4522a.5585.5585,0,0,0,.5586.5586h5.4a.5585.5585,0,0,0,.5586-.5586v-2.4522a.5583.5583,0,0,0-.5586-.5576h-5.4A.5583.5583,0,0,0,137.2259,104.6028Zm.2793,0a.2792.2792,0,0,1,.2793-.2793h5.4a.2792.2792,0,0,1,.2793.2793v2.4522a.2792.2792,0,0,1-.2793.2793h-5.4a.2792.2792,0,0,1-.2793-.2793Zm1.9649,1.2256-.2266.2266-.2256-.2266.2256-.2246Zm-.001,1.2422-.2256.2246-.2256-.2246.2256-.2265Zm-25.9463-33.85a.229.229,0,1,1,.2285-.2285A.2294.2294,0,0,1,113.5228,73.221Zm1.6817,3.6914,22.3623,12.1231a2.6444,2.6444,0,1,0,2.52-4.65l-22.36-12.123A4.2737,4.2737,0,0,1,115.2045,76.9124Zm22.2509,9.7988a1.3716,1.3716,0,1,1,1.3721,1.3721A1.3723,1.3723,0,0,1,137.4554,86.7112ZM83.0765,88.7757l31.626-12.8887a3.1257,3.1257,0,0,0-2.3594-5.789L84.32,81.5179Zm29.0752-15.7832a1.3716,1.3716,0,1,1,1.3711,1.3711A1.3721,1.3721,0,0,1,112.1517,72.9925Z" transform="translate(-46.3936 -69.8655)"/>
</svg>
