<svg id="Layer_1" data-name="Layer 1" xmlns="http://www.w3.org/2000/svg" width="88.9686" height="34.3535" viewBox="0 0 88.9686 34.3535">
  <defs>
    <style>
      .cls-1 {
        fill: #3a3a3a;
      }
    </style>
  </defs>
  <title>log-truck</title>
  <path class="cls-1" d="M65.5078,93.0231V97.95a.4586.4586,0,0,0,.4571.4589h3.2334a.3677.3677,0,0,0,.372-.4511,7.3317,7.3317,0,0,1,1.003-5.0108c.1338-.2158.0478-.3818-.2051-.3818H65.9649A.4579.4579,0,0,0,65.5078,93.0231Zm11.3038-2.4414a6.2183,6.2183,0,1,1-6.22,6.2178A6.2176,6.2176,0,0,1,76.8116,90.5817Zm0,9.4473a3.2291,3.2291,0,1,0-3.23-3.23A3.23,3.23,0,0,0,76.8116,100.029Zm58.0991-2.07a.3652.3652,0,0,0,.3691.45h7.1616a.459.459,0,0,0,.459-.4589V93.0231a.4583.4583,0,0,0-.459-.458h-8.374c-.2529,0-.3349.164-.1972.376a7.108,7.108,0,0,1,1.04,5.0175Zm-7.0391-7.3769A6.2183,6.2183,0,1,1,121.6524,96.8,6.2181,6.2181,0,0,1,127.8716,90.5817Zm0,9.4473a3.2291,3.2291,0,1,0-3.229-3.23A3.2292,3.2292,0,0,0,127.8716,100.029ZM97.0274,92.9469A7.3106,7.3106,0,0,1,98.03,97.9577a.3678.3678,0,0,0,.3721.4511h22.0605a.3645.3645,0,0,0,.3687-.45,7.114,7.114,0,0,1,1.0415-5.0175c.1367-.212.0556-.376-.1978-.376H97.2325C96.98,92.5651,96.8946,92.7311,97.0274,92.9469ZM90.79,90.5817A6.2183,6.2183,0,1,1,84.5713,96.8,6.2176,6.2176,0,0,1,90.79,90.5817Zm0,9.4473a3.2291,3.2291,0,1,0-3.2285-3.23A3.23,3.23,0,0,0,90.79,100.029Zm49.769-19.0264-.8979-5.7129a.8292.8292,0,0,0-.795-.6777h-6.0039a.6863.6863,0,0,0-.687.6865v5.6953a.6871.6871,0,0,0,.687.6875h7.1162A.5693.5693,0,0,0,140.5591,81.0026ZM125.76,88.93V73.7194a1.0562,1.0562,0,0,1,1.0557-1.0567h13.8061a.5548.5548,0,0,1,.53.4532l1.2759,8.1123c.039.249.22.3925.5273.4912,1.4678.4707-.0547,9.4707-.0547,9.4707a.4583.4583,0,0,1-.459.458h-9.1831a1.4448,1.4448,0,0,1-.7993-.3057,7.1138,7.1138,0,0,0-5.6709-1.5937A.8165.8165,0,0,1,125.76,88.93ZM60.792,68.6647A1.0558,1.0558,0,0,1,61.8477,69.72V87.1286H80.7823V69.72a1.0557,1.0557,0,1,1,2.1113,0V87.1286h18.7236V69.72a1.0557,1.0557,0,1,1,2.1113,0V87.1286H118.07l3.4575-1.7715V69.72a1.0562,1.0562,0,0,1,2.1123,0V88.1842a1.0564,1.0564,0,0,1-1.0562,1.0567H60.792a1.0559,1.0559,0,0,1-1.0556-1.0567V69.72A1.0557,1.0557,0,0,1,60.792,68.6647ZM79.7266,82.4831v3.59H62.9034v-3.59Zm4.2227-.7032V77.9782h16.6123V81.78Zm-4.2227-3.8017V81.78H62.9034V77.9782Zm0-4.5049v3.8008H62.9034V73.4733Zm4.2227,9.01h16.6123v3.59H83.9493Zm0-5.209V73.4733h16.6123v3.8008ZM58.6807,69.72v3.05H56.5254a1.9009,1.9009,0,0,1,0-3.8018h2.2959A2.11,2.11,0,0,0,58.6807,69.72Zm42.0215-.752a2.086,2.086,0,0,0-.1406.752v3.05H83.9493V69.72a2.086,2.086,0,0,0-.1407-.752Zm-37.9395,0H79.8672a2.0881,2.0881,0,0,0-.1406.752v3.05H62.9034V69.72A2.086,2.086,0,0,0,62.7627,68.9684Zm-6.2373,9.01h2.1553V81.78H56.5254a1.9009,1.9009,0,0,1,0-3.8017Zm0,4.5049h2.1553v3.8007H56.5254a1.9,1.9,0,1,1,0-3.8007Zm0-9.01h2.1553v3.8008H56.5254a1.9,1.9,0,1,1,0-3.8008Zm61.29,12.6H104.7842v-3.59h13.627a1.8937,1.8937,0,0,1,1.8476,2.3378Zm.5957-13.3027h-13.627V69.72a2.0881,2.0881,0,0,0-.1406-.752h13.7676a1.9009,1.9009,0,0,1,0,3.8018Zm0,4.5039h-13.627V73.4733h13.627a1.9,1.9,0,0,1,0,3.8008Zm0,4.5058h-13.627V77.9782h13.627a1.9009,1.9009,0,0,1,0,3.8017Z" transform="translate(-54.625 -68.6647)"/>
</svg>
