<svg id="Layer_1" data-name="Layer 1" xmlns="http://www.w3.org/2000/svg" width="109.6094" height="37.2685" viewBox="0 0 109.6094 37.2685">
  <defs>
    <style>
      .cls-1 {
        fill: #3a3a3a;
      }
    </style>
  </defs>
  <title>log-trailer</title>
  <path class="cls-1" d="M45.6621,75.4357a6.2183,6.2183,0,1,1-6.2187,6.2178A6.2177,6.2177,0,0,1,45.6621,75.4357Zm0,9.4473a3.2291,3.2291,0,1,0-3.23-3.23A3.23,3.23,0,0,0,45.6621,84.883Zm13.9785-9.4473a6.2183,6.2183,0,1,1-6.2187,6.2178A6.2177,6.2177,0,0,1,59.6406,75.4357Zm0,9.4473a3.2291,3.2291,0,1,0-3.2294-3.23A3.23,3.23,0,0,0,59.6406,84.883ZM39.4434,71.0675v-19.76a.9271.9271,0,0,1,1.8,0v19.76H69.4815v-19.76a.9271.9271,0,0,1,1.8,0v19.76a6.0313,6.0313,0,0,1,3.6181,1.4668l1.1934,1.1533a6.0126,6.0126,0,0,0,3.6309,1.4678h16.375a6.009,6.009,0,0,0,3.63-1.4687l1.1885-1.15a6.0987,6.0987,0,0,1,3.3076-1.4522V51.3078a.9265.9265,0,0,1,1.7989,0v19.76h29.2021v-19.76a.9271.9271,0,0,1,1.8,0v19.76h3.96a1.0549,1.0549,0,0,1,1.0547,1.0557v.581a1.0549,1.0549,0,0,1-1.0547,1.0557H107.99a2.1121,2.1121,0,0,0-2.1123,2.1113v1.46a2.0188,2.0188,0,0,1-2.1114,1.9121H67.5576a1.839,1.839,0,0,1-1.4775-.9668,7.26,7.26,0,0,0-11.0557-2.2353,3.3174,3.3174,0,0,1-1.8183.7275H52.0967a3.32,3.32,0,0,1-1.8193-.7275,7.26,7.26,0,0,0-11.0557,2.2353,1.839,1.839,0,0,1-1.4775.9668H36.2158a1.0561,1.0561,0,0,1-1.0566-1.0566V72.1232a1.056,1.056,0,0,1,1.0566-1.0557ZM68.4268,66.21v3.8018H42.2979V66.21Zm38.6523-5.208V57.2h27.0918v3.8018Zm27.0918-4.5049H107.0791V52.6964h27.0918Zm-27.0918,9.01V61.7062h27.0918V65.507Zm-3.91.7031v3.8018H72.3369V66.21Zm0-13.5137v3.8008H72.3369V52.6964ZM72.3369,65.507V61.7062H103.169V65.507Zm34.7422.7031h27.0918v3.8018H107.0791ZM38.3877,56.4972H35.1592a1.9,1.9,0,0,1,0-3.8008h3.2285ZM103.169,57.2v3.8018H72.3369V57.2Zm-68.01,0h3.2285v3.8018H35.1592a1.9009,1.9009,0,0,1,0-3.8018ZM140.9717,70.0119h-2.8906V66.21h2.8867a1.9009,1.9009,0,0,1,.0039,3.8018Zm-.0039-4.5049h-2.8867V61.7062h2.8867a1.9,1.9,0,1,1,0,3.8008ZM35.1592,66.21h3.2285v3.8018H35.1592a1.9009,1.9009,0,0,1,0-3.8018Zm0-4.5039h3.2285V65.507H35.1592a1.9,1.9,0,1,1,0-3.8008ZM68.4268,57.2v3.8018H42.2979V57.2Zm0,4.5059V65.507H42.2979V61.7062Zm72.541-.7041h-2.8867V57.2h2.8867a1.9009,1.9009,0,0,1,0,3.8018Zm-72.541-8.3057v3.8008H42.2979V52.6964Zm72.541,3.8008h-2.8867V52.6964h2.8867a1.9,1.9,0,0,1,0,3.8008Z" transform="translate(-33.2588 -50.6037)"/>
  <rect class="cls-1" x="100.9121" y="23.1562" width="1.5867" height="14.1123"/>
</svg>
