<svg id="Layer_1" data-name="Layer 1" xmlns="http://www.w3.org/2000/svg" width="105.0094" height="40.2804" viewBox="0 0 105.0094 40.2804">
  <defs>
    <style>
      .cls-1 {
        fill: #3a3a3a;
      }
    </style>
  </defs>
  <title>log-loader</title>
  <path class="cls-1" d="M53.9679,90.3918V90.008a.5276.5276,0,0,0-.5273-.5273H41.2667A1.8478,1.8478,0,0,1,39.421,87.635V82.74a.527.527,0,0,0-.5273-.5274h-16.27c-1.5659,0-2.8413.9053-3.4551,4.81-.0127.0762-.0254.1553-.0376.2344-.02.13.2.2353.4912.2353h8.0933a4.663,4.663,0,0,1,4.3715,2.4024c.5264.7783.7261,1.0253,1.4258,1.0253H53.4406A.5276.5276,0,0,0,53.9679,90.3918ZM20.8956,96.8273h32.545a.5276.5276,0,0,0,.5273-.5273V92.5012a.527.527,0,0,0-.5273-.5274H33.5128c-2.8344,0-1.7724-3.4287-5.7973-3.4287H19.4611a.6253.6253,0,0,0-.6021.5225C18.3556,92.7,18.1422,96.8273,20.8956,96.8273Zm5.0494,6.167a5.0309,5.0309,0,0,0,5.03,5.03H55.61a5.03,5.03,0,1,0,0-10.0605H30.9752A5.03,5.03,0,0,0,25.945,102.9943Zm1.6005,0a3.43,3.43,0,0,1,3.43-3.43H55.61a3.43,3.43,0,1,1,0,6.8593H30.9752A3.43,3.43,0,0,1,27.5455,102.9943Zm3.43-2.5156a2.5157,2.5157,0,1,1-2.5151,2.5156A2.5186,2.5186,0,0,1,30.9752,100.4787Zm24.6343,0a2.5157,2.5157,0,1,1-2.5151,2.5156A2.5182,2.5182,0,0,1,55.61,100.4787Zm-1.09-28.0293H43.0446c-1.9009,0-2.5689.836-2.5689,2.5313V87.967a.46.46,0,0,0,.459.46h12.377a.5637.5637,0,0,0,.5366-.4532l2.2554-13.1591C56.3556,73.2072,56.1906,72.4494,54.5192,72.4494Zm-.1939,3.8115L53.53,80.8986a1.4093,1.4093,0,0,1-1.3413,1.1319H46.0421a1.1473,1.1473,0,0,1-1.1474-1.1475V76.2775a1.1482,1.1482,0,0,1,1.1474-1.1484h7.3291A.9356.9356,0,0,1,54.3253,76.2609ZM95.0094,98.468c-.3735-.3135-.1987-.8321-.1152-1.2354A16.3593,16.3593,0,0,1,95.9816,93.85c1.0263-2.2842,2.7817-4.3711,5.3462-4.874a23.2536,23.2536,0,0,1,3.2871-.2256q2.23-.1113,4.46-.2207l6.8648-.34,1.9014-.0938a1.8474,1.8474,0,0,1,1.5971,2.876,2.2146,2.2146,0,0,1-2.1767.7529l-3.4419-.17c-3.8257-.19-7.6646-.4922-11.4937-.5674-3.6211-.0713-5.5239,4.0947-6.2344,7.0928A.6716.6716,0,0,1,95.0094,98.468Zm22.835-7.6016a.9419.9419,0,1,0-.9414-.9424A.9423.9423,0,0,0,117.8444,90.8664Zm-.3418,17.0977c-.1914.124-.4365.0283-.6323-.0284a7.3539,7.3539,0,0,1-1.9854-.9023,5.808,5.808,0,0,1-2.6206-4.0449,4.643,4.643,0,0,1,.3955-3.3946,5.3059,5.3059,0,0,1,2.88-2.1816,1.3545,1.3545,0,0,1,.8828,2.5469c-.5947.2529-1.2676.1875-1.87.4834a2.3684,2.3684,0,0,0-1.252,1.7031c-.5107,2.4268,1.9072,4.5518,4.0679,5.0928A.4024.4024,0,0,1,117.5026,107.9641Zm-2.542-9.1846a.71.71,0,1,0,.71-.709A.7108.7108,0,0,0,114.9606,98.78Zm3.3594,8.459c2.1606-.541,4.5786-2.666,4.0678-5.0928a2.37,2.37,0,0,0-1.2519-1.7031c-.6016-.2959-1.2749-.23-1.87-.4834a1.3545,1.3545,0,0,1,.8824-2.5469,5.3022,5.3022,0,0,1,2.88,2.1816,4.6453,4.6453,0,0,1,.3965,3.3946,5.81,5.81,0,0,1-2.6211,4.0449,7.3627,7.3627,0,0,1-1.9848.9023c-.1963.0567-.4414.1524-.6333.0284A.4025.4025,0,0,1,118.32,107.2385Zm1.6982-9.168a.71.71,0,1,0,.71.709A.71.71,0,0,0,120.0182,98.0705ZM89.9469,70.8244a4.2762,4.2762,0,0,1-1.9785,3.6465c-.32.2031-.3359.4668-.0029.6465l21.7592,11.7969a2.6444,2.6444,0,1,0,2.5206-4.65L90.4879,70.4689C90.1549,70.2883,89.9435,70.4455,89.9469,70.8244ZM109.6129,84.59a1.3719,1.3719,0,1,1,1.3721,1.3721A1.3726,1.3726,0,0,1,109.6129,84.59ZM56.362,80.0734l-1.0113,5.9043c-.0639.3741.168.56.52.417l30.99-12.6289a3.1257,3.1257,0,0,0-2.3594-5.789L57.1134,79.1389A1.3674,1.3674,0,0,0,56.362,80.0734Zm27.9467-9.2021a1.3721,1.3721,0,1,1,1.3721,1.3711A1.3729,1.3729,0,0,1,84.3087,70.8713Zm33.3076,21.9736c.15-.0039.3086-.01.4615-.0166a.6129.6129,0,0,1,.6816.6133v3.3428a.9148.9148,0,1,1-1.83,0V93.5393A.6994.6994,0,0,1,117.6163,92.8449Z" transform="translate(-18.5513 -67.7444)"/>
</svg>
