<svg id="Layer_1" data-name="Layer 1" xmlns="http://www.w3.org/2000/svg" width="1038.1082" height="568.5136" viewBox="0 0 1038.1082 568.5136">
  <defs>
    <style>
      .cls-1 {
        fill: #3a3a3a;
      }

      .cls-2 {
        fill: #fff;
      }

      .cls-3 {
        fill: #051b2d;
      }

      .cls-4 {
        fill: #00a651;
      }
    </style>
  </defs>
  <title>logo</title>
  <g>
    <path class="cls-1" d="M816.8142,639.2636c-1.7166-54.3107-13.8427-156.6457-56.1772-190.7483-21.7089-17.488-53.6884-20.7606-79.0676-9.5937-24.7858,10.9059-38.9626,35.32-47.8859,59.7292-30.6471,83.8334-27.2841,187.5449-15.8216,276.0764,4.8993,36.8406,14.9888,71.7019,46.0939,94.8306C679.828,881.36,695.37,884.1318,714.64,884.3806c18.7856.2424,34.4547-4.4265,49.48-15.9583,31.092-23.8628,40.2279-59.7266,45.0014-96.8669C814.7547,727.7244,818.2118,683.478,816.8142,639.2636Z" transform="translate(-94.1242 -315.8759)"/>
    <path class="cls-1" d="M1095.6851,576.0132c-8.7012-33.6892-.2519-41.56-8.91-66.3053-40.1907-56.6891-33.3319-46.0452-52.33-60.4927a6.3159,6.3159,0,0,0-5.8306-.984,28.354,28.354,0,0,0-7.6163,3.6442c-4.0347,4.0348-15.8661,9.5164-19.1135,11.242a2.51,2.51,0,0,1-2.8971.0912c-5.2645-3.1728,7.58,5.38-49.9247-19.6237-5.63-2.387-31.5583-17.7287-33.18-17.8927a13.6588,13.6588,0,0,0-5.74.51c-.38.1422-48.93,31.4115-49.25,31.6314a1.8636,1.8636,0,0,1-2.478.0547c-.8107-.6267-26.9468-19.0921-39.12-26.1651-8.8584-4.9209-15.4371-10.378-30.8112-25.0353C779.8831,398.7347,775.023,390.69,772.85,390.69c-3.3264,0-25.3448,18.1478-28.9163,21.1727a89.0545,89.0545,0,0,1,17.0546,6.6868c1.4941-1.3483,3.0793-2.46,3.79-1.6034,9.7054,11.34,1.0068,1.9362,7.6162,8.5456,37.2382,26.5037,45.1271,70.765,46.3353,67.7445-.2187-4.9223,6.54-28.7645,6.5959-28.989.763-2.458-3.5493-4.5733,26.5111,17.0909.6275.4536,10.756,5.9839,12.9914,7.27,1.4759.8565,2.1137.9293,3.5348-.2731,3.5166-3.0612,7.4159-5.63,11.1147-8.4727,36.8478-27.7,35.1642-28.961,37.316-27.5862.2243.1388,44.0238,26.4888,49.2871,27.8048,18.4676,4.8184,24.6782,10.1095,31.0117,4.2636,3.8784-3.59,22.1147-13.25,22.3386-13.3557,2.4678-1.1361,2.7464.22,3.1521.3826,3.5713,1.5124,6.5777,4.0084,9.9486,5.8852,24.6678,14.1074,29.9981,14.8766,32.0867,17.7288a17.58,17.58,0,0,1-2.9518.328c-1.3483-.2186-2.8061.51-3.99-.5647-.0715-.04-10.8241-.3785-12.2079-1.2026-1.5306-.8566-3.298-1.075-4.81-1.9133a12.4434,12.4434,0,0,0-8.1264-1.3118c-9.4706,1.4652-10.5383,4.9048-11.6795,6.9237-4.7737,8.5-17.2435,21.3669-27.4587,32.5789-.4555.5282-.8462.5183-1.3665,0-7.53-7.5-12.0608-10.8161-12.9914-13.1191-1.2237-3.0282-11.5688-6.781-13.3011-6.7235-2.2959.0365-4.3548-.9291-6.5594-1.33-8.7515-1.5433-13.2037-6.365-16.8724-5.9945-1.7128.1457-3.5349-.6924-5.12.5283-1.5487-.3643-2.66.7653-3.99,1.2573-1.9861.7107-2.97,2.6057-4.0632,4.1544-1.0842,1.6023-1.0381.6543-8.91,7.1061-.5466.4555-.51.4008-.7107-.2371-7.4833-19.7076-7.3247-16.44-7.3247-21.4456,0-2.6378.312-3.9938-.6013-5.0836-2.6689-3.1849-8.813-3.7176-12.955-3.0977-3.2.4953-4.8515,3.5432-12.3718,6.0677-7.2054,2.5392-2.7339,2.6127-20.68,15.3781-3.09,2.1631-4.7528,2.6092-9.7664,7.5619-.99.9564-12.6152,9.9266-16.7083,13.3375-1.1786.96-6.6626-7.8231-14.03-13.4469a535.9193,535.9193,0,0,1,17.3826,115.1548c10.2742-13.6741,9.5171-12.5011,9.1286-13.629a2.1017,2.1017,0,0,1,1.0932-1.6762c1.557-.44,4.15-5.1307,5.448-6.7418,1.895-2.405,4.5734-4.3365,4.6463-7.78,0-.2.4314-.4228.62-.7106.9541-1.4595.4555-2.5507-1.2207-2.6054q-3.4712-.0822-6.8875,0c-1.573,0-5.2047,3.2468-8.09.6194-.31-.2734-.9293-.2186-1.3666-.3281,2.14-5.3471,8.0427-6.6232,18.0749-28.0415,1.02-2.2048,1.02-2.2048-1.13-2.2048-.82-.0545-1.7674.2369-2.4963-.1092-1.4394-.6744-3.0793-.1824-4.4822-.7471a9.4568,9.4568,0,0,0-4.045-.4738c-3.4.2269,2.0307-5.115,2.15-5.3388,10.1013-19.5284,12.2372-20.9607,16.4533-27.5677,12.9329-21.609,11.76-20.3828,12.3173-19.7332a16.6911,16.6911,0,0,1,1.7491,3.9358,7.23,7.23,0,0,0,2.223,3.808c.5648.5285,1.4941,1.1662,1.5487,1.7856a3.58,3.58,0,0,0,1.33,2.2776c1.5231,1.8-.6507-2.2027,9.3291,16.3987,3.08,5.8189,2.28,3.7374,9.8391,15.2872,4.7178,6.9149,3.6364,8.0211,5.1018,8.91a1.3,1.3,0,0,1,.4555.82,7.9168,7.9168,0,0,1-1.2208.6926c-1.1843-1.1664-2.5509-.565-3.8263-.5832a19.4176,19.4176,0,0,0-6.3044.5285c-1.7856.5829-3.8263.3278-5.612.82-1.3927.4916-1.4941-1.1-1.4941,2.1137,0,.0909.2188.1457.2188.2551,1.02,3.4073,1.3846,6.8875,4.2271,9.0374,11.7663,8.7158,9.2986,13.7672,15.7062,20.7352.5767.6271.4009.8745-.3643.8563-5.1165-.6264-6.1753-.6172-7.6345-1.1479-2.8424-.984-5.9035-.5647-8.7642-1.3848a.4619.4619,0,0,0-.3826,0c-.5486.8231-1.4145-.0828,3.4072,6.7053,2.4417.7654,2.7331,3.6624,4.7921,4.81,1.0021,2.7878,2.8607,5.0472,4.373,7.5979,3.3662,5.7126,4.0812,7.604,14.74,15.8522,2.2769,1.7619,5.3417,2.0607-8.1446,1.8221-.6378-.0183-1.2026.9655-2.0226.1092-.4555-.4738-1.6033.2916-2.2593-.51a2.6932,2.6932,0,0,0-2.2594.1642,2.2249,2.2249,0,0,0,.164,1.4395,115.65,115.65,0,0,0,7.07,10.2035,2.4339,2.4339,0,0,0,2.3322,1.2027c4.2755-.4055,6.1733.5412,6.8875-.6926a1.7007,1.7007,0,0,1,2.0407-.6375c4.282,1.4128,8.4225-.1034,10.987,1.1112.6771,0,.6172-2.3141-.747-2.3141-1.64,0-3.0793-.8745-4.7556-.71-.9913.1029-5.637.2611-6.4865-.1641.1921-.224,2.36-3.4856,3.8263-4.4822,6.7757-4.4086,8.6633-13.4259,14.941-17.5284.0911-.1639.4008-.31.4008-.419-.31-1.6217,1.33-1.7311,1.9314-2.6057.4555-.6377.8564-1.33,1.33-1.9677a1.9219,1.9219,0,0,0-.0547-.583c-.2552-.1641-.656-.3463-.82-.2733-.9474.6923-2.2046.7471-3.2615,1.2571-.5648-1.2571-1.075.0729-1.6216.0547-.7835-.1092-1.6946-.2734-2.15.0727-.9292.8018-1.95.3281-2.9335.4738-3.875.8025-3.1866.78-4.1726.1641-.5781-.5793,12.6241-17.1169,17.0729-24.434.3619-.5881.9094-2.9591-.4555-2.5692-1.2755.3645-2.3141-.6377-3.48-.6194-3.9646,0-5.3227-1.7453-7.07-.1822a2.8811,2.8811,0,0,1-1.4941.1639,2.7549,2.7549,0,0,1-.8017-.2733,1.72,1.72,0,0,0,.4009-.4738c.2733-.2914.7835-.583.7835-.8563-.2186-2.2594,1.64-3.48,2.2776-5.2656a5.6121,5.6121,0,0,1,1.239-1.8768c6.1228-6.4655,11.3185-19.3116,12.08-19.5143,1.6763-.6379,2.2594-2.1866,3.0976-3.6442,1.0749-1.8768,2.2776-3.6261,3.225-5.5756.3644-.7471.82-.8563,1.1661-.2186a21.8062,21.8062,0,0,1,1.6582,2.7693c1.8766,4.0452,4.7738,7.416,7.3064,11.06,9.36,13.237,7.7308,12.6879,10.55,17.4009,1.0931,1.7126,2.4233,3.17,3.5894,4.81.6195.911,1.95,1.2391,1.95,2.6056-4.4135.407-6.0515.7377-6.9967.2187-1.5488-.8746-3.0247-.31-4.5006-.5285-.6559-.091-1.1842-.1822-.583.8746.8938,1.3714,5.6858,11.3982,10.6955,16.8179.2045.23,5.2021,6.1007,5.0107,6.9419-.0546.2734-.71.4191-1.1843.6744-1.5123.8563-1.5669.9291-3.3526.2549-2.5115-.9894-3.4688-.267-4.6828-.8745-1.4576-.7652-3.0063-.2734-4.5187-.2914-.9838-.0183-1.239,1.1112-.6924,1.913,7.3945,11.2672,16.729,22.9255,17.0364,23.5778,1.6134,3.257,1.7028,2.5534,17.4191-3.3711.6127,0,3.7718-4.2767,3.9356-4.5.2186-.3643.31-.7107.5284-1.057-2.7361-1.0688-16.475.5834-13.9571-1.0929a32.2305,32.2305,0,0,0,3.4073-2.8973c1.0932-1.2206,1.5487-2.8608,3.3708-3.2981,9.2361-13.1792,9.5228-14.3464,12.791-17.1637a7.0833,7.0833,0,0,1,2.3869-1.7856c.5831-.1824.7835-.82.7289-1.5125-.0548-.82-.7289-.5829-1.02-.82-1.8827-1.804-2.4906,1.1646-4.3.6559-1.5669-.2551-2.897.7471-4.4458.6924-3.4917-.1748-3.6352.5832-4.9925.5832.5974-2.7878,1.3165-1.885,2.2412-3.59,3.0429-5.5209,7.3612-10.2584,11.1875-15.36,6.5421-8.9429,6.0676-7.1678-2.8788-9.3655a16.581,16.581,0,0,0-6.96,0c0-1.4718.9147-1.5829,1.5669-3.0247,1.7856-3.1521,3.4255-6.4317,5.9765-9.0921.5973-.398,8.991-16.2647,12.4083-19.8242,1.4376-1.496,2.8807-5.299,3.9356-6.4867,1.9455,4.22,1.8211,2.6152,4.1,6.6509,8.6464,14.6147,9.4154,13.1377,10.0213,14.2485,1.2755,3.3708,3.7718,5.9762,5.1018,9.4019a8.2445,8.2445,0,0,0,1.731,2.8971c1.4394,1.494,1.95,3.6986,3.9356,4.7555.5285.2734.7107,1.148,1.0386,1.7127a10.5848,10.5848,0,0,1-5.5755-.2731,19.1377,19.1377,0,0,0-5.5938-.11c-.8017.0365-.9846.6852-.6377,1.549,3.4052,8.4786,12.3314,18.1863,18.8584,25.6364-3.6622-1.5487-7.3246-2.9882-11.1328-4.2453-2.2411-.7474-4.2272,2.0222-3.0428,3.9355,3.7352,6.14,7.6891,12.226,11.6612,18.2572-2.2594-.4008-4.464-1.057-6.7963-1.476a2.7387,2.7387,0,0,0-3.3162,3.3163c1.1479,4.0814,3.8628,7.8532,5.7031,11.6793,1.3666,2.8243,2.478,6.2136,3.7535,9.4022,24.6132,0,51.54,3.4976,55.4821-3.0612C1126.642,639.0386,1099.6208,591.2821,1095.6851,576.0132Zm-238.3817,56.302c-4.4459-.2916-8.7277,1.0385-13.1918.674-2.1042-.217-1.54-.9673-1.3483,4.92,1.5453,1.4348,2.3043,1.0545,2.6237,2.3323.63,2.2783,1.5314.9862-11.479,1.7491.1148.3022,1.78,5.9035,3.2615,5.9035,2.2861.0642,4.48.9814,6.9238.6924a2.763,2.763,0,0,1,2.6056.51,1.4067,1.4067,0,0,0,1.8768-.4555c.6924-.8928,3.79-4.9742,4.6827-6.1951,2.3687-3.1886,3.8035-7.0236,6.76-9.73a.792.792,0,0,0,0-.8016C859.3975,631.2932,858.1234,632.3152,857.3034,632.3152ZM654.27,392.33c-2.4415-2.8059-5.9218-4.3548-8.2722-7.361-2.4962-3.17-7.4158-16.2895-12.3354-19.223-1.0569-.6559-4.6463-.2369-5.1565-.0547-.7106.3281-1.3847.7836-2.0408,1.0934-2.65,1.3025-11.6047,21.8258-15.688,27.44-4.35,6.126-7.262,12.0244-12.3354,18.658-.444,1.34-3.2814-9.901-10.7684-29.6451-.7653-1.986-3.5895-13.2828-3.48-14.777.2594-3.6342-4.6421-8.2122-7.6528-9.6936-1.1114-.51-1.9861-1.5485-3.2615-1.84-2.5691-.5829-5.0289-1.4393-7.6891-1.2024a20.0729,20.0729,0,0,1-8.4727-2.0407c-1.1716-.7668-2.4415.0365-3.4619-1.2756a19.6742,19.6742,0,0,0-7.7074-5.6664c-2.1864-.984-3.4073-2.97-5.1929-4.0814-.4047-.2534-12.5858-9.0048-14.6676-10.6958-3.3709-2.7878-13.3741-16.0888-18.239-16.0888-3.6077,0-13.7384,12.9367-14.777,14.4127-4.1349,5.6642-10.226,11.7769-13.9753,15.9431-5.601,6.1471-4.0369,5.63-12.8456,16.0341-.4579.5193-23.83,28.5878-23.9785,28.7888-1.0568,1.3848-2.7878,2.2959-4.0631,3.5712-5.2417,5.2415-16.3533,9.4545-19.059,15.5968-1.5488,3.4258-5.1747,4.9927-9.0192,4.7011-1.53-.1639-2.3322,1.6944-3.8263,1.6762-2.1857-.0373-6.5636-1.8395-9.6935-2.15-4.1543-.3461-7.8713-2.3871-12.0257-2.6055-2.6966-1.44-5.867-1.84-8.5273-3.48a16.1564,16.1564,0,0,0-12.9367-1.33c-3.0055.9948-6.308,7.8374-13.702,16.9818-2.2687,2.79-4.3877,4.1012-9.8573,13.0824-1.0386,1.7311-2.6056,3.0067-3.6442,4.7011a11.912,11.912,0,0,1-2.1865,2.879c-.4373.5465-1.0021.6375-1.2208-.3828-.1457-.492-.8017-.9293-.656-1.5305,1.02-4.0632-.3643-8.2722-4.1542-10.313-2.4963-1.3847-3.2615-3.48-4.0269-5.7213-1.6762-5.0472-5.6666-11.4609-11.4062-14.8862a115.3169,115.3169,0,0,1-9.6022-6.9422c-6.2553-4.6908-8.9961-6.109-14.6677-14.7225-3.1046-4.767-12.87-16.224-18.075-17.4916-1.8949-.4555-14.285,14.2668-16.016,15.706-16.5575,13.2245-29.947,25.1122-32.16,25.3451-2.4415,2.0407-5.3386,3.4255-7.598,5.6849a10.8856,10.8856,0,0,1-2.3869,1.7856c-1.0932.3645-.51,2.0954-1.95,1.9862-3.5364,3.3138-8.8777,6.6342-14.6859,10.2581-9.2743,10.9144-18.1843,22.1019-25.5819,34.3827-20.9954,34.9-30.9712,83.9056-42.4725,105.8623-6.1951,11.807-43.0373,62.8068-30.2828,71.5891,2.5873,1.7675,28.0416-.82,30.9387.7473,23.7081,0,21.1348.6616,24.0878-1.9862,4.045-3.6989,6.9968-10.5317,9.9121-15.16a43.604,43.604,0,0,0,4.5551-9.5841c1.602-4.7379-7.0686-3.6787-12.5358-3.3161.17-.2239,17.2043-25.96,23.5048-34.0726.8471-1.0909,1.5487-1.0568,2.15,0,1.1661,2.2046,2.3505,4.4095,3.5166,6.6506a7.3884,7.3884,0,0,0,.656,1.913c1.7084,2.1647,2.5326,4.7921,4.0449,7.0879,2.77,3.9357,5.1565,8.1081,8.1811,11.8617a96.1581,96.1581,0,0,1,7.4706,11.2968,2.8946,2.8946,0,0,0,.6194.6561,2.8262,2.8262,0,0,1-2.314.2c-1.95-1.13-4.045-.2-6.0857-.51-.9657,1.1661-2.3869.1457-3.4073.6741-2.3523,1.2665-4.7252-.146-4.4641,1.4213.6845,3.8785,8.9211,12.0961,10.477,15.0686,1.991,3.6452,6.5147,2.488,7.47,3.0427,1.4759.8563,3.0247.1824,4.5371.4008.5886.0982,2.8022-3.216,3.061-3.8443.6377-1.476,2.2047-1.8768,2.9335-3.0977,3.4446-5.561,7.3857-8.05,11.7342-16.6173.3462-.6741,1.4941-.9292.8745-1.7491-.3138-.4931-5.2681-.3045-5.8124-.2733-4.719.404-4.4852,1.4253-7.2153,1.2571-1.02-.2187-2.0407-.6742-3.0247-.9291,4.223-6.7593,6.06-7.78,9.9668-13.0281,2.66-3.6441,4.9742-7.5249,7.4158-11.2967.9292-1.4395.8381-1.6034-.7106-1.6034-17.2906,0-11.3824-.0287-11.0782-1.3484.1467-1.1555,25.6826-39.49,25.91-39.83,1.1994,1.7985,1.5307,2.9069,2.7877,5.0107.5284.8745,1.8586,1.64,1.8038,2.3505-.1639,1.6032,1.2208,1.3848,1.7857,2.0587a25.9447,25.9447,0,0,1,3.9357,6.4867c1.6762,3.99,4.81,7.0879,6.1951,11.1876a8.9994,8.9994,0,0,0,2.7148,4.2271c2.8971,2.2958,3.4619,6.3045,6.3226,8.5821.164.0545.164.2733.2368.419-.5079.38-7.3942.2134-7.9989.2-2.3686,0-4.5915.9293-6.96,1.33-.2186,0-.5648.6562-.4555.82,1.075,1.7128,2.15,3.48,3.2251,5.1566,1.8176.3134,1.4162,1.7567,3.0793,3.7535,1.403,2.15,3.2433,4.0632,4.7374,6.1584,2.5691,3.3893,4.7009,7.0152,7.3612,10.35a5.3355,5.3355,0,0,1,.6559,1.7311,5.7879,5.7879,0,0,0-1.8949-.565c-3.5166.073-6.9057-.82-10.4223-1.2208-.7832-.1043-3.3088-1.1214-3.6259-.3826-.0546.4555-.1094,1.2026.1458,1.4393,1.33,1.1664,2.35,2.8243,3.7352,3.6989,4.9126,2.9758,5.5892,7.7807,12.9914,16.7994.249.3034,3.1417,1.613,3.6259,2.77,1.45,3.537,3.775,2.285,7.5069,2.4964,2.1961.28,3.1765-3.956,5.1565-6.5961,1.775-2.3656-1.1561-2.4816-1.6945-2.04-1.6557,1.3563-3.2654-.54-6.2133,1.3848-1.2193.7963-1.6581-.4555-2.46-.2188-.2245-.8532-1.0291-.8129,1.731-3.0063.7835-.62.31-1.64,1.0386-2.4417,3.68-4.0814,6.2679-8.91,8.9281-13.775.164-.3461.51-.5282,0-.8563-.2551-.2-.3645-.6012-.9293-.2-1.0567.71-2.5508-.1094-3.6077.9291-2.0793-1.5594-5.83.2382-4.7009-1.33,4.4823-5.94,7.8167-12.6816,12.3537-18.567,4.6567-5.8656,5.19-11.435,7.7073-11.1326.3279,0,.8747.7468.8017,1.1659-.4153,2.1047,2.9076,3.3837,2.5509,4.865a.87.87,0,0,0,.51.6194c.9475.1277,1.1115.8746,1.4576,1.6217,1.6086,3.5883,3.15,3.9578,10.4952,18.148.4009.7469,1.2572,1.7309,1.0568,2.2958-.328.9293-1.5908.1478-2.3322.4191a26.5274,26.5274,0,0,1-5.74,1.2206c-5.638.8457,4.4506,8.8343,9.62,17.7287a11.8725,11.8725,0,0,1,1.7857,3.2251c-1.1479.0548-2.2047.2007-3.3344.2916a33.1805,33.1805,0,0,0-6.3225-1.2208,1.0481,1.0481,0,0,0-.8747,1.64c.4555.5647,1.0751,1.02,1.5488,1.5487,4.3256,4.5907,3.3739,4.7814,6.1039,3.8265.8435-.295.8382-1.1481,1.2755-1.2756,1.8949-.5647,2.1682-2.3685,3.061-3.7533.8527-1.2371,4.1794-3.67,3.3527-4.9925-.8747.182-1.33-1.44-2.4234-.401-.3462.2916-1.1114.2369-1.731.2369-2.3921.171,2.2485-4.8655,3.8263-6.6686,8.1366-9.0892,3.9074-4.2438,6.7054-8.91,1.306,1.6341,2.4028,2.0524,2.4415,2.8243.1275,2.2593,1.8949,3.3163,3.061,4.6464a53.5917,53.5917,0,0,1,5.6849,7.2882c-.2.0548-.3462.2187-.51.2187-6.6417,0-6.1907-.1113-6.2316.5282-.1766,1.3551.78,1.7318,5.8124,7.5437,2.2333,2.5813,2.9539,5.0624,5.029,3.2248a.6854.6854,0,0,1,.5648-.0545c1.3119,1.2207,2.97.3644,4.4276.6557a2.0868,2.0868,0,0,0,2.3688-1.1112c1.2355-2.2688,5.5009-7.4033,3.2068-7.0151-.9111.1641-1.7492.4373-2.6056.6379-.9474.2-2.0615-.4385-2.9153.492-.1308.1425-.8745-.2554-1.2207-.5467-.5982-.2994,3.5247-4.508,7.7073-12.0624a1.0764,1.0764,0,0,0-.9657-1.6579,19.39,19.39,0,0,1-4.537-.2916c13.0216-21.3042,6.0665-9.3988,10.0214-16.107.4774-.8151,1.99-3.6081,2.7149-4.1727.6522.6528.48,2.6056,1.1661,2.8426,1.1115.4008,1.1479,1.4577,1.6217,2.15.9475,1.403,1.84,2.8243,2.7149,4.2273,6.6021,10.67,7.3259,10.8138,5.9764,10.6956a24.4434,24.4434,0,0,0-5.9764.6559c-2.4208.4349,1.63,3.34,5.1565,10.0214.8846,1.6137,2.0953,2.8379,2.0953,3.48-.0364,1.6219.984-.0545,1.2209.4555.0546.1642.1639.51.1093.565-.3462.2006-.7653.5832-.984.419-1.4029-.82-2.9518-.4738-4.4276-.583-.3644-.0547-.7279-.4062-1.02-.4555-3.274-.5515,1.858,3.3035,3.5166,6.0857,1.0933,1.8221,2.6785,2.314,4.1361,1.7856,2.106-.7324,6.8122-.51,9.7663-.51,1.2736-.1313,1.4306.41,3.954-4.3363.0911-.0547-.2734-.6561-.3645-.6561-1.3847.1824-2.8789-.583-4.2089.4555-.1276.1459-.51.0547-.82.0547.2937-1.1761,6.6173-8.9756,6.45-10.3675-.2771-.8515-.994-.7836-2.15-.7836-2.9153-.0909-2.9518-.1092-1.3848-2.66.5467-.911,1.3848-1.7494,1.84-2.6421,1.6945-3.4436,4.3548-6.0857,6.25-9.3106.4009-.5649.9293-.7108,1.33.3461,1.5839,3.2614,4.2971,6.9141,8.5819,13.21.5875,1.0436,1.2168.8146-.5649,1.0567-8.1954,0-5.5016-.6828,2.059,11.0964a2.04,2.04,0,0,0,.3462.6014c-.328.0547-.7288.2187-.8563.0547-.8747-.9292-1.9171-.3242-2.9337-.51-.7135-.13-1.8766-.6559-2.0953-.419-.9293,1.2571.8414,1.5406,1.1843,2.478.3306.9037,1.7667,1.44,2.6057,2.2775.4467.4463.6559.51,1.3665.1093.9839-.5648,2.0588.4008,3.1157.51,11.0832.8682,6.8866-.6157,13.1554-7.7073.5831-.565.51-1.7309.6924-2.66-6.0549-.9569-4.305.995-6.7782.4008-.2551-.1094-.6194-.6924-.5283-.8563a23.0054,23.0054,0,0,1,3.0246-4.3c2.2047-2.1864,2.8424-5.3021,4.92-7.5614a.9923.9923,0,0,0-.6924-1.64,41.9728,41.9728,0,0,1-5.2294-.1092c10.8221-18.3212,12.9732-16.3359,12.9732-20.17,2.0119-.2417,5.6762,8.9559,8.6913,12.2808,1.986,2.1681,2.897,5.0471,4.7009,7.3794a.9635.9635,0,0,1,.1275.4555c-1.065.32-1.2852-.49-2.15-.4008-1.567.1275-3.0975.7287-4.7373.6193-.9658-.0545-1.4213,1.4942-.7653,2.387,2.6581,3.798,3.8013,4.1782,5.9764,7.8167,1.5113,2.4933,3.0924,2.9418,2.2411,4.5735a1.3413,1.3413,0,0,1-1.1115.1639c-1.0749-.8563-2.2958-.583-3.4618-.6377-1.2027-.0547-1.7493.4191-1.3848,1.33a4.2355,4.2355,0,0,0,1.1114,1.9862c3.7745,3.3713,3.7852,7.0893,5.3751,7.2883.8124.1147,4.1354,0,4.956,0,4.3311,0,5.3783,1.3271,6.1222.583a3.57,3.57,0,0,1,2.6056-.583c4.4686.1578,3.5894-.24,5.776-3.8083.8786-2.0372-.1634-.63-14.5584-1.2754.6012-1.33,1.239-2.6056,1.8221-3.9539,3.6233-3.6308,10.6448-13.046,13.6108-20.68.62-1.6764,2.15-2.4417,3.59-3.5167a1.5541,1.5541,0,0,0-.2187-1.075c-1.586.0274-3.1522-1.5852-4.81-.1459a1.5159,1.5159,0,0,1-.9293.11c-5.37-.1522-4.6752,1.8979-7.2518,1.2753-4.1949-1.9063-1.2937-2.71-1.0568-3.48a9.3611,9.3611,0,0,1,2.0407-3.1886c4.2786-3.8075,11.3316-16.3366,12.2625-17.9658.6013-1.093,1.7492-2.2594,1.2937-3.8626-1.33-.0729-2.66-.2189-4.0086-.2371-.2914,0-.747.4555-1.02.401-1.8221-.401-3.4476,1.65-5.4115.2552-.61-.4332-1.6764-.2007-2.6056-.3644,1.1618-1.24,25.1484-41.1472,26.6751-42.9281,1.2143-1.1275,1.5675,2.4158,3.1158,4.6281,2.8242,3.8263,5.7759,7.434,7.7073,11.8435,1.0347,2.2316,5.4291,8.0805,13.9024,23.5593.328.5649,1.44.9292.8746,1.6764-.2757.5012-6.7353.3172-6.96.31-2.8871-.1011-10.9489,1.2873-8.0537,3.0609.9649.5911,4.3786,6.9058,7.9989,11.4062a182.4952,182.4952,0,0,1,10.6956,15.9979c-3.2891.1863-3.0926.2664-4.2818-.1095-2.2594-.8927-4.7556-.7651-7.0514-1.64a8.2913,8.2913,0,0,0-2.5145,0c-.51.0545-1.02,1.2753-.7835,1.7491.8381,1.2753,1.3119,2.9515,2.66,3.8808a11.5719,11.5719,0,0,1,1.9678,1.3848c.1771.1771,4.7817,6.47,5.8489,8.4364,5.9113,10.895,6.2231,6.6989,12.3354,15.0139-9.7757.6524-13.3986-.7975-14.8316,1.1112,1.2656.57.8439-.2568,1.7128,2.1321.6163,1.4386.2491,1.2206.4372,1.2206,1.5488,0,3.0064,1.3848,4.3366.5285a6.9217,6.9217,0,0,1,2.6784-.4737c5.09-.8419,4.2616-.5748,4.5734-1.2754.6776-1.4271,1.12-.5235,5.9582-8.1993.7288-1.1846,1.84-2.2959,1.6216-3.9722-.0546-.51.82-1.494,1.1115-1.44,1.8038.164,1.7856-1.4575,2.478-2.314.5284-.6559-.0547-1.494-1.0386-1.5123-2.5734-.0677-4.5351-.1447-5.74.3279-2.0224.7836-2.0121.7675-4.0632.3281-.86-.1843-1.1843-.2-.3461-.9838,3.6715-3.3665,1.7231-2.6569,3.061-4.2821,3.4984-4.2453,5.9765-9.165,8.7824-13.7932.8565-1.4757.4555-2.2046-1.1844-2.2046-.51,0-1.1695-.2064-1.5122,0-1.9705,1.1868-4.0451.2916-6.0493.62-.8715.0872-.5625-.3791,2.46-4.61,8.39-11.8385,8.0457-14.12,10.0762-16.4534,3.5733-4.1378,3.8972-7.5046,6.9056-10.5134,1.602-1.602,2.3244,4.9524,6.1221,8.6913,2.93,6.4556,4.8546,6.3767,12.3537,20.48,1.2649,2.42-3.0716-.1747-8.509,2.4053-.8767.3385-4.1072-1.2853-1.2755,2.806a140.9829,140.9829,0,0,1,9.4383,14.1573c1.0021,1.6947,1.658,3.6442,3.3708,4.8651.1093.0911.1093.31.164.4372-.2733.0547-.583.2187-.82.164-.4555-.164-.8746-.6012-1.33-.5648-4.11.3445-7.61-2.3027-8.6366-1.2756-1.2989,1.5281.5452,1.7568,3.717,6.2316.5283.7651,1.6945,1.075,1.64,2.2046,1.7856,1.44,2.46,3.6442,3.6805,5.3751,1.1773,1.5836-.212,1.1116,17.164,1.1116,1.1541,0,1.064-.6774,2.8242-3.99,1.2279-2.21-1.6844-1.567-7.4706-1.567-.747,0-1.6762-.2731-2.1318.0547-1.33,1.1662-2.8424.3279-4.1542.5467-.6013.091-.6013-.2553-.2551-.6561,3.6312-4.0184,18.8424-29.4008,18.822-29.7908-.7289-.4555-.9293-1.4393-2.0044-1.3848-2.4411.1018-4.7959-.2723-7.0878.8748-2.0079.9909-6.1976-.1493-4.9743-1.7494,5.271-9.819,1.7949.459,15.1779-25.928.8758-1.4234-.9437-2.2378-1.5123-1.8586-1.6482,1.0667-3.4033.4561-5.1383.5285a34.9434,34.9434,0,0,1-5.4662-.2369c3.1486-4.1328,3.57-5.6933,5.12-8.1264,7.633-12.5257,1.3673-4.0669,12.4083-47.9388,3.8264-15.1415,10.7138-42.3449,26.1286-66.4691-1.5852-2.1682-2.4416-4.7194-3.6624-7.0514-9.4586-19.3476-5.825-14.1381-3.2979-27.6409.5084-2.5228,2.8642-6.99,3.2979-11.1329a25.924,25.924,0,0,1,1.3666-6.5776c.6741-1.95.9838-3.972,1.6216-5.9218,2.1061-6.0177.851-5.0548,1.64-6.1586,1.3705,1.3693,4.3261,8.1311,5.8124,10.3495.8018,1.2389.7835,3.0609,1.5306,4.5,1.2026,2.2775,2.4234,4.5551,3.5349,6.9239.583,1.2207,1.5852,2.3321,1.2754,3.8626a.556.556,0,0,0,.0546.2916c3.1166,4.782,3.8079,10.9215,6.7052,14.704a92.7682,92.7682,0,0,1,20.3162-14.1028C656.65,398.2966,659.47,398.3675,654.27,392.33ZM303.7214,429.8464c-1.7751,2.2074-.5348.8751-11.734,15.4331-.2845.37-.3462.8928-.6743,1.2754-13.7738,15.449-12.1435,15.1657-18.33,23.2861-3.7716,4.92-7.7256,9.6933-11.4061,14.6675a126.4408,126.4408,0,0,1-11.552,15.178,14.2751,14.2751,0,0,1-6.7417,4.045c-.2252.0681-48.2741,22.4928-48.6311,22.43,2.3869-7.4524,3.0247-8.5819,4.9744-12.226,2.5143-4.7741,4.1542-9.9122,6.4865-14.7955,5.3572-11.5866,3.5526-10.5124,7.1971-14.5036,2.9791-3.2426,3.0612-7.6225,3.0612-11.57.0931-4.1934-1.5047-4.918-3.7171-13.41-.6194-2.2229-.9475-4.5552-1.7674-6.76a3.991,3.991,0,0,1-.0547-2.4418c.1458-.4555,1.0021-.7651,1.5306-1.13.2239-.1894,17.1094-16.3522,20.28-18.9678a73.0575,73.0575,0,0,0,8.1628-7.1788c1.9132-2.0772,4.4094-3.3163,6.25-5.3568,4.8914-5.5094,13.0585-11.8444,23.359-21.8286.51-.51,4.3911,6.3045,5.9217,8.9282,5.385,9.4538,4.88,8.92,8.254,11.1693C305.1033,429.4118,304.9862,428.3086,303.7214,429.8464Zm91.8325,2.97c-2.0407,2.1317-3.1522,4.956-4.7373,7.434a329.0057,329.0057,0,0,0-18.403,31.03c-8.953,16.0261-12.4819,19.0129-15.4147,25.1447-3.2969,6.8593-18.6423,31.2512-20.2068,35.02-.6181,1.59-3.9509,3.4906-4.9742,7.9262-.2187,1.002-1.33,1.7127-1.7675,2.7149-1.281,2.975-1.8916,3.2653-6.6141,11.5154-.1094-.2734-.328-.6194-.2915-.82,1.8188-5.2874,10.0342-36.8257,13.0824-41.4342,1.239-1.84,1.6763-4.1,2.4417-6.1219.5912-1.605-.1665-4.4179.0728-7.4707a3.113,3.113,0,0,0-1.33-3.17c-1.2937-.984-1.6034-2.66-2.3869-4.0268-.0729-.1276.0546-.4372-.0547-.62-1.37-3.13-2.9521-1.71,5.2111-8.5819,1.403-1.1811,2.3869-2.8788,4.1544-3.5894a2.866,2.866,0,0,0,.8928-.8564C369.0735,454.7577,402.9487,425.4143,395.5539,432.8166ZM451.783,514.7c-.1457.1822-.0546.6194,0,.911.51,3.2069-.3279,6.3591-.7652,9.4018-.4373,3.28-.51,6.6873-1.7128,9.8759a6.472,6.472,0,0,0,0,1.8766c0,16.6867-.382,9.6421-.6194,14.3944-.11,1.4395.3279,3.0062-.1641,4.3183-.6918,2.2071-.0911,3.86-1.1661,4.7556-1.1662,1.0022-2.0042,2.3505-3.4984,2.9517-.9249.38-5.2013,6.1775-10.0761,8.8553-.7571.4159-1.0932,1.64-1.822,2.2775-2.5874,2.2959-4.5552,5.3023-7.6345,7.1244-2.3949,1.5148-2.6473,3.26-2.3322,1.0567.2915-.7469.82-1.3665,1.0568-2.1317a30.1882,30.1882,0,0,1,1.9132-5.1018c1.7491-3.0065,2.2411-6.6142,4.3365-9.4383-.7285-2.3475,6.5861-8.407,7.2518-10.4041a4.5866,4.5866,0,0,1,1.567-2.7694,1.4807,1.4807,0,0,0,.4372-1.895c-2.9585-8.735-5.3223-8.814-13.41-8.2358-.2369,0-.51.3825-.6741.3643-3.5349-1.5852-7.4522-1.9315-11.0235-3.4618-.9839-.4372-.8382-.3827-.3827-1.1846,4.7289-7.8073,5.4463-11.8232,9.074-15.9431a10.8743,10.8743,0,0,0,1.5305-3.6624c.3279-1.0565.911-2.3138.5284-3.1886-.7113-1.5694-.1011-2.62-1.1479-6.6686-.71-2.129-2.1536-2.9213-3.4984-6.3226-.4009-1.0569-1.6763-1.84-2.0408-2.9337-.3462-1.093.328-2.66-.1821-3.6077-1.7011-3.1459,2.0515-10.5405,2.7148-14.1028a35.2869,35.2869,0,0,1,1.8768-5.1564c.5649-1.6034.6923-3.389,1.5123-4.9742.82-1.6034.7835-3.6806,1.6581-5.1746.9474-1.6582.5466-3.5349,1.731-4.9742.37-3.411,4.3547-17.4959,4.3547-13.9754a14.19,14.19,0,0,0,.5648,4.1c.2734,1.33.2187,2.7148.62,4.1541.7472,2.9382.16,4.5269,1.33,9.7483.1458.9475-.4918,2.0769.5831,2.8423.2251.225-.2009,1.8022.5649,5.0836,2.4572,11.3307-2.05,14.7438,3.0064,22.74,2.8562,4.57,2.9088,2.4407,9.73,7.9989a10.9635,10.9635,0,0,1,1.95,1.95c.9839,1.2207,2.9335,1.84,2.8241,3.79C452.275,511.5483,453.022,513.2244,451.783,514.7Zm132.8656-98.0276c-.0916.2274-13.4706,30.3246-13.5381,30.5562-2.4046,7.5008-12.0363,15.8707-11.9528,23.76.5852,21.435,2.9418,7.0218,12.2261,33.3623,6.7356,17.4588,8.5692,7.4682-11.7887,36.46-1.8858,2.7268-18.9014,25.5391-21.1,29.4081,0,3.6917-4.88-14.1161-12.0258-39.0469-1.13-4.1-2.7148-8.0536-3.5347-12.2625-.2369-1.1481-1.0022-2.15-1.1844-3.2433-.51-3.5712-2.478-6.8328-2.5873-10.4952,0-1.7561-15.4922-23.2921-20.6076-32.36-.8564-1.5224-.5955-1.1786,1.5852-6.359,2.89-6.8658,2.6209-2.6375,5.9217-7.7621,1.6216-2.6966,1.5122-4.2091.8017-7.6891-1.911-9.2348-8.139-7.8611-17-15.67-9.0624-8.1411-11.5229-10.3587-20.6624-19.4413-.7862-.7813-4.6827-4.045-5.6848-5.0472-3.9968-3.8568-3.807-3.391-3.0976-4.81,7.3248-14.5689,26.7224-38.4182,41.9441-63.0072,1.0569-1.7128,4.0632-7.07,4.6463-7.1243,2.3323-.1822,5.3387,3.9722,7.38,5.7395,5.3264,4.6806,5.9395,7.4108,10.1307,10.44,20.6115,15.19,21.7526,13,28.8251,17.9473.7115.5154,4.9752,1.6667,6.7417,3.2616.76.7161,20.6227,35.635,23.1768,39.32C583.6939,413.2144,585.1211,415.5385,584.6486,416.6728Z" transform="translate(-94.1242 -315.8759)"/>
    <path class="cls-2" d="M788.5588,693.8866c-3.6619-.544,1.0118-.6675-14.0114,1.9986-5.68-1.0629-4.1288-1.2514-7.0718.5286-5.9387-1.2353-2.81-1.2446-14.2379.3393-3.0479-1.4865.4109-1.0245-18.9524-1.66-2.9919-1.3578-1.3565.0334-7.3355-7.0528.5487,36.1812.4053,36.2411,5.7329,34.7745,4.1387,1.9222,2.95,1.7156,5.3743,1.169,4.3689,2.4171,15.2116.7118,27.7967,3.8848,2.351-.8552,1.49-.7923,3.7527-.1132,2.3266-.6886,1.0908-.7127,5.639.2826.5661,1.2.5695.76.0939,1.9236-2.1963,1.6982-1.33,1.5611-3.7527.8485-2.6966.7546-.8108.3775-9.5046,1.622l-3.79-1.0939c-2.4452,1.6863-1.186,1.5548-5.7136.2643-9.004,1.5151-7.1143,1.6667-9.58.2071-9.3273.9733-6.7772,1.0845-11.5975-.2449-2.4495.284-1.9861.3143-2.4894.0378.1447,1.8483.3959,4.6774.3959,7.4865,1.1271-.24.595-.48,2.3195,1.2445,2.15.5659,1.2739.5984,3.7905-.0189,4.1922,2.0084,3.4894,1.6741,5.7707,1.1883l1.9047.9807c3.4129-.2265,21.9505,1.1312,28.0982,2.4894,2.3994-.8151,1.4713-.8258,4.0354-.1133,2.5409-.6887,1.1979-.7283,6.1105.3582.5671,1.2251.5843.7828.0377,1.9236-2.399,1.652-1.4712,1.5281-4.0358.7918-2.8854.7164-.8674.34-10.1648,1.6409l-4.092-1.0184c-2.5613,1.7311-1.1972,1.5817-6.1289.3771-9.6446,1.6879-7.6322,1.81-10.2964.377-19.6152-.025-12.9111.2906-17.3115-1.2067,0,13.1872-1.012,9.0252-.9052,16.2177.0944,6.3742.7731,6.3742.8863,12.748.1535,10.3328-1.3784,25.8819.2062,69.5028-11.9106,1.5246-9.1793,1.1765-13.144,1.6782.0755-5.8835-1.3577-6.2983-1.4709-11.5031-.3063-5.8192,1.4552-7.79,1.5276-13.88.0943-6.3737-.2629-39.4239-.1878-45.7792.0944-6.3738-1.2822-6.3738-1.2067-12.7481.0943-6.3738.8674-6.3549.9617-12.7291.1736-13.87,2.5037-11.1813-1.6408-12.5027-2.4437.2713-1.5382-.0474-3.96,1.2822-5.047-.7923-3.6967-.8852-6.1666.2077-2.6362-.7363-1.6938-.679-4.0921-.1133-29.8969-.9708-18.6123.7927-26.3635-1.0184-2.4445.7471-1.5184.7888-4.0358-.0189-2.4518.5222-1.6022.8887-6.43-1.7725.6529-1.1549.0828-.6206,2.5461-2.1123,2.6438.9665-.4391.8414,11.899-.66,4.8046,1.1785,3.4946,1.3571,5.9406-.4714,5.059,1.0212,2.4562,1.2516,11.824-1.3955,2.7151,1.0558.47,1.2079,11.6919-1.7725,2.4226.43,1.5334.5735,3.8844-.4715,4.5783-.0663,3.613.0566,4.9221-.3964-.7666-6.4531.6367-11.1958.8674-14.7093-2.1689-.0909-1.5695-.3365-2.64.9244-1.6122-.4318-1.0869-.5185-2.32.2638-1.4572-.1367-.9626-.309-2.15.6414-5.1266.3657-1.2767.921-7.7881-.2454-2.49.77-1.5123.8467-4.2431-.1506-1.2816.8778-.7385.84-2.0934.1506-1.1191.58-.7166,1.0024-3.3941-1.4144l1.1878-2.2628c1.9875,1.1358.4323.1244,3.0737.0755,3.5086-1.4944,2.3811-1.4647,5.0165-.396,1.0447-1.876.2925-1.6558,2.9042-.8489,4.0724-2.9638,3.0106-2.69,4.5446-1.81,3.5756-3.1906,2.4956-2.605,4.8466-2.8665.6409-1.1392.2362-.9344,1.565-.7919,1.32-1.5294,1.11-1.4291,1.3015-1.3011-.7107-9.3747,1.6438-20.99.1317-18.311-5.1949,2.3138-3.9187,1.46-5.8646,3.7149-2.9682.5937-1.9875.2074-4.2053,1.7914-27.483,5.3255-22.2208,4.8653-27.9288,3.7339-2.5572.747-1.5844.7932-4.2431-.0378-2.3963.42-1.637.9192-6.6569-1.999.6894-1.07.1112-.6173,2.7154-1.9991,2.6908,1.0314.3678,1,12.1827-.622,4.9243.8808,3.7928,1.0324,5.0915-.1321,1.1108-.996.1321-.7961,4.9029-.5092,8.15-4.5148,6.2751-3.909,9.1085-3.7339,6.9237-5.7416,3.8286-3.9174,9.1086-6.8641,1.0412-1.8536.5346-1.8937,5.5441-3.5833-.0732-2.4123.3726-21.0726.3771-21.2714-8.7589,1.9748,9.9188,1.58-31.7,2.395-4.7519-1.8558-3.4025-1.62-6.11-1.2638-2.3084-1.1542-1.381-.9863-4.0165-.8674-4.5777-2.12-3.7472-1.4047-4.0737-2.8853.83-1.0306.17-.592,2.8854-1.6787,2.24,1.2221,1.3291,1.038,3.9415.9429,9.6867.34,7.0737-.1032,11.9184,1.773,2.4661-1.4933,1.5517-1.3177,3.9976-.9617,2.331.9276,1.4389.9,3.8849.2826,6.6053-2.1716,4.8337-2.0052,7.5243-1.2255,12.7659-7.0516,10.8857-5.8733,11.8429-6.883-.1061-3.6587-.1888-2.06-.1888-8.5055-.546.7836-.2015.7169-1.546.17-1.0557.7723.3867.4315-8.4484,1.4521-3.8423.4439-3.0194.14-3.9981,1.0939-2.2173.1354-1.6281.0248-2.6965.4526-4.5481-.8375-3.3507-.8788-5.488,0-2.2177-.9282-1.628-.9545-2.6966-.0755-1.1391-.6883-.6805-.6837-1.7725-.0189-2.1486-1.178-2.494-.7713-.9429-4.2242,1.0369.778.6111.76,1.64.1133,1.0815-.0252.4112.1972,3.1118-1.2633,2.2088,1.0211,1.5989,1.2235,2.32-.698,2.0827.7694,1.3613.8914,3.168-.32,1.5644-1.8729.9757-1.674,2.2629-.7924,1.8347-1.1309-.4015-.3523,12.39-3.9222,1.9723-.0453,1.5184.1769,2.1118-.8673,1.2814.301.9591,2.3029,1.2261-13.2578-7.6531.209,1.6139.2815-20.5933,1.6787-8.2374-1.5161-5.9784-1.3661-10.2775-.8674-4.0282-1.2674-2.9119-1.2078-5.0727-.4715-1.9917-.8151-1.2185-.7868-3.3568-.2642-4.5281-2.4986-4.34-2.2788-1.471-4.337,1.9691.8823,1.2013.8378,3.3379.3393a5.842,5.842,0,0,0,3.3568-.3587c4.1795-.5217,2.6589-.633,6.6192.6791,1.4381-1.6055,1.7058-1.9252,4.96-.5092,7.4665-2.496,5.8023-2.3881,8.09-1.3577,7.598-3.1581,4.3219-2.2593,14.5957-3.7527.434-13.2948,1.8745-21.7245,1.2071-21.7245-.378,1.0337.4845.64-4.9787,1.5842-1.1881,1.2119-.6316,1.0264-2.489.6409-.38,1.069-.0869.9322-1.1316.5281-.4764.8818-.1474.83-1.2634.1888-1.4279-1.0945-1.1054-.4015-1.2633-3.2058.973.4746.68.5486,1.1312-.2832.729-.2761.3563.0725,1.6782-1.8669l1.49.4337c-.1713-1.9626-.5081-1.5815,1.3205-1.2256,1.2674-3.1695.7272-2.804,2.0363-2.15l.9618-2.5456c1.5024-.2313,1.2012.02,1.32-.9807.9518.1589.7383.2445.9991-.3015,0-7.3439.1767-7.2825-1.7914-5.2048-3.2144-.7246-2.399-.8334-3.7528.2826-1.66-.66-1.0778-.6818-2.546-.0188-3.9772-.8183,1.7673,1.2318-9.8811.4714-1.5421-.7484-.9689-.6912-2.4894-.3582-1.5235.4759-.9522.4737-2.4516-.0944-1.5423-.4437-.9365-.5345-2.4328.3209-1.4933-.68-.9321-.698-2.4516-.057-2.4335-.9812-4.0534-1.0827-1.2256-4.2238,1.4295.7486.8884.7476,2.3572.1317,1.4254,0,.89.1465,2.3384-.5654,2.784-.77,1.6946-.8659,4.7334.2261,1.2453-1.7887.7286-1.51,2.2251-1.4144,1.5679.7834.5818.946,4.5635-1,1.3538-.9265.7429-.9312,2.3573.0189,2.8263-.9972,1.837-.4712,4.2808-2.395,2.8515.0679,2.1218.2717,3.3568-.773,1.5941.38,1.029.4265,2.4327-.3205.0755-3.4323.3209-5.0543.5281-7.2039l-5.3747.49c-1.45,1.5926-.7863,1.2748-2.9415,1.2067-1.6864,1.1635-1.011.8862-2.98,1.1128-1.7114,1.41.5027.7194-12.2766,3.13-3.6808,1.5671-2.2666,1.2822-6.2044,1.0562-1.68,1.135-.9648,1.0164-3.0548.66-1.8291.9744-.7976.8681-4.7145.3021-.5917-1.1607-.5476-.7225-.2642-1.9047,1.591-1.9189.8641-1.6448,2.8853-1.1694,1.8862-.9806.5-.3623,7.0529-3.0359,4.0131.2847,2.3488.5809,7.3733-1.5465,8.08-4.0515,5.4938-2.3721,11.5036-7.2412,6.1942-1.782,7.469-2.67,9.4667-3.0175.2563-3.0159,1.3376-15.9108-1.3954-14.3511-.2454.151-.2638.9051-.5092,1.0184-.2827.1321-.9241-.3393-1.2067-.2454-.2454.0755-.4733.5993-.698.698-.2471.1085-.83-.0944-1.0562.0377-.9534.4409.6366.8292-2.5455,1.3389-1.2261.2265-3.7716.1887-4.96.5658-.4715.151-1.2431.9154-1.7537.9807-.5268.0672-1.5654-.6414-2.0934-.5092-.2827.0755-.5654.7546-.8486.7918-.2826.0567-.773-.49-1.0557-.4714-.7.05-.2955,1.4118-2.9042-.3393-.267-1.4408-.376-.4824.83-3.2624.226.151.6225.5785.8674.5847,1.1138.0281,2.7532-2.0179,3.8471-2.1312.49-.0566,1.471.7923,1.8858.5469.3582-.2076.0189-1.3577.3582-1.5842.3959-.2827,1.4521.453,1.9047.2832.8862-.3394,1.4709-2.7159,2.395-2.9609.32-.0944.8862.5281,1.1883.4526,1.1312-.2638,1.98-3.0364,3.0547-3.4507.2454-.0944.7946.2494,1.0184.1128.21-.128.17-.7542.3582-.9052.2832-.2638,1.1506-.2076,1.49-.377.4337-.2265,1-1.2072,1.49-1.2256.0828-.8854,1.8238-13.3414-.4148-11.8429-.2265.15-.34.7353-.547.9051a18.7674,18.7674,0,0,1-6.0349,3.4507c-.4925.1422-1.5838-.0184-2.093.0567-4.7659.6815-3.5249,1.7314-4.1675,1.9613-.2643.1132-.8112-.32-1.0751-.245-.2449.0751-.4163.71-.679.7731a7.8348,7.8348,0,0,1-2.5267-1.2445c-.273-.5519-.245-2.1123.2827-2.4516.2265-.1511.7734.377,1.0184.3015.2454-.0566.45-.5884.66-.7352.1671-.1166.6224-.17.8108-.2827a15.5413,15.5413,0,0,0,1.9424-1.9236c.32-.3209,1.6409.4144,1.9424.2261.4526-.2832,1.1687-1.5559,1.6971-1.5465.4263.0076.2594.0668,1.7352-2.8849.3528-.5957.57-.0658.9807-.0377.7234.0643.9189-1.7566,1.3572-3.1308,1.5629-.86,1.1059-.4276,2.0557-1.8291,3.1693-2.2577,2.6325-2.0217,3.0552-1.81.1694-4.229.8452-3.4462-1.2638-3.6772-1.3063,1.14-.718.9887-2.621.49-.4741,1.0437-.1659.9185-1.1883.4908-.5714.8815-.2293.8331-1.32.1694-1.3992-1.091-1.1123-.38-1.1123-3.2624.2072.1133.5658.4526.773.396.1127-.0336,1.3261-2.2267,2.2817-2.4512.3771-.0755,1.1883.773,1.5088.5276.2827-.226-.3923-1.2588-.1133-1.49.2679-.2218,1.0184.5285,1.3016.3586.49-.3514-.492-1.8388-.1322-2.1312.3849-.3848.5642,1.6877,3.0737-1.6593.1783-13.4036.0786-13.4456,1.81-15.03,1.66,0,1.4143,1.2067,1.377,2.5266,5.8073,12.7026,4.6111,9.0722,6.0345,15.7467,1.4254,2.4437,1.1633,1.5032,1.2822,4.092,2.0885,3.2313,1.7486,3.122,1.3389,4.8844l-2.5083.2638c.05-1.5319.6559-.6034-3.715-4.4691-.0226-2.6472.2263-2.1811-.7541-2.2818a41.992,41.992,0,0,0-.6036,6.2422l2.2629.7352c-1.3533,1.8287-1.3828,1.1685.1132,2.5456-.8824,1.7426-.7938,1.1294-.5092,2.697l1.1128.9807c-.93,3.9318.4751,2.6583.8485,3.5639.151.3393-.2638,1.0939-.151,1.4521.1133.2832.7357.6225.8863.8863.151.2827.0944,1,.2831,1.2633s.8486.4715,1.1128.66c2.8665,2.0929,7.2035,8.3166,10.56,9.5045.3582.1132,1.1695-.2265,1.5276-.0944s.7353.9051,1.0751,1.0561c.3582.1506,1.1312-.1132,1.49.0189a5.2622,5.2622,0,0,1,2.338,1.8481c.63,1.3617-1.8468,2.7088-2.3951,2.621-.3959-.075-.7918-.924-1.15-1.075-.0813-.036-5.2808-.1962-7.3361-1.3573-.6975-.3964-1.5649-1.8107-2.2062-2.301-1.553-1.1406-7.6657-3.4455-9.2214-4.639-.0819,3.52-.6851,13.5045,1.8292,13.295.3016,0,.8108-.5848,1.1123-.5281.5286.0944,1.0751,1.2826,1.5465,1.5653a3.8946,3.8946,0,0,0,2.791.4337c.2661.0688.5847.5847.8485.6225.2643.0562.7546-.302,1.0184-.3209a15.1084,15.1084,0,0,1,5.5257,1.5842c.2638.151.6032.7164.9052.8108.378.1263,1.6473-.3658,1.9424-.32.3448.0493,1.4728,1.0479,1.8858,1.0184.2827-.0189.6786-.6414.9618-.6414.3015,0,.6786.6036.9806.6225.2638.0189.6787-.49.9614-.5092a3.6119,3.6119,0,0,1,1.9613.9429c.8269,1.0084-.3944,2.2982-.8863,3.2813-.2638-.151-.7353-.6036-1.0373-.6036-.2638-.0189-.7353.4148-.9991.4714-.2454.0567-.7546-.0755-1.0184-.0377-.7923.1132-2.2817,1.0561-3.0741.9618-.5842-.0755-1.4159-1.2743-1.98-1.1879-.4351.0667-.6986,1.2368-1.1313,1.3011-.5674.0844-1.3954-1-1.9424-1.1317-3.1519-.8465-8.25.957-9.5611.7358-2.0288-.3424-1.9324-3.8323-1.6593,4.8089l1.0557-.34c.986,1.713.49,1.2791,1.9235,1.8669,6.9967,2.8691,2.8451,1.2219,13.5027,3.2058,6.0661,2.2414,4.37,1.9407,7.6942,1.5842,3.1,1.3128,2.2357,1.2457,3.9221.5092,1.6381.8312,1.0091.7589,2.64.2077,3.1446,1.3118,2.5333.7483,2.8849,2.1307-.4272,1.1159-.0679.63-1.697,2.1685-1.6626-.8548-.7839-.7466-3.9981-.3393-4.8919.9969-3.3928,1.1483-6.6943-.396-1.8286,1.6147-.9278,1.5236-4.0736.0755-6.786,1.24-5.2769,1.4244-6.883-.1321-6.97.43-5.1339.6954-8.4106-.9429-1.6167.14-1.4085.2215-1.6031.0755.3289,6.2973.5991,9.7617-.2827,13.3894.0252.629-.2824.5054,1.5276.3015.5886,1.79.2213,1.3191,1.5272,2.15,1.8285-.2609,1.0623-.6083,3.3945,1.7918,1.8031-.2374,1.1957-.4479,2.4705.9429,1.7335.0708,1.1353-.1023,2.5833.8486,9.7429,2.2326,7.2875,1.4091,10.7306,3.2435,3.5384-.1189,2.2743-.34,5.4875,1.1316,1.7817-.689,1.124-.688,2.7721.1128,1.76-.5708,1.119-.6116,2.7721.3394,2.134,1.4075,1.8469.9331,1.49,2.0745-1.7858,1.7153-1.0522,1.5426-2.9042.7357-1.959.5776-.4971.3413-7.43.9991-3.3268-1.7194-2.3418-1.731-4.4319-.2827-3.3963-1.8051-1.4875-1.5387-8.75-.9051-1.634-1.6592.0416-1.1281-9.0331-1.9613-1.5931-1.4979-.916-1.1573-2.98-1.3389-.1835-.2362-.11-.9377-.1883,3.7528,1.0684,1.3773,1.137,1.2131-.0188.7352a52.476,52.476,0,0,0,.151,7.034c1.228-1.3012.6511-1.4221,2.0741.6414,2.1554-.7582,1.3927-.9616,2.9419.7546,1.8524.5461,1.1429.528,3.1114-.0378,3.3072,2.0608,2.3312,1.8092,4.3752,1.3577,1.706,1.28,1.0376,1.03,2.9231.9618,1.8048.8545,1.1164.7352,3.017.3959,1.7695.4145,8.8167,1.6581,9.0331,1.6971,3.5155,1.9332,2.256-.3431,6.11,1.0373,1.9435.545,1.2352.5665,3.093-.2261,1.8565.7019,1.1511.7216,3.0737.0562,1.9023.8834,1.1829.7063,3.13.849.5,1.2029.4938.7637.1133,1.9046-1.8233,1.71-1.0917,1.5614-3.1114.8486a5.6686,5.6686,0,0,1-3.168.5092,8.7083,8.7083,0,0,1-3.1685.7163c-2.0171.38-1.2863.5155-3.168-.7541-1.9922-.1425-1.2521-.3733-3.2435,1.1878-3.759-1.381-2.2934-1.2332-6.355-.83-3.9839.9051-2.9379,1.0525-4.79-.3959-7.9207.611-5.808.8124-9.6555-.66-2.1369.2853-1.1234.4643-4.5635-.9613.0566.6031.151,1.0557.1694,1.8287,0,.5659-.0184.8679-.0184,1.3393,1.03-.6379.6915-.8011,1.1879.7353.9009.4273.5176.4469,1.697-.1888,1.4067,1.86.9273,1.6552,2.0934,1.1317.6815,1.1584.3471.991,1.4144.8485.878.8535.1165.5832,3.8282.9807,3.5527,2.1951,2.53,1.9074,4.62,1.5276,1.8573,1.2911,1.3246,1.2329,2.395.4714.9721.8065.5576.7687,1.6027.151,2.2009,1.3813,2.32.985.7924,4.262-1.7217-1.3013-.2232-.1068-2.5838-.2643-3.2133,1.0409-2.2572,1.18-4.3-.3393l-1.0368,1.2633c-2.0349-1.4838-.8614-1.3841-5.3747-.075l-.66-1.1128c-4.594.77-3.4214.9107-5.3931-.3964-.662.1828-.6176-.2254-.5658,2.4143.0565,2.88-.7386,2.4732,1.5653,1.9236,1.38,1.72.7589,1.3007,2.6589,1.942,2.2834-.5461,1.1465-.7553,4.7333,1.32,2.2071-.4514,1.4406-.5661,3.3191.6786,2.1607-.0713,1.3914-.1924,3.3379.6225,3.1094-.4686,10.7014,1.0685,13.4833,2.5082,4.3434-.285,2.776-.4528,6.8268.9052,2.1845-.7125,1.395-.6979,3.4318.0939,2.1861-.57,1.0534-.66,5.1487.5847.4666,1.2835.4829.8-.0189,1.9236-2.1113,1.5887-1.3128,1.4946-3.47.6409a6.5225,6.5225,0,0,1-3.5078.34c-2.2085.57-1.0481.3847-5.28.7919-4.0961-1.516-2.9343-1.586-5.2615-.0189a6.6319,6.6319,0,0,1-3.3945-1.2444c-8.3638,1.1225-6.6239,1.3465-8.7877-.1888-12.3175-.3977.3293,1.95-15.8787-1.15,0,1.3744.1884,11.6526.9429,12.8047,2.7312-.19,1.8185-.5514,3.621,1.5083,2.1954.9056,1.2769.7937,3.96.6036,4.1642,2.6481,2.9274,2.2458,5.563,2.0557,11.6544,2.9866,7.634,2.1319,17.7269,3.8655,4.82,1.4713,2.9455,1.29,8.1468.9806,4.9124,1.3359,3.5539,1.2645,6.1666.5281,2.4664.77,1.5173.7587,4.13.1888,4.839,1.26,3.9791.736,4.5823,2.0934-.594,1.1161-.0475.6222-2.5649,2.1874-2.4894-.7924-1.5315-.7677-4.1675-.2454-10.0476.9055-7.3021,1.0822-12.5027-.5092-2.7525,1.5662-1.3562,1.5032-6.3176-.0378-10.083.7911-8,1.1076-10.6168-.6031-16.3858-1.2785-7.1281-.0915-15.9354-3.1491l.6413,2.6965c-.787.271-1.3613.0222,3.3379.9807,8.286,4.89,23.2481,4.0106,40.3,7.7693,5.4675-1.5563,1.2458.7357,6.9585-.6225,5.4888.9262,4.4992.4564,5.28,1.7919-.6175,1.14-.1024.6806-2.3762,2.1118-.5262.3312-.0343.3205-2.6215-.2638-.2647-.06-2.6323.3016-2.9037.3016-10.9078,1.4033-7.8724,1.4872-13.7854-.0566-3.0811,1.5877-1.5073,1.5222-7.1283-.0189-11.2145.8781-8.8868,1.1767-11.8807-.5088l-17.1232-2.395c.5224,4.5008.1087,5.74.66,10.7679l.547-.3209c.6781.3268.6208-.0076-.0567,1.5276,1.4278-.333,1.0288-.7022,1.5276,1.4332,1.31-.3809.8676-.6449,1.8858,1.4144,1.2345-.356.8436-.546,1.5088.7357,1.1628-.0244.7764-.1552,1.6593.66,4.6534.7124,2.9861.158,7.2411,2.6027,2.47-.2377,1.5986-.4231,3.7717.9806,1.2816-.6883.7811-.7259,1.9428.1506,1.2578-.546.6257-.6563,2.866.6791.2376,1.3051.4224.6633-.9617,2.8849-.238.3819-.0986.3634-.5277.0571-.806-.5757-.43-.5336-1.6786-.0571a3.8729,3.8729,0,0,0-2.3006.17c-2.2462.4961-1.425.72-3.715-.9052l-1.2256,1.226c-2.3318-1.618-.97-1.4524-6.2421-.4336-1.0939-1.5769.1347-1.17-5.62-1.17l-.396-.32c-.2454,1.6215-.6224,2.8287-.8867,4.45,1.0246-.5955.529-.8477,2.1689,1.3389,2.802-.57,1.84-.7393,4.1487.9806,5.77.0951,3.7174-.2833,8.9009,1.867,2.9442-.4273,1.9044-.5508,4.5069.7168,30.4947,2.3392,19.6,2.72,27.3635,1.697,5.567.8376,4.0572.9083,6.883-.1132,2.8061.4751,1.7566.5816,4.5823-.32C792.249,691.6169,792.4076,691.0169,788.5588,693.8866Z" transform="translate(-94.1242 -315.8759)"/>
    <path class="cls-3" d="M603.4648,640.0473c-2.3654,4.4523-1.3493,3.99-4.4095,3.99.0364-1.8586.0912-3.7171.1458-5.5939C601.9564,638.4027,604.5856,638.03,603.4648,640.0473Z" transform="translate(-94.1242 -315.8759)"/>
    <path class="cls-3" d="M608.2751,608.6348a2.9352,2.9352,0,0,1,0,.4011c-1.5489,1.2388-1.0934,3.68-2.9337,4.7008-1.8038,2.9883-3.5894,6.0127-5.43,8.9829.2733-5.0471.6377-10.1125,1.0568-15.2144a32.3246,32.3246,0,0,1,5.3022-.2552C607.3458,607.1956,607.5462,608.1793,608.2751,608.6348Z" transform="translate(-94.1242 -315.8759)"/>
    <path class="cls-3" d="M609.3865,580.4474c-2.4287,4.7886-4.8576,9.8952-7.1607,13.793q.7924-7.5161,1.8038-15.0868a5.7961,5.7961,0,0,0,3.8445-.5647C608.4533,578.2027,610.27,579.0112,609.3865,580.4474Z" transform="translate(-94.1242 -315.8759)"/>
    <path class="cls-3" d="M852.797,633.3785c0-.9382,1.5462-2.8289,2.1137-3.5712.1689,4.6541.1053,2.0491-1.5488,3.6442C853.2525,633.5609,853.0157,633.3967,852.797,633.3785Z" transform="translate(-94.1242 -315.8759)"/>
    <path class="cls-3" d="M855.4755,648.5565c-2.0224-.0182-3.8992-.6924-5.8489-.7471a.9266.9266,0,0,1-.7652-.4008c-2.66-4.4885-1.4586-2.7722-2.4962-5.5027.9292-.0545,1.7856-.2734,2.7148-.2734,2.0955-.0364,4.1543-.0182,6.25-.0364C855.3844,643.9284,855.4391,646.2424,855.4755,648.5565Z" transform="translate(-94.1242 -315.8759)"/>
  </g>
  <g>
    <path class="cls-1" d="M171.8765,655.5752h18.37v73.37h9.13a8.8211,8.8211,0,0,0,6.5449-2.75,8.9639,8.9639,0,0,0,2.6953-6.49v-64.13h18.26v73.37h9.24a8.6985,8.6985,0,0,0,6.4351-2.75,8.9654,8.9654,0,0,0,2.6948-6.49v-64.13h18.37v51.15a31.4545,31.4545,0,0,1-31.35,31.35h-23.65v-2.86a26.9445,26.9445,0,0,1-12.98,2.86h-23.76Z" transform="translate(-94.1242 -315.8759)"/>
    <path class="cls-1" d="M300.2466,673.9453h18.37a18.4035,18.4035,0,0,1,18.26,18.26v27.5a17.7506,17.7506,0,0,1-5.39,12.9248,17.4826,17.4826,0,0,1-12.87,5.4453h-18.37a18.4979,18.4979,0,0,1-18.37-18.37v-27.5a17.4791,17.4791,0,0,1,5.4453-12.87A17.7514,17.7514,0,0,1,300.2466,673.9453Zm0,18.26v27.5a8.9578,8.9578,0,0,0,2.6948,6.49,8.6938,8.6938,0,0,0,6.4351,2.75,8.8211,8.8211,0,0,0,6.5449-2.75,8.9639,8.9639,0,0,0,2.6953-6.49v-27.5a8.7875,8.7875,0,0,0-2.6953-6.4346,8.9123,8.9123,0,0,0-6.5449-2.6953,9.2024,9.2024,0,0,0-9.13,9.13Z" transform="translate(-94.1242 -315.8759)"/>
    <path class="cls-1" d="M373.6157,673.9453h18.37a18.4033,18.4033,0,0,1,18.26,18.26v27.5a17.75,17.75,0,0,1-5.39,12.9248,17.4829,17.4829,0,0,1-12.87,5.4453h-18.37a18.4979,18.4979,0,0,1-18.37-18.37v-27.5a17.4791,17.4791,0,0,1,5.4453-12.87A17.7514,17.7514,0,0,1,373.6157,673.9453Zm0,18.26v27.5a8.9578,8.9578,0,0,0,2.6948,6.49,8.6939,8.6939,0,0,0,6.4351,2.75,8.821,8.821,0,0,0,6.5449-2.75,8.9639,8.9639,0,0,0,2.6953-6.49v-27.5a8.7875,8.7875,0,0,0-2.6953-6.4346,8.9121,8.9121,0,0,0-6.5449-2.6953,9.2024,9.2024,0,0,0-9.13,9.13Z" transform="translate(-94.1242 -315.8759)"/>
    <path class="cls-1" d="M483.6147,738.0752h-18.26v-9.13q-1.1009,9.1318-9.24,9.13h-9.13a18.4981,18.4981,0,0,1-18.37-18.37v-27.5a17.4792,17.4792,0,0,1,5.4454-12.87,17.7512,17.7512,0,0,1,12.9248-5.39h18.37v-18.37h18.26Zm-18.26-55h-9.24a9.2024,9.2024,0,0,0-9.13,9.13v27.5a8.9574,8.9574,0,0,0,2.6948,6.49,8.6937,8.6937,0,0,0,6.435,2.75,8.8212,8.8212,0,0,0,6.545-2.75,8.9639,8.9639,0,0,0,2.6953-6.49Z" transform="translate(-94.1242 -315.8759)"/>
    <path class="cls-1" d="M547.854,692.2051h-9.13q-1.2121-9.129-8.69-9.13-4.842,0-7.26,1.9248a6.8066,6.8066,0,0,0-2.42,5.665q0,3.9611,13.31,11.11,10.89,5.8315,12.54,9.68a20.73,20.73,0,0,1,1.65,8.25,18.4024,18.4024,0,0,1-18.37,18.37h-9.13q-18.372,0-18.37-18.37h9.24q1.098,9.24,8.58,9.24,4.95,0,7.37-1.9248a6.9331,6.9331,0,0,0,2.42-5.7754q0-3.85-13.31-11-10.89-5.8285-12.5952-9.68a20.1253,20.1253,0,0,1-1.7051-8.25,18.4979,18.4979,0,0,1,18.37-18.37h9.13Q546.7522,673.9453,547.854,692.2051Z" transform="translate(-94.1242 -315.8759)"/>
  </g>
  <g>
    <path class="cls-4" d="M135.1919,835.2236v-82.5h18.37v73.37h27.5v9.13Z" transform="translate(-94.1242 -315.8759)"/>
    <path class="cls-4" d="M217.6914,771.0938h18.37a18.4033,18.4033,0,0,1,18.26,18.26v27.5a17.7506,17.7506,0,0,1-5.39,12.9248,17.4825,17.4825,0,0,1-12.87,5.4453h-18.37a18.4977,18.4977,0,0,1-18.37-18.37v-27.5a17.4791,17.4791,0,0,1,5.4453-12.87A17.7513,17.7513,0,0,1,217.6914,771.0938Zm0,18.26v27.5a8.958,8.958,0,0,0,2.6948,6.49,8.6941,8.6941,0,0,0,6.4351,2.75,8.8213,8.8213,0,0,0,6.5449-2.75,8.9641,8.9641,0,0,0,2.6953-6.49v-27.5a8.7875,8.7875,0,0,0-2.6953-6.4346,8.9125,8.9125,0,0,0-6.5449-2.6953,9.2024,9.2024,0,0,0-9.13,9.13Z" transform="translate(-94.1242 -315.8759)"/>
    <path class="cls-4" d="M327.69,771.0938v73.26a17.7537,17.7537,0,0,1-5.39,12.9248,17.4828,17.4828,0,0,1-12.87,5.4453h-18.37q-16.17,0-18.37-18.37h9.24q.66,9.24,9.13,9.24h9.13a9.2028,9.2028,0,0,0,9.24-9.24v-18.26q-1.1009,9.1317-9.24,9.13h-9.13a18.4977,18.4977,0,0,1-18.37-18.37v-27.5a17.48,17.48,0,0,1,5.4453-12.87,17.7514,17.7514,0,0,1,12.9248-5.39Zm-18.26,9.13h-9.24a9.2026,9.2026,0,0,0-9.13,9.13v27.5a8.9577,8.9577,0,0,0,2.6949,6.49,8.6941,8.6941,0,0,0,6.435,2.75,8.8217,8.8217,0,0,0,6.545-2.75,8.9645,8.9645,0,0,0,2.6953-6.49Z" transform="translate(-94.1242 -315.8759)"/>
    <path class="cls-4" d="M401.06,771.0938v73.26a17.7538,17.7538,0,0,1-5.39,12.9248,17.4826,17.4826,0,0,1-12.87,5.4453H364.43q-16.17,0-18.37-18.37h9.24q.66,9.24,9.13,9.24h9.13a9.2028,9.2028,0,0,0,9.24-9.24v-18.26q-1.1009,9.1317-9.24,9.13h-9.13a18.4977,18.4977,0,0,1-18.37-18.37v-27.5a17.4791,17.4791,0,0,1,5.4453-12.87,17.7513,17.7513,0,0,1,12.9248-5.39Zm-18.26,9.13h-9.24a9.2024,9.2024,0,0,0-9.13,9.13v27.5a8.958,8.958,0,0,0,2.6948,6.49,8.6941,8.6941,0,0,0,6.4351,2.75,8.8215,8.8215,0,0,0,6.5449-2.75,8.9641,8.9641,0,0,0,2.6953-6.49Z" transform="translate(-94.1242 -315.8759)"/>
    <path class="cls-4" d="M419.4287,761.8535v-9.13h18.37v9.13Zm0,73.37v-64.13h18.37v64.13Z" transform="translate(-94.1242 -315.8759)"/>
    <path class="cls-4" d="M456.0576,835.2236v-64.13h18.37v9.13q.5493-4.62,2.86-6.875a8.5968,8.5968,0,0,1,6.27-2.2548h9.24a18.4031,18.4031,0,0,1,18.26,18.26v45.87h-18.26v-45.87a8.7876,8.7876,0,0,0-2.6954-6.4346,8.9125,8.9125,0,0,0-6.5449-2.6953,9.2026,9.2026,0,0,0-9.13,9.13v45.87Z" transform="translate(-94.1242 -315.8759)"/>
    <path class="cls-4" d="M584.4268,771.0938v73.26a17.7538,17.7538,0,0,1-5.39,12.9248,17.4826,17.4826,0,0,1-12.87,5.4453h-18.37q-16.17,0-18.37-18.37h9.24q.66,9.24,9.13,9.24h9.13a9.2028,9.2028,0,0,0,9.24-9.24v-18.26q-1.1009,9.1317-9.24,9.13h-9.13a18.4977,18.4977,0,0,1-18.37-18.37v-27.5a17.4791,17.4791,0,0,1,5.4453-12.87,17.7513,17.7513,0,0,1,12.9248-5.39Zm-18.26,9.13h-9.24a9.2024,9.2024,0,0,0-9.13,9.13v27.5a8.9576,8.9576,0,0,0,2.6948,6.49,8.6941,8.6941,0,0,0,6.4351,2.75,8.8215,8.8215,0,0,0,6.5449-2.75,8.9641,8.9641,0,0,0,2.6953-6.49Z" transform="translate(-94.1242 -315.8759)"/>
  </g>
  <g>
    <path class="cls-1" d="M884.7358,705.375h-9.13q-1.2121-9.24-8.69-9.24-4.842,0-7.26,2.31-2.4207,2.31-2.42,6.93a9.8489,9.8489,0,0,0,2.64,6.49l19.47,21.7793q5.3885,6.0513,5.39,12.9805v4.51a18.4986,18.4986,0,0,1-18.37,18.37h-9.13q-9.1318,0-13.75-4.5654-4.62-4.563-4.62-13.8047h9.24v1.54a6.5236,6.5236,0,0,0,2.86,5.72,10.7783,10.7783,0,0,0,6.27,1.9805q4.8391,0,6.9849-2.3652t2.145-6.875a9.5785,9.5785,0,0,0-2.64-6.49l-19.47-21.7793a18.9393,18.9393,0,0,1-5.39-12.98v-4.51a18.4988,18.4988,0,0,1,18.37-18.37h9.13Q883.634,687.0049,884.7358,705.375Z" transform="translate(-94.1242 -315.8759)"/>
    <path class="cls-1" d="M939.7354,732.875v-9.24A8.7874,8.7874,0,0,0,937.04,717.2a8.9121,8.9121,0,0,0-6.5449-2.6953h-9.13q-8.1415,0-9.13,9.13h-9.24q2.1995-18.2579,18.37-18.26h18.37a18.4031,18.4031,0,0,1,18.26,18.26v45.87h-18.26v-9.13q-1.1009,9.1318-9.24,9.13h-9.13a18.4979,18.4979,0,0,1-18.37-18.37,17.48,17.48,0,0,1,5.4453-12.87,17.7517,17.7517,0,0,1,12.9248-5.39Zm0,9.13h-9.24a9.2026,9.2026,0,0,0-9.13,9.13,8.9575,8.9575,0,0,0,2.6949,6.49,8.6935,8.6935,0,0,0,6.435,2.75,8.821,8.821,0,0,0,6.5449-2.75,8.964,8.964,0,0,0,2.6954-6.49Z" transform="translate(-94.1242 -315.8759)"/>
    <path class="cls-1" d="M976.3643,769.5049v-82.5h18.37v82.5Z" transform="translate(-94.1242 -315.8759)"/>
    <path class="cls-1" d="M1067.9932,742.0049h-36.63v9.13a8.9578,8.9578,0,0,0,2.6948,6.49,8.6938,8.6938,0,0,0,6.4351,2.75h9.24q9.1289,0,9.13-9.24h9.13q-2.09,18.372-18.26,18.37h-18.37a18.4979,18.4979,0,0,1-18.37-18.37v-27.5a17.4794,17.4794,0,0,1,5.4453-12.87,17.7517,17.7517,0,0,1,12.9248-5.39h18.37a18.4033,18.4033,0,0,1,18.26,18.26Zm-36.63-9.13h18.37v-9.24a8.7873,8.7873,0,0,0-2.6953-6.4346,8.9123,8.9123,0,0,0-6.5449-2.6953,9.2024,9.2024,0,0,0-9.13,9.13Z" transform="translate(-94.1242 -315.8759)"/>
    <path class="cls-1" d="M1132.2324,723.6348h-9.13q-1.2121-9.129-8.69-9.13-4.842,0-7.26,1.9248a6.8065,6.8065,0,0,0-2.42,5.665q0,3.9611,13.31,11.11,10.89,5.8315,12.54,9.68a20.73,20.73,0,0,1,1.65,8.25,18.4024,18.4024,0,0,1-18.37,18.37h-9.13q-18.372,0-18.37-18.37h9.24q1.098,9.24,8.58,9.24,4.95,0,7.37-1.9248a6.9329,6.9329,0,0,0,2.42-5.7754q0-3.85-13.31-11-10.89-5.8286-12.5952-9.68a20.1253,20.1253,0,0,1-1.7051-8.25,18.4977,18.4977,0,0,1,18.37-18.37h9.13Q1131.1306,705.375,1132.2324,723.6348Z" transform="translate(-94.1242 -315.8759)"/>
  </g>
</svg>
