<svg id="Layer_1" data-name="Layer 1" xmlns="http://www.w3.org/2000/svg" width="75.8133" height="30.7226" viewBox="0 0 75.8133 30.7226">
  <defs>
    <style>
      .cls-1 {
        fill: #3a3a3a;
      }
    </style>
  </defs>
  <title>mulcher</title>
  <path class="cls-1" d="M43.0492,97.1353a5.7,5.7,0,0,0,5.7,5.6992H76.66a5.6992,5.6992,0,1,0,0-11.3984H48.7489A5.7,5.7,0,0,0,43.0492,97.1353Zm1.8135,0a3.8867,3.8867,0,0,1,3.8862-3.8867H76.66a3.8867,3.8867,0,0,1,0,7.7734H48.7489A3.8867,3.8867,0,0,1,44.8627,97.1353Zm3.8862-2.85a2.85,2.85,0,1,1-2.85,2.85A2.8528,2.8528,0,0,1,48.7489,94.2857Zm27.9107,0a2.85,2.85,0,1,1-2.85,2.85A2.8528,2.8528,0,0,1,76.66,94.2857Zm.8379-19.5528c.2768-1.7656.0908-2.621-1.7954-2.621H62.7543c-2.145,0-2.8994.9433-2.8994,2.8554V89.6216a.519.519,0,0,0,.5181.52H74.3393a.6373.6373,0,0,0,.6059-.5118L77.49,74.78Zm-2.0147,1.68-.8965,5.2334a1.5906,1.5906,0,0,1-1.5141,1.2764H66.1366a1.2955,1.2955,0,0,1-1.2954-1.2949V76.43a1.2955,1.2955,0,0,1,1.2954-1.2949h8.27A1.055,1.055,0,0,1,75.4828,76.4126Zm1.3789,9.3526a2.3309,2.3309,0,0,0,2.3316,2.331h4.4243c.624.9668,1.1948,4.2832,1.5806,6.5274a2.3324,2.3324,0,0,0,2.2954,1.9355,2.2978,2.2978,0,0,0,.3979-.0332,2.3313,2.3313,0,0,0,1.9024-2.6933A44.4656,44.4656,0,0,0,88.4125,87.5c-.9228-2.6982-2.42-4.0664-4.45-4.0664h-4.769A2.3318,2.3318,0,0,0,76.8617,85.7652Zm9.39,8.4629a1.2446,1.2446,0,1,1,1.2446,1.2451A1.2453,1.2453,0,0,1,86.2514,94.2281Zm-8.3028-8.4629a1.2447,1.2447,0,1,1,1.2442,1.2441A1.2442,1.2442,0,0,1,77.9486,85.7652Zm16,10.1963a1.3508,1.3508,0,0,1,.7221,2.5761,4.6882,4.6882,0,0,0,.6045.7637,1.35,1.35,0,0,1,2.3306,1.3086,4.535,4.535,0,0,0,.9673.1191,1.35,1.35,0,0,1,2.5752-.7226,4.6713,4.6713,0,0,0,.7646-.6035,1.35,1.35,0,0,1,1.31-2.3311,4.6875,4.6875,0,0,0,.1181-.9668,1.35,1.35,0,0,1-.7226-2.5752,4.5834,4.5834,0,0,0-.603-.7636,1.3508,1.3508,0,0,1-2.3316-1.3106,4.6563,4.6563,0,0,0-.9668-.1182,1.3506,1.3506,0,0,1-2.5757.7217,4.7,4.7,0,0,0-.7641.6035,1.3508,1.3508,0,0,1-1.31,2.3321A4.6943,4.6943,0,0,0,93.9482,95.9615Zm3.0586-.8477a1.878,1.878,0,1,1,.7177,2.5566A1.8779,1.8779,0,0,1,97.0068,95.1138ZM35.373,78.38a34.3152,34.3152,0,0,1,9.0166-1.126H58.3007a.5184.5184,0,0,1,.5181.5176v11.85a.5188.5188,0,0,1-.5181.52H48.7489A7.0041,7.0041,0,0,0,41.7968,96.36a.85.85,0,0,1-.82.7754H32.7392c-1.6841,0-1.5972-.5342-1.5972-13.7461C31.142,79.9038,32.2211,79.1607,35.373,78.38ZM92.84,102.1421l-2.08-2.7158a4.8116,4.8116,0,0,1-.6006-4.375l1.8442-4.6133a4.1721,4.1721,0,0,1,3.6905-2.498h9.8637a1.3965,1.3965,0,1,1,0,2.7929H95.6938a1.3986,1.3986,0,0,0-1.0967.7422l-1.8452,4.6133a2.05,2.05,0,0,0,.2256,1.64l2.0795,2.7158a1.3964,1.3964,0,1,1-2.2172,1.6982Z" transform="translate(-31.1412 -72.1119)"/>
</svg>
