<svg id="Layer_1" data-name="Layer 1" xmlns="http://www.w3.org/2000/svg" width="84.719" height="39.0646" viewBox="0 0 84.719 39.0646">
  <defs>
    <style>
      .cls-1 {
        fill: #3a3a3a;
      }
    </style>
  </defs>
  <title>skidder</title>
  <path class="cls-1" d="M71.7287,75.8921,74.2863,90.814a.64.64,0,0,0,.6079.5136H87.6423a.5209.5209,0,0,0,.52-.5215L89.45,76.08c0-1.9214-.7578-2.8692-2.9131-2.8692H73.5256C71.63,73.21,71.4426,74.07,71.7287,75.8921Zm3.22-.8057h9.5474a1.4959,1.4959,0,0,1,1.4951,1.4956l-.563,6a1.4956,1.4956,0,0,1-1.4956,1.4951H76.4894a1.8359,1.8359,0,0,1-1.748-1.4736l-1.0352-6.0425A1.2179,1.2179,0,0,1,74.9489,75.0864ZM94.28,97.5308a7.78,7.78,0,1,0,7.78-7.78A7.7795,7.7795,0,0,0,94.28,97.5308Zm3.9131,0a3.8667,3.8667,0,1,1,3.8672,3.8652A3.8669,3.8669,0,0,1,98.1935,97.5308Zm-39.57,0a7.78,7.78,0,1,0,7.78-7.78A7.7787,7.7787,0,0,0,58.6232,97.5308Zm3.9131,0a3.8662,3.8662,0,1,1,3.8667,3.8652A3.8662,3.8662,0,0,1,62.5363,97.5308Zm24.0654-5.16h6.69c.7187,0,.96.4766.6387,1.1191a9.0284,9.0284,0,0,0-.9512,4.0411c0,.25.0107.498.0312.7421.0332.41-.4912.7383-1.21.7383H86.6017A1.3012,1.3012,0,0,1,85.3005,97.71V93.6733A1.3021,1.3021,0,0,1,86.6017,92.3706Zm-3.6469,0a1.3018,1.3018,0,0,1,1.3012,1.3027V97.71a1.3,1.3,0,0,1-1.3007,1.3017H76.5485c-.6553,0-1.1294-.3281-1.0952-.7383.02-.2441.0312-.4921.0312-.7421a9.023,9.023,0,0,0-.9511-4.0411c-.3213-.6425-.08-1.1191.6386-1.1191ZM47.53,95.9907a4.3857,4.3857,0,0,0,.9941-2.0117l.7144-4.6611a.2269.2269,0,0,1,.3681-.1631l1.02.5888a1.8792,1.8792,0,0,1,.8755,1.7618l-.38,2.48a1.302,1.302,0,0,0,1.0894,1.4834l3.9131.6c.71.1093,1.2446.4785,1.2192.8291-.0146.2089-.0224.4209-.0224.6338,0,.1425.0034.2851.0107.4267.0117.2354-.5459.3369-1.2559.2275L51.82,97.5337a2.7431,2.7431,0,0,0-1.8086.3838,1.546,1.546,0,0,1-.7314.2724l-3.8379.3418c-.2017.0186-.2549-.083-.1192-.2256Zm5.2558-3.0654c.26-2.61.6553-6.2285.8179-7.2525.208-1.3076.4883-1.6718,1.1719-1.6718H70.4963a1.6041,1.6041,0,0,1,1.5254,1.2822c.2377,1.3638.6137,3.5093.8593,4.8726.1265.707-.1469.8378-.7.38a9.062,9.062,0,0,0-14.04,3.2364,1.73,1.73,0,0,1-1.74,1.0224l-2.4542-.3769A1.3906,1.3906,0,0,1,52.7858,92.9253Zm3.8736-10.0186a1.0416,1.0416,0,0,1-.4844-1.9638l12.583-6.5948a1.0414,1.0414,0,0,1,.9668,1.8448L57.1423,82.7876A1.0349,1.0349,0,0,1,56.6594,82.9067Zm44.665,5.5772c.2519-.0215.5059-.0352.7617-.0352a9.0238,9.0238,0,0,1,4.7022,1.3145L105.175,79.2554l12.2744-6.9375.5488.8413a2.6031,2.6031,0,1,0,4.3613-2.8433l-1.8828-2.8887a2.6036,2.6036,0,0,0-3.4619-.8447L101.049,75.6069a2.6048,2.6048,0,0,0-1.293,2.6621ZM120.18,70.3188a1.4192,1.4192,0,1,1-1.42,1.4195A1.4188,1.4188,0,0,1,120.18,70.3188Zm9.5459,9.107c-.4268-1.5152-1.5362-3.6861-3.0342-4.4351a2.3335,2.3335,0,0,0-3.19,2.9077c.3.7749,1.044,1.2261,1.6172,1.7813a5.299,5.299,0,0,1,1.4883,2.2339c.9287,3.4145-3.3359,6.2129-5.7461,7.7978a.8036.8036,0,0,0,.6631,1.45,8.05,8.05,0,0,0,2.5918-1.1914,11.5754,11.5754,0,0,0,4.793-4.7031A8.2018,8.2018,0,0,0,129.7258,79.4258Zm-3.9795-.8623a1.419,1.419,0,1,1,1.4189-1.419A1.4188,1.4188,0,0,1,125.7463,78.5635Zm-6.2481,11.1479c-2.41-1.5849-6.6758-4.3833-5.7461-7.7978A5.3083,5.3083,0,0,1,115.24,79.68c.5732-.5552,1.3184-1.0064,1.6172-1.7813a2.3333,2.3333,0,0,0-3.19-2.9077c-1.4971.749-2.6075,2.92-3.0342,4.4351a8.206,8.206,0,0,0,.8164,5.8413,11.5946,11.5946,0,0,0,4.7939,4.7031,8.0648,8.0648,0,0,0,2.5909,1.1914A.8038.8038,0,0,0,119.4982,89.7114Zm-6.3047-12.5669a1.419,1.419,0,1,1,1.418,1.419A1.4187,1.4187,0,0,1,113.1935,77.1445Zm9.041-1.2124a3.3418,3.3418,0,0,0-.16,1.2715c.0488.7105-.2617,1.2422-.98,1.2422h-1.8291c-.72,0-1.0293-.5317-.9795-1.2422a3.3577,3.3577,0,0,0-.16-1.2715,3.2382,3.2382,0,0,0-.1377-.35c-.0869-.1885.4092-.3335,1.1279-.3335h2.1289c.7188,0,1.2139.145,1.127.3335A3.2134,3.2134,0,0,0,122.2345,75.9321Z" transform="translate(-45.2473 -66.2454)"/>
</svg>
