<svg id="Layer_1" data-name="Layer 1" xmlns="http://www.w3.org/2000/svg" width="102.6156" height="72.6697" viewBox="0 0 102.6156 72.6697">
  <defs>
    <style>
      .cls-1 {
        fill: #3a3a3a;
      }

      .cls-2 {
        fill: none;
        stroke: #3a3a3a;
        stroke-miterlimit: 10;
        stroke-width: 4px;
      }
    </style>
  </defs>
  <title>wood-chipper</title>
  <path class="cls-1" d="M104.3722,34.951l-10.7681.8828L94.52,32.04h0a15.3888,15.3888,0,0,0-10.554-4.169c-8.497,0-15.39,6.85-15.472,16.0951h0l.302,9H72v4h5V73.5069l16.3794-.123.06,3.5825H72.665L82.38,94.049H78.5127L68.2072,76.9664H31v-5l-1.9493-3.05L26,64.4766,4.8389,63.1449h0l-3.0823.8831L11.9884,43.4728l.6958,2.9383h0l20.85,14.109L40,64.1121V55.6729h3v8.2935l1,.01v-7.01H60v-4h4v-9h-.0022c0-.0134.0022-.0249.0022-.0383v-.9617H64a19.9325,19.9325,0,0,1,31.204-16.0921l.664.5849Z" transform="translate(-1.7566 -23.3793)"/>
  <circle class="cls-2" cx="51.3078" cy="62.6965" r="7.9731"/>
  <rect class="cls-1" x="85.314" y="48.98" width="6.2819" height="1.3289"/>
  <rect class="cls-1" x="88.1194" y="47.9531" width="3.4765" height="1.6913" rx="0.8456"/>
</svg>
