<svg id="Layer_1" data-name="Layer 1" xmlns="http://www.w3.org/2000/svg" xmlns:xlink="http://www.w3.org/1999/xlink" width="89.5483" height="103.4539" viewBox="0 0 89.5483 103.4539">
  <defs>
    <style>
      .cls-1 {
        fill: #3a3a3a;
      }

      .cls-2, .cls-6 {
        fill: #404040;
      }

      .cls-3, .cls-4, .cls-5, .cls-8 {
        fill: none;
      }

      .cls-3, .cls-4, .cls-5, .cls-6 {
        stroke: #3a3a3a;
        stroke-miterlimit: 10;
      }

      .cls-4 {
        stroke-width: 0.9873px;
      }

      .cls-5 {
        stroke-width: 0.9487px;
      }

      .cls-6 {
        stroke-width: 0.15px;
      }

      .cls-7 {
        mask: url(#mask);
      }
    </style>
    <mask id="mask" x="30.4697" y="-8299.9693" width="8" height="32766" maskUnits="userSpaceOnUse"/>
  </defs>
  <title>yarder</title>
  <path class="cls-1" d="M63.5963,87.8085H49.1885a.7912.7912,0,0,1-.791-.7915V72.1381A3.1929,3.1929,0,0,1,51.59,68.9447h10.936a1.5963,1.5963,0,0,1,1.5967,1.5962v16.74A.5272.5272,0,0,1,63.5963,87.8085Z" transform="translate(-24.5303 -7.9693)"/>
  <path class="cls-1" d="M74.6011,90.3007V89.1049c0-.2915-10.7138-.2422-11.0048-.2422H49.1885a1.848,1.848,0,0,1-1.8457-1.8457V82.121a.527.527,0,0,0-.5273-.5274H28.6026c-1.5664,0-2.8413.9053-3.4556,4.81-.0127.0767-.0249.1548-.0371.2344-.02.13.1992.2348.4908.2348h8.0937a4.6618,4.6618,0,0,1,4.3711,2.4024c.5264.7788.7266,1.0254,1.4258,1.0254h24.105C63.8873,90.3007,74.6011,90.5922,74.6011,90.3007Z" transform="translate(-24.5303 -7.9693)"/>
  <path class="cls-1" d="M26.8746,96.2094H63.5963c.291,0,11.0048.2925,11.0048.0015v-4.775c0-.2915-10.7138-.0805-11.0048-.0805H39.4913c-2.8345,0-1.7725-3.4278-5.7969-3.4278H25.44a.6246.6246,0,0,0-.602.5215C24.3345,92.0819,24.1212,96.2094,26.8746,96.2094Z" transform="translate(-24.5303 -7.9693)"/>
  <path class="cls-1" d="M62.1544,104.59a6.8333,6.8333,0,1,0,6.833-6.8335A6.8328,6.8328,0,0,0,62.1544,104.59Z" transform="translate(-24.5303 -7.9693)"/>
  <path class="cls-1" d="M26.0025,104.59a6.833,6.833,0,1,0,6.833-6.8335A6.8328,6.8328,0,0,0,26.0025,104.59Z" transform="translate(-24.5303 -7.9693)"/>
  <path class="cls-1" d="M37.5975,97.1776H64.4543c1.9873,0,2.0781.3965.5626,1.2139-2.71,1.4638-4.4341,3.6445-4.4341,6.0771,0,.1245.0053.2485.0152.3721.0155.2046-.8914.3711-2.0425.3711H43.4933c-1.1505,0-2.0572-.1665-2.0411-.3711.0092-.1236.0146-.2476.0146-.3721,0-2.4321-1.7229-4.6128-4.4334-6.0771C35.5187,97.5741,35.61,97.1776,37.5975,97.1776Z" transform="translate(-24.5303 -7.9693)"/>
  <path class="cls-1" d="M65.2667,78.8148l19.99-29.4023C86.1793,48.0546,110.4982,8.9093,109.14,7.986S81.2633,44.7123,80.34,46.07L64.77,68.9725a2.7223,2.7223,0,0,1,.4971,1.5684Z" transform="translate(-24.5303 -7.9693)"/>
  <path class="cls-1" d="M81.5518,47.7411a1.2464,1.2464,0,1,1,1.2461,1.2461A1.2465,1.2465,0,0,1,81.5518,47.7411Z" transform="translate(-24.5303 -7.9693)"/>
  <path class="cls-2" d="M56.2414,19.29c-.0771-.0161,1.6976-.3313,1.6976-.3313C58.18,18.9531,108.3951,8.3837,108.4732,8.39V8.2085L56.2386,19.0105" transform="translate(-24.5303 -7.9693)"/>
  <polygon class="cls-3" points="31.73 15.001 38.371 62.445 38.371 62.445 33.376 62.439 25.164 62.481 25.089 63.231 31.73 15.001"/>
  <line class="cls-4" x1="25.9014" y1="56.6439" x2="37.4744" y2="56.6439"/>
  <line class="cls-5" x1="27.23" y1="45.7158" x2="36.23" y2="45.7158"/>
  <line class="cls-3" x1="29.1884" y1="34.7877" x2="34.4997" y2="34.7877"/>
  <line class="cls-3" x1="30.07" y1="27.0563" x2="33.4175" y2="27.0563"/>
  <path class="cls-3" d="M58.3429,21.2932" transform="translate(-24.5303 -7.9693)"/>
  <path class="cls-3" d="M54.5313,21.2932" transform="translate(-24.5303 -7.9693)"/>
  <line class="cls-6" x1="84.7623" y1="0.385" x2="88.8074" y2="11.4809"/>
  <circle class="cls-2" cx="88.7099" cy="11.0725" r="0.8385"/>
  <g class="cls-7">
    <path class="cls-8" d="M59,83h0a4.0118,4.0118,0,0,1-4-4V75a4.0118,4.0118,0,0,1,4-4h0a4.0118,4.0118,0,0,1,4,4v4A4.0118,4.0118,0,0,1,59,83Z" transform="translate(-24.5303 -7.9693)"/>
  </g>
</svg>
