<svg id="Layer_1" data-name="Layer 1" xmlns="http://www.w3.org/2000/svg" width="1145.6068" height="610.9985" viewBox="0 0 1145.6068 610.9985">
  <defs>
    <style>
      .cls-1 {
        fill: #3a3a3a;
      }

      .cls-2 {
        fill: #fff;
      }

      .cls-3 {
        fill: #051b2d;
      }

      .cls-4 {
        fill: #00a651;
      }
    </style>
  </defs>
  <title>favicon</title>
  <g>
    <path class="cls-1" d="M342.2193,376.5077c1.628-33.1629,13.1283-95.65,53.2784-116.4735,20.5888-10.6784,50.9181-12.6768,74.9878-5.8581,23.5069,6.6593,36.9522,21.5667,45.4151,36.4715,29.0657,51.19,25.8762,114.5175,15.0052,168.5761C526.2593,481.719,516.69,503.006,487.19,517.1286c-15.0531,7.2063-29.7934,8.899-48.0691,9.0511-17.8162.148-32.6767-2.7029-46.9266-9.7444-29.4877-14.571-38.1522-36.47-42.6794-59.1483C344.1725,430.5228,340.8936,403.5054,342.2193,376.5077Z" transform="translate(0 0)"/>
    <path class="cls-1" d="M33.316,461.5384c3.9424,6.5587,30.8689,3.0612,55.4821,3.0612,1.2755-3.1886,2.3869-6.5778,3.7535-9.4022,1.84-3.8261,4.5552-7.5979,5.7031-11.6793a2.7387,2.7387,0,0,0-3.3162-3.3163c-2.3323.419-4.5369,1.0752-6.7963,1.476,3.9721-6.0312,7.926-12.1168,11.6612-18.2572,1.1844-1.9133-.8017-4.6829-3.0428-3.9355-3.8082,1.2571-7.4706,2.6966-11.1329,4.2453,6.5271-7.45,15.4533-17.1577,18.8584-25.6364.347-.8637.1641-1.5125-.6376-1.549a19.14,19.14,0,0,0-5.5938.11,10.5847,10.5847,0,0,1-5.5755.2731c.3279-.5647.51-1.4393,1.0386-1.7127,1.9859-1.0569,2.4962-3.2615,3.9356-4.7555a8.2452,8.2452,0,0,0,1.731-2.8971c1.33-3.4257,3.8263-6.0312,5.1017-9.4019.606-1.1108,1.375.3662,10.0214-14.2485,2.2786-4.0357,2.1542-2.4314,4.1-6.6509,1.0549,1.1877,2.498,4.9907,3.9356,6.4867,3.4173,3.56,11.811,19.4262,12.4083,19.8242,2.551,2.66,4.1909,5.94,5.9765,9.0921.6521,1.4417,1.5669,1.5529,1.5669,3.0247a16.5811,16.5811,0,0,0-6.96,0c-8.9464,2.1977-9.4209.4226-2.8788,9.3655,3.8263,5.1016,8.1446,9.8392,11.1875,15.36.9247,1.7045,1.6438.8017,2.2412,3.59-1.3573,0-1.5008-.758-4.9925-.5832-1.5488.0547-2.8789-.9475-4.4458-.6923-1.81.5087-2.4175-2.46-4.3-.6559-.2915.2368-.9657,0-1.02.82-.0546.6926.1458,1.33.7289,1.5125a7.0824,7.0824,0,0,1,2.3869,1.7856c3.2682,2.8173,3.5549,3.9845,12.791,17.1637,1.8221.4373,2.2776,2.0775,3.3708,3.2981a32.2393,32.2393,0,0,0,3.4073,2.8972c2.5179,1.6764-11.221.0242-13.9571,1.0929.2187.3464.31.6927.5284,1.057.1637.2237,3.3229,4.5,3.9356,4.5,15.7163,5.9245,15.8057,6.6282,17.4191,3.3711.3074-.6522,9.6419-12.3106,17.0364-23.5778.5466-.8018.2914-1.9313-.6924-1.913-1.5124.018-3.0611-.4738-4.5187.2914-1.214.6075-2.1713-.115-4.6828.8745-1.7857.6742-1.84.6014-3.3526-.2549-.4738-.2553-1.13-.401-1.1843-.6744-.1914-.8413,4.8062-6.7116,5.0107-6.9419,5.01-5.42,9.8017-15.4464,10.6955-16.818.6012-1.0567.0729-.9655-.583-.8745-1.4759.2189-2.9518-.3461-4.5006.5285-.9452.519-2.5832.1883-6.9967-.2187,0-1.3665,1.33-1.6945,1.95-2.6055,1.1661-1.64,2.4962-3.0975,3.5894-4.81,2.8191-4.7131,1.19-4.1639,10.55-17.4009,2.5326-3.6441,5.43-7.0149,7.3064-11.06a21.8008,21.8008,0,0,1,1.6582-2.7694c.3462-.6376.8017-.5284,1.1661.2187.9474,1.95,2.15,3.6988,3.225,5.5756.8382,1.4576,1.4213,3.0063,3.0976,3.6442.7618.2027,5.9575,13.0488,12.08,19.5143a5.6114,5.6114,0,0,1,1.239,1.8768c.6377,1.7855,2.4962,3.0062,2.2776,5.2656,0,.2733.51.5649.7835.8563a1.72,1.72,0,0,0,.4009.4738,2.7533,2.7533,0,0,1-.8017.2733,2.8812,2.8812,0,0,1-1.4941-.1638c-1.747-1.5631-3.1051.1821-7.07.1821-1.1661-.0182-2.2047.984-3.48.62-1.3649-.39-.8174,1.9811-.4555,2.5692,4.4488,7.3171,17.651,23.8547,17.0729,24.434-.986.616-.2976.6384-4.1726-.1641-.9839-.1457-2.0043.328-2.9335-.4738-.4556-.3461-1.3666-.1819-2.15-.0727-.5466.0182-1.0568-1.3119-1.6216-.0547-1.0569-.51-2.3141-.5648-3.2615-1.2572-.164-.0729-.5648.1093-.82.2734a1.9173,1.9173,0,0,0-.0547.583c.4738.6376.8747,1.33,1.33,1.9677.6012.8746,2.241.984,1.9314,2.6057,0,.1092.31.2551.4007.419,6.2778,4.1025,8.1654,13.12,14.9411,17.5284,1.4667.9966,3.6341,4.2582,3.8262,4.4822-.8494.4251-5.4952.267-6.4865.1641-1.6763-.1641-3.1157.71-4.7556.71-1.3641,0-1.4241,2.3141-.747,2.3141,2.5646-1.2147,6.705.3016,10.987-1.1112a1.701,1.701,0,0,1,2.0408.6374c.7142,1.2339,2.6119.2872,6.8875.6927a2.4339,2.4339,0,0,0,2.3322-1.2027,115.6487,115.6487,0,0,0,7.07-10.2035,2.2246,2.2246,0,0,0,.1641-1.44,2.6928,2.6928,0,0,0-2.2594-.1642c-.656.8018-1.8038.0365-2.2593.51-.82.8563-1.3848-.1275-2.0226-.1093-13.4863.2387-10.4216-.06-8.1446-1.822,10.6593-8.2483,11.3743-10.14,14.74-15.8522,1.5123-2.5507,3.3709-4.81,4.3729-7.5979,2.059-1.1479,2.35-4.0449,4.7922-4.81,4.8216-6.7881,3.9558-5.8822,3.4072-6.7053a.4619.4619,0,0,0-.3826,0c-2.8607.82-5.9219.4008-8.7642,1.3848-1.4592.5307-2.518.5214-7.6345,1.1479-.7652.0182-.941-.2292-.3643-.8563,6.4076-6.968,3.94-12.0194,15.7062-20.7353,2.8425-2.15,3.2068-5.63,4.2271-9.0374,0-.1093.2188-.1642.2188-.2551,0-3.2136-.1014-1.6221-1.4941-2.1137-1.7857-.492-3.8264-.2369-5.612-.82a19.4145,19.4145,0,0,0-6.3044-.5285c-1.2754.0182-2.642-.5832-3.8263.5832a7.9169,7.9169,0,0,1-1.2208-.6927,1.3,1.3,0,0,1,.4555-.82c1.4654-.8888.384-1.995,5.1018-8.91,7.559-11.55,6.7594-9.4684,9.8391-15.2873,9.98-18.6013,7.806-14.5987,9.3291-16.3986a3.5806,3.5806,0,0,0,1.33-2.2776c.0546-.6194.9839-1.2571,1.5487-1.7856a7.23,7.23,0,0,0,2.223-3.8081,16.6968,16.6968,0,0,1,1.7491-3.9358c.5572-.65-.6156-1.8757,12.3172,19.7333,4.2162,6.607,6.3521,8.0393,16.4534,27.5677.1193.2238,5.55,5.5656,2.15,5.3388a9.4563,9.4563,0,0,0-4.045.4738c-1.4029.5647-3.0428.0727-4.4822.747-.7289.3462-1.6764.0547-2.4963.1092-2.15,0-2.15,0-1.13,2.2048,10.0322,21.4183,15.9352,22.6944,18.0749,28.0415-.4373.11-1.0569.0547-1.3666.3281-2.8853,2.6274-6.517-.6193-8.09-.6193q-3.4164-.0824-6.8875,0c-1.6763.0546-2.1748,1.1458-1.2207,2.6054.1881.2877.62.51.62.7105.0729,3.4438,2.7513,5.3753,4.6463,7.78,1.2983,1.611,3.8909,6.3017,5.4479,6.7418a2.102,2.102,0,0,1,1.0933,1.6762c-.3885,1.1279-1.1456-.0451,9.1286,13.629A535.9139,535.9139,0,0,1,332.52,333.3009c-7.3675,5.6238-12.8516,14.4073-14.03,13.4469-4.0932-3.4109-15.7189-12.3811-16.7084-13.3375-5.0136-4.9527-6.6769-5.3988-9.7663-7.5619C274.0683,313.083,278.54,313.01,271.3349,310.47c-7.52-2.5245-9.1721-5.5724-12.3718-6.0677-4.142-.62-10.2861-.0872-12.9551,3.0977-.9133,1.09-.6012,2.4458-.6012,5.0836,0,5.0059.1586,1.738-7.3247,21.4456-.2.6379-.1641.6926-.7107.2371-7.8718-6.4518-7.8258-5.5039-8.91-7.1061-1.0932-1.5487-2.0771-3.4437-4.0632-4.1544-1.33-.492-2.4416-1.6216-3.99-1.2573-1.5852-1.2207-3.4073-.3826-5.12-.5282-3.6687-.37-8.1209,4.4512-16.8724,5.9945-2.2046.401-4.2635,1.3664-6.5594,1.33-1.7323-.0575-12.0775,3.6953-13.3011,6.7235-.9306,2.3029-5.4615,5.6186-12.9914,13.1191-.52.5183-.911.5282-1.3665,0-10.2152-11.212-22.685-24.079-27.4587-32.5789-1.1412-2.019-2.2089-5.4585-11.6795-6.9237a12.4435,12.4435,0,0,0-8.1264,1.3118c-1.5123.8383-3.28,1.0567-4.81,1.9133-1.3838.8241-12.1364,1.1629-12.2079,1.2026-1.1843,1.075-2.642.3461-3.99.5647a17.5813,17.5813,0,0,1-2.9518-.328c2.0885-2.8522,7.4189-3.6214,32.0867-17.7288,3.3709-1.8768,6.3773-4.3728,9.9486-5.8852.4057-.1625.6842-1.5187,3.152-.3826.224.1061,18.46,9.7657,22.3386,13.3557,6.3335,5.8459,12.5441.5548,31.0117-4.2636,5.2634-1.316,49.0628-27.666,49.287-27.8048,2.1519-1.3748.4683-.1138,37.3161,27.5862,3.6989,2.8423,7.5982,5.4115,11.1148,8.4727,1.4211,1.2024,2.0589,1.13,3.5348.2731,2.2354-1.2861,12.3638-6.8164,12.9913-7.27,30.06-21.6642,25.7482-19.5489,26.5112-17.0909.056.2245,6.8146,24.0667,6.5958,28.989,1.2082,3.02,9.097-41.2408,46.3353-67.7445,6.6094-6.6094-2.0892,2.794,7.6163-8.5456.7106-.8563,2.2958.2551,3.79,1.6034a89.0585,89.0585,0,0,1,17.0546-6.6868c-3.5715-3.0249-25.59-21.1727-28.9163-21.1727-2.1726,0-7.0327,8.0446-15.6334,15.9978-15.3742,14.6573-21.9528,20.1143-30.8112,25.0353-12.1731,7.073-38.3092,25.5384-39.12,26.1651a1.8636,1.8636,0,0,1-2.478-.0546c-.321-.22-48.87-31.4893-49.2505-31.6315a13.6607,13.6607,0,0,0-5.74-.51c-1.6217.1639-27.55,15.5057-33.18,17.8927-57.5048,25.0034-44.66,16.4509-49.9247,19.6237a2.51,2.51,0,0,1-2.8971-.0912c-3.2474-1.7256-15.0788-7.2072-19.1136-11.242a28.3565,28.3565,0,0,0-7.6162-3.6442,6.3163,6.3163,0,0,0-5.8307.984c-18.9979,14.4476-12.1391,3.8036-52.33,60.4928-8.6581,24.745-.2088,32.6161-8.91,66.3052C57.9686,409.8462,30.9473,457.6027,33.316,461.5384Zm264.2551-11.06a.792.792,0,0,0,0,.8016c2.9564,2.7062,4.3912,6.5412,6.76,9.73.8928,1.2209,3.99,5.3023,4.6827,6.1951a1.4067,1.4067,0,0,0,1.8768.4555,2.763,2.763,0,0,1,2.6056-.51c2.4434.289,4.6377-.6282,6.9238-.6924,1.4814,0,3.1466-5.6013,3.2615-5.9035-13.01-.7629-12.1087.5292-11.479-1.7491.3193-1.2777,1.0784-.8975,2.6237-2.3322.1918-5.8871.7559-5.1368-1.3483-4.92-4.4641.3645-8.7459-.9656-13.1918-.674-.82,0-2.0942-1.0217-2.715-.4009Zm191.354-213.4377a92.76,92.76,0,0,1,20.3161,14.1029c2.8974-3.7825,3.5887-9.922,6.7053-14.7041a.555.555,0,0,0,.0546-.2916c-.31-1.53.6924-2.6419,1.2754-3.8626,1.1116-2.3688,2.3323-4.6464,3.535-6.924.747-1.44.7288-3.2615,1.53-4.5,1.4864-2.2184,4.4418-8.98,5.8124-10.35.7888,1.1038-.4663.1409,1.64,6.1586.6378,1.95.9475,3.972,1.6216,5.9219a25.9221,25.9221,0,0,1,1.3666,6.5776c.4337,4.1433,2.7895,8.61,3.2979,11.1328,2.5271,13.5029,6.1607,8.2934-3.2979,27.641-1.2208,2.332-2.0772,4.8832-3.6624,7.0514,15.4148,24.1242,22.3021,51.3276,26.1286,66.469,11.041,43.8719,4.7753,35.4131,12.4083,47.9388,1.55,2.4331,1.9714,3.9936,5.12,8.1264a34.9478,34.9478,0,0,1-5.4662.2369c-1.735-.0724-3.49.5382-5.1383-.5285-.5686-.3792-2.3881.4352-1.5123,1.8586,13.383,26.387,9.9069,16.109,15.1779,25.928,1.2233,1.6-2.9664,2.74-4.9743,1.7494-2.2919-1.1471-4.6467-.7731-7.0878-.8749-1.0751-.0545-1.2756.9292-2.0044,1.3849-.02.39,15.1908,25.7724,18.822,29.7907.3462.4009.3462.7471-.2551.6562-1.3119-.2189-2.8243.62-4.1542-.5467-.4557-.3279-1.3849-.0547-2.1318-.0547-5.7862,0-8.6985-.643-7.4706,1.567,1.76,3.313,1.67,3.99,2.8242,3.99,17.376,0,15.9867.472,17.164-1.1116,1.2207-1.7309,1.8949-3.9356,3.6805-5.3751-.0546-1.13,1.1115-1.44,1.64-2.2046,3.1718-4.4748,5.016-4.7035,3.717-6.2316-1.0268-1.0271-4.5271,1.62-8.6366,1.2755-.4555-.0365-.8746.4009-1.33.5647-.2369.0549-.5466-.1091-.82-.1638.0547-.1277.0547-.3462.164-.4374,1.7127-1.2208,2.3687-3.17,3.3708-4.8649a140.9812,140.9812,0,0,1,9.4383-14.1573c2.8317-4.0913-.3988-2.4676-1.2755-2.8061-5.4374-2.58-9.774.0144-8.509-2.4052,7.4991-14.1034,9.4235-14.0245,12.3537-20.48,3.7977-3.7389,4.52-10.2933,6.1221-8.6913,3.0084,3.0088,3.3322,6.3756,6.9055,10.5134,2.0306,2.3329,1.6864,4.615,10.0762,16.4534,3.0222,4.2308,3.3313,4.6971,2.46,4.61-2.0042-.3281-4.0788.5671-6.0493-.62-.3428-.2064-1.0021,0-1.5122,0-1.64,0-2.0409.7289-1.1844,2.2046,2.8059,4.6282,5.284,9.5479,8.7824,13.7932,1.3379,1.6252-.6105.9156,3.0609,4.2821.8382.7834.5138.7995-.3461.9838-2.0511.4394-2.0408.4555-4.0632-.3281-1.2045-.4726-3.1662-.3957-5.74-.3279-.9839.0183-1.5671.8564-1.0386,1.5123.6924.8566.6742,2.4781,2.478,2.3141.2916-.0545,1.1661.9293,1.1115,1.44-.2186,1.6764.8928,2.7877,1.6216,3.9723,4.838,7.6757,5.2806,6.7722,5.9582,8.1992.3118.7007-.5161.4335,4.5734,1.2754a6.921,6.921,0,0,1,2.6784.4737c1.33.8564,2.7878-.5285,4.3366-.5285.1881,0-.179.218.4372-1.2206.8689-2.3889.4472-1.5618,1.7129-2.132-1.433-1.9087-5.056-.4588-14.8316-1.1114,6.1123-8.3148,6.424-4.1187,12.3353-15.0138,1.0672-1.9666,5.6719-8.2594,5.8489-8.4364a11.5733,11.5733,0,0,1,1.9678-1.3848c1.3483-.9293,1.8221-2.6055,2.66-3.8808.2368-.4738-.2734-1.6947-.7835-1.7491a8.2942,8.2942,0,0,0-2.5146,0c-2.2957.8745-4.792.7469-7.0514,1.64-1.1892.376-.9926.2958-4.2818.11a182.5354,182.5354,0,0,1,10.6955-15.9979c3.62-4.5,7.0342-10.8151,7.9991-11.4062,2.8952-1.7736-5.1667-3.162-8.0538-3.0609-.2249.0074-6.6845.1914-6.96-.31-.5649-.7472.5466-1.1115.8746-1.6764,8.4733-15.4788,12.8677-21.3277,13.9024-23.5593,1.9314-4.4095,4.8831-8.0172,7.7073-11.8435,1.5483-2.2123,1.9015-5.7556,3.1158-4.6281,1.5266,1.7809,25.5133,41.6886,26.6751,42.9281-.9292.1637-1.9958-.0688-2.6056.3643-1.9639,1.3949-3.5894-.6561-5.4115-.2551-.2734.0545-.7289-.401-1.02-.401-1.3484.0182-2.6786.1641-4.0085.2371-.4556,1.6032.6924,2.77,1.2937,3.8626.9309,1.6292,7.9839,14.1583,12.2625,17.9658a9.362,9.362,0,0,1,2.0407,3.1886c.2369.77,3.1381,1.5737-1.0568,3.48-2.5766.6226-1.8814-1.4275-7.2518-1.2753a1.5167,1.5167,0,0,1-.9293-.11c-1.6581-1.4393-3.2243.1733-4.81.1459a1.5538,1.5538,0,0,0-.2187,1.075c1.44,1.075,2.97,1.84,3.59,3.5167,2.966,7.6345,9.9875,17.05,13.6108,20.68.5831,1.3483,1.2209,2.6239,1.8221,3.9539-14.395.6452-15.437-.7618-14.5584,1.2754,2.1866,3.5681,1.3074,3.9661,5.776,3.8083a3.57,3.57,0,0,1,2.6056.583c.7439.7441,1.791-.583,6.1222-.583.8206,0,4.1436.1147,4.956,0,1.59-.199,1.6005-3.917,5.3751-7.2884a4.2353,4.2353,0,0,0,1.1114-1.9862c.3645-.911-.1822-1.3848-1.3849-1.33-1.166.0547-2.3869-.2186-3.4618.6377a1.341,1.341,0,0,1-1.1115-.1639c-.8513-1.6317.73-2.08,2.2411-4.5735,2.1751-3.6384,3.3183-4.0186,5.9764-7.8167.656-.8928.2005-2.4415-.7653-2.387-1.64.1094-3.17-.4918-4.7373-.6193-.8648-.0895-1.085.7207-2.15.4008a.9611.9611,0,0,1,.1275-.4555c1.8039-2.3323,2.7149-5.2113,4.7009-7.38,3.0151-3.3248,6.6794-12.5224,8.6913-12.2807,0,3.8346,2.1511,1.8492,12.9732,20.17a41.9992,41.9992,0,0,1-5.2294.1092.9923.9923,0,0,0-.6924,1.64c2.0772,2.2592,2.7149,5.375,4.92,7.5614a23.0048,23.0048,0,0,1,3.0246,4.3c.0911.1638-.2732.7468-.5283.8563-2.4732.5942-.7233-1.3578-6.7782-.4008.1823.9293.1093,2.0952.6924,2.66,6.2688,7.0917,2.0722,8.5755,13.1554,7.7073,1.0568-.1094,2.1317-1.075,3.1157-.51.7106.4008.92.337,1.3665-.1093.839-.8379,2.2751-1.3738,2.6057-2.2775.3429-.9374,2.1136-1.2209,1.1843-2.4781-.2186-.2368-1.3817.2885-2.0952.419-1.0166.186-2.0591-.419-2.9338.51-.1275.164-.5283,0-.8563-.0547a2.0416,2.0416,0,0,0,.3462-.6014c7.5606-11.7792,10.2543-11.0964,2.059-11.0964-1.7816-.2421-1.1524-.0131-.5648-1.0567,4.2847-6.2959,6.9979-9.9486,8.5819-13.21.4008-1.0569.9293-.911,1.33-.3461,1.8949,3.2249,4.5552,5.867,6.25,9.31.4555.8929,1.2936,1.7311,1.84,2.6423,1.567,2.5509,1.53,2.5692-1.3848,2.66-1.156,0-1.8729-.0678-2.15.7837-.1672,1.3919,6.1563,9.1914,6.45,10.3674-.31,0-.6924.0912-.82-.0546-1.33-1.0386-2.8243-.2731-4.209-.4555-.0911,0-.4556.6013-.3645.6561,2.5234,4.7462,2.68,4.205,3.954,4.3363,2.9541,0,7.66-.2221,9.7663.51,1.4576.5284,3.0428.0364,4.1361-1.7856,1.6587-2.7822,6.7906-6.6372,3.5166-6.0857-.2925.0493-.656.4008-1.02.4555-1.4758.1092-3.0247-.2368-4.4276.583-.2187.1642-.6378-.2184-.984-.419-.0546-.0548.0547-.4008.1093-.565.2369-.51,1.2573,1.1664,1.2209-.4555,0-.6421,1.2107-1.8663,2.0953-3.48,3.5266-6.6818,7.5772-9.5864,5.1565-10.0214a24.4471,24.4471,0,0,0-5.9764-.6559c-1.35.1183-.6257-.0257,5.9764-10.6956.8745-1.403,1.7674-2.8243,2.7149-4.2273.4738-.6922.51-1.7491,1.6217-2.15.6865-.237.5139-2.19,1.166-2.8426.725.5646,2.2375,3.3576,2.7149,4.1727,3.9548,6.7082-3-5.1972,10.0215,16.107a19.4023,19.4023,0,0,1-4.537.2917,1.0764,1.0764,0,0,0-.9657,1.6579c4.1826,7.5543,8.3055,11.763,7.7073,12.0623-.3462.2914-1.09.6892-1.2207.5467-.8539-.93-1.9679-.2918-2.9153-.492-.8564-.2007-1.6945-.4738-2.6056-.6379-2.2941-.3881,1.9713,4.7463,3.2068,7.0151a2.0866,2.0866,0,0,0,2.3687,1.1112c1.4576-.2913,3.1158.565,4.4277-.6557a.6857.6857,0,0,1,.5648.0545c2.075,1.8375,2.7957-.6435,5.029-3.2248,5.0327-5.8119,5.989-6.1886,5.8123-7.5437-.0408-.6395.41-.5282-6.2316-.5282-.1639,0-.31-.1638-.51-.2187a53.5944,53.5944,0,0,1,5.6849-7.2883c1.1661-1.33,2.9335-2.387,3.061-4.6463.0387-.7719,1.1355-1.19,2.4415-2.8243,2.798,4.6664-1.4312-.179,6.7054,8.91,1.5778,1.8031,6.2184,6.84,3.8263,6.6686-.62,0-1.3849.0547-1.7311-.2369-1.0932-1.0385-1.5487.583-2.4234.401-.8267,1.3224,2.5,3.7554,3.3528,4.9925.8927,1.3848,1.166,3.1886,3.0609,3.7533.4374.1275.432.9806,1.2756,1.2756,2.73.9549,1.7783.7642,6.1038-3.8265.4737-.5285,1.0934-.984,1.5489-1.5487a1.0481,1.0481,0,0,0-.8747-1.64,33.1773,33.1773,0,0,0-6.3225,1.2208c-1.13-.0909-2.1866-.2368-3.3345-.2916a11.8731,11.8731,0,0,1,1.7858-3.2251c5.17-8.8944,15.2584-16.883,9.62-17.7287a26.5256,26.5256,0,0,1-5.74-1.2206c-.7414-.2713-2.0043.51-2.3323-.4191-.2-.5649.6559-1.5489,1.0569-2.2958,7.3455-14.19,8.8866-14.56,10.4951-18.148.3462-.7471.51-1.494,1.4576-1.6217a.87.87,0,0,0,.51-.6194c-.3567-1.4813,2.9662-2.76,2.5509-4.865-.073-.4191.4739-1.1659.8017-1.1659,2.5172-.3024,3.0506,5.267,7.7073,11.1326,4.537,5.8854,7.8714,12.6271,12.3537,18.5671,1.1292,1.5683-2.6216-.2294-4.7009,1.33-1.0569-1.0385-2.551-.2187-3.6077-.9291-.5649-.401-.6742,0-.9294.2-.51.3281-.164.51,0,.8563,2.66,4.8653,5.2477,9.6936,8.9281,13.7751.7289.8015.2552,1.822,1.0386,2.4417,2.76,2.1934,1.9555,2.153,1.731,3.0063-.8017-.2367-1.24,1.015-2.46.2188-2.9479-1.9253-4.5577-.0285-6.2133-1.3849-.5384-.4411-3.47-.325-1.6945,2.0406,1.98,2.64,2.96,6.8762,5.1565,6.5961,3.7318-.2114,6.0573,1.0406,7.5069-2.4964.4841-1.1566,3.3768-2.4662,3.6259-2.77,7.4022-9.0187,8.0788-13.8236,12.9914-16.7994,1.3848-.8746,2.4052-2.5325,3.7352-3.6989.2552-.2367.2-.9838.1458-1.4393-.3171-.7388-2.8427.2783-3.6259.3826-3.5166.401-6.9057,1.2939-10.4223,1.2209a5.7845,5.7845,0,0,0-1.8949.565,5.3358,5.3358,0,0,1,.6559-1.7311c2.66-3.3343,4.7921-6.96,7.3612-10.35,1.4941-2.0952,3.3344-4.0085,4.7374-6.1584,1.6631-1.9968,1.2617-3.44,3.0793-3.7534,1.075-1.6763,2.15-3.4438,3.2251-5.1567.1093-.1637-.2369-.82-.4555-.82-2.3688-.4009-4.5917-1.33-6.96-1.33-.6047.013-7.4911.18-7.9991-.2.0729-.1457.0729-.3645.2369-.419,2.8607-2.2776,3.4255-6.2863,6.3226-8.5821a9,9,0,0,0,2.7148-4.2256c1.3848-4.1,4.5188-7.1974,6.1951-11.1876a25.9461,25.9461,0,0,1,3.9356-6.4867c.565-.6739,1.95-.4555,1.7858-2.0587-.0548-.7106,1.2754-1.4761,1.8038-2.3506,1.257-2.1038,1.5883-3.2122,2.7877-5.0106.2273.34,25.7632,38.6749,25.91,39.83.3042,1.32,6.2124,1.3483-11.0782,1.3483-1.5487,0-1.64.164-.7106,1.6035,2.4416,3.7718,4.7557,7.6526,7.4158,11.2967,3.9065,5.2484,5.7438,6.2688,9.9668,13.0281-.984.2549-2.0043.71-3.0247.9291-2.73.1682-2.4963-.8531-7.2153-1.2572-.5443-.0312-5.4986-.22-5.8125.2733-.62.82.5284,1.075.8746,1.7491,4.3485,8.5675,8.29,11.0563,11.7342,16.6173.7288,1.2209,2.2958,1.6217,2.9335,3.0977.2587.6283,2.4724,3.9425,3.0609,3.8443,1.5124-.2183,3.0613.4555,4.5371-.4008.9557-.5547,5.4794.6024,7.47-3.0427,1.5559-2.9725,9.7925-11.19,10.4769-15.0686.2613-1.5673-2.1117-.1548-4.4639-1.4213-1.02-.5284-2.4416.492-3.4073-.6741-2.0407.31-4.1363-.62-6.0857.51a2.8264,2.8264,0,0,1-2.3141-.2,2.8955,2.8955,0,0,0,.6194-.6561,96.1514,96.1514,0,0,1,7.4706-11.2968c3.0246-3.7536,5.4115-7.9261,8.181-11.8617,1.5124-2.2958,2.3366-4.9233,4.045-7.0879a7.3908,7.3908,0,0,0,.656-1.9131c1.166-2.241,2.35-4.4459,3.5165-6.6505.6013-1.0569,1.3029-1.0909,2.15,0,6.3006,8.1122,23.3344,33.8487,23.5048,34.0726-5.4672-.3626-14.1378-1.4218-12.5358,3.3161a43.5976,43.5976,0,0,0,4.5551,9.5841c2.9153,4.6281,5.867,11.4609,9.9121,15.16,2.953,2.6478.38,1.9862,24.0876,1.9862,2.8973-1.5672,28.3515,1.02,30.9389-.7473,12.7545-8.7823-24.0877-59.7821-30.2829-71.5891C1019.0161,370.3059,1009.04,321.3,988.0449,286.4c-7.3976-12.2808-16.3076-23.4683-25.5819-34.3829-5.8082-3.6238-11.1495-6.9442-14.6859-10.2579-1.4394.1091-.8564-1.6218-1.95-1.9863a10.8793,10.8793,0,0,1-2.3869-1.7856c-2.2594-2.2594-5.1565-3.6442-7.598-5.6849-2.2126-.2329-15.6022-12.1206-32.16-25.3451-1.731-1.4392-14.1211-16.1615-16.016-15.706-5.2055,1.2676-14.97,12.7246-18.075,17.4916-5.6716,8.6135-8.4124,10.0318-14.6677,14.7226a115.36,115.36,0,0,1-9.6022,6.9422c-5.74,3.4252-9.73,9.8389-11.4062,14.8862-.7654,2.241-1.5306,4.3364-4.0269,5.7213-3.79,2.0408-5.1746,6.25-4.1542,10.313.1457.6011-.51,1.0385-.6561,1.53-.2187,1.02-.7834.9292-1.2207.3828a11.9151,11.9151,0,0,1-2.1866-2.879c-1.0385-1.6944-2.6055-2.97-3.6442-4.7011-5.47-8.9812-7.5886-10.2923-9.8573-13.0824-7.394-9.1445-10.6965-15.987-13.702-16.9819a16.1565,16.1565,0,0,0-12.9367,1.33c-2.66,1.64-5.8307,2.0407-8.5273,3.48-4.1544.2185-7.8714,2.2594-12.0257,2.6055-3.13.31-7.5078,2.1127-9.6935,2.15-1.4941.0182-2.2958-1.84-3.8263-1.6762-3.8445.2916-7.47-1.2753-9.0193-4.7011-2.7056-6.1423-13.8172-10.3553-19.0589-15.5968-1.2753-1.2754-3.0062-2.1864-4.0631-3.5712-.1486-.201-23.52-28.2695-23.9784-28.7888-8.8087-10.4044-7.2446-9.887-12.8456-16.0341-3.7493-4.1662-9.84-10.2789-13.9753-15.9431-1.0386-1.476-11.1693-14.4127-14.777-14.4127-4.8649,0-14.8681,13.301-18.239,16.0888-2.0818,1.6911-14.2629,10.4425-14.6676,10.6958-1.7856,1.1113-3.0064,3.0975-5.1928,4.0814a19.6745,19.6745,0,0,0-7.7074,5.6664c-1.02,1.3122-2.29.5088-3.462,1.2757a20.0735,20.0735,0,0,1-8.4727,2.0407c-2.66-.2369-5.12.62-7.6891,1.2024-1.2754.2918-2.15,1.33-3.2614,1.84-3.0107,1.4814-7.9122,6.0593-7.6528,9.6936.1094,1.4942-2.7148,12.7909-3.48,14.777-7.487,19.7441-10.3244,30.9851-10.7684,29.6451-5.0734-6.6336-7.9859-12.532-12.3353-18.658-4.0834-5.6145-13.0383-26.1378-15.688-27.44-.6562-.31-1.33-.7653-2.0408-1.0934-.51-.1822-4.1-.6012-5.1565.0547-4.92,2.9335-9.8392,16.0526-12.3354,19.2229-2.3505,3.0062-5.8307,4.5552-8.2722,7.361-5.1993,6.039-2.3793,5.9681-14.3935,26.1482ZM873,234.6539c3.374-2.25,2.869-1.7155,8.254-11.1693,1.53-2.6237,5.4116-9.4383,5.9217-8.9282,10.3,9.9842,18.4676,16.3192,23.359,21.8286,1.84,2.0405,4.3365,3.28,6.25,5.3569a73.0646,73.0646,0,0,0,8.1628,7.1788c3.17,2.6156,20.0558,18.7784,20.28,18.9678.5285.3646,1.3848.6742,1.5306,1.13a3.9914,3.9914,0,0,1-.0547,2.4418c-.82,2.2046-1.148,4.5369-1.7674,6.76-2.2124,8.4924-3.81,9.217-3.7171,13.41,0,3.9476.0821,8.3275,3.0612,11.57,3.6445,3.9912,1.84,2.917,7.1971,14.5036,2.3323,4.8833,3.9722,10.0214,6.4865,14.7955,1.95,3.6441,2.5876,4.7736,4.9745,12.226-.357.063-48.4059-22.3617-48.6311-22.43a14.2754,14.2754,0,0,1-6.7417-4.045,126.44,126.44,0,0,1-11.552-15.178c-3.6805-4.9743-7.6346-9.7478-11.4062-14.6676-6.1865-8.12-4.5562-7.8371-18.33-23.2861-.3281-.3826-.39-.9054-.6743-1.2753-11.1992-14.5581-9.9589-13.2258-11.734-15.4332-1.265-1.5375-1.3825-.4343,19.1311-13.7562Zm-60.6386,60.8208a2.8659,2.8659,0,0,0,.8928.8564c1.7675.7106,2.7513,2.4083,4.1544,3.5894,8.1632,6.8716,6.5807,5.4519,5.2111,8.5819-.1093.1824.0182.492-.0547.62-.7835,1.3666-1.0932,3.0428-2.3869,4.0268a3.1132,3.1132,0,0,0-1.33,3.17c.2393,3.0528-.5183,5.8657.0728,7.4707.7654,2.0223,1.2027,4.2818,2.4418,6.1219,3.0482,4.6085,11.2636,36.1468,13.0824,41.4341.0365.2-.1822.5465-.2916.82-4.7224-8.25-5.3331-8.54-6.614-11.5154-.4373-1.0022-1.5489-1.7128-1.7675-2.7149-1.0234-4.4356-4.3561-6.3366-4.9742-7.9262-1.5646-3.7689-16.91-28.1609-20.2068-35.02-2.9328-6.1319-6.4617-9.1186-15.4147-25.1446a328.975,328.975,0,0,0-18.403-31.03c-1.5851-2.478-2.6966-5.3023-4.7373-7.434C754.6407,243.9784,788.5159,273.3218,812.3611,295.4747Zm-107.12,33.053c-.1093-1.95,1.84-2.5692,2.8242-3.79a10.96,10.96,0,0,1,1.95-1.95c6.821-5.5582,6.8736-3.4292,9.73-7.9989,5.0568-7.9957.5491-11.4088,3.0064-22.7395.7658-3.2814.34-4.8586.5649-5.0836,1.0749-.7654.4373-1.8948.583-2.8423,1.17-5.2214.5828-6.81,1.33-9.7483.4009-1.4393.3462-2.8241.62-4.1542a14.1849,14.1849,0,0,0,.5648-4.1c0-3.52,3.9842,10.5644,4.3547,13.9754,1.1844,1.4392.7837,3.316,1.731,4.9742.8746,1.494.8382,3.5712,1.6581,5.1746.82,1.5852.9474,3.3708,1.5123,4.9742a35.287,35.287,0,0,1,1.8768,5.1564c.6633,3.5622,4.416,10.9569,2.7149,14.1028-.51.9476.1641,2.5148-.1822,3.6077-.3645,1.0935-1.64,1.8768-2.0407,2.9337-1.3448,3.4013-2.7889,4.1936-3.4985,6.3226-1.0468,4.0491-.4365,5.0992-1.1478,6.6686-.3827.8749.2,2.1321.5283,3.1886a10.8737,10.8737,0,0,0,1.53,3.6625c3.6277,4.12,4.3451,8.1358,9.0739,15.9431.4556.8018.6012.7473-.3826,1.1845-3.5713,1.53-7.4886,1.8766-11.0235,3.4618-.164.0182-.4374-.3643-.6741-.3643-8.0881-.5782-10.4519-.4992-13.41,8.2358a1.481,1.481,0,0,0,.4373,1.895,4.5866,4.5866,0,0,1,1.567,2.7694c.6658,1.9971,7.98,8.0566,7.2518,10.4041,2.0954,2.8241,2.5874,6.4319,4.3365,9.4383a30.199,30.199,0,0,1,1.9132,5.1018c.2369.7652.7653,1.3849,1.0568,2.1317.3152,2.2029.0627.4582-2.3322-1.0567-3.0793-1.822-5.0472-4.8284-7.6345-7.1243-.7288-.6376-1.0649-1.8616-1.822-2.2776-4.8748-2.6777-9.1512-8.4757-10.0761-8.8553-1.4942-.6012-2.3322-1.95-3.4984-2.9517-1.0751-.896-.4744-2.5485-1.1661-4.7556-.492-1.3121-.0547-2.8788-.1641-4.3183-.2375-4.7523-.6194,2.2923-.6194-14.3944a6.47,6.47,0,0,0,0-1.8766c-1.2027-3.1886-1.2755-6.5961-1.7129-9.8759-.4373-3.0428-1.2754-6.1949-.7652-9.4018.0547-.2916.1457-.7288,0-.911C704.5674,331.7885,705.3144,330.1123,705.2415,328.5277Zm-130.9159-97.354c2.5541-3.6852,22.4173-38.6041,23.1768-39.32,1.7665-1.5949,6.03-2.7462,6.7417-3.2616,7.0725-4.9474,8.2137-2.7573,28.8251-17.9473,4.1912-3.03,4.8043-5.76,10.1307-10.44,2.0408-1.7673,5.0472-5.9217,7.38-5.74.5831.0547,3.5894,5.4115,4.6462,7.1243,15.2213,24.5886,34.6189,48.4386,41.9437,63.007.7094,1.4193.8992.9535-3.0976,4.81-1.0021,1.0022-4.8986,4.2659-5.6848,5.0472-9.1395,9.0826-11.6,11.3-20.6624,19.4413-8.8609,7.8089-15.089,6.4352-17,15.67-.7106,3.48-.82,4.9925.8017,7.6891,3.3007,5.1246,3.0316.8963,5.9217,7.7621,2.1807,5.18,2.4415,4.8366,1.5852,6.359-5.1155,9.0679-20.6076,30.604-20.6076,32.36-.1094,3.6624-2.0771,6.924-2.5873,10.4951-.1822,1.0933-.9475,2.0953-1.1844,3.2435-.82,4.2089-2.4051,8.1627-3.5347,12.2625-7.146,24.931-12.026,42.7388-12.026,39.0471-2.1982-3.869-19.2138-26.6813-21.1-29.4081-20.3579-28.9914-18.5243-19.0008-11.7887-36.46,9.2843-26.34,11.6409-11.9274,12.2261-33.3623.0835-7.8892-9.5482-16.2591-11.9528-23.76-.0675-.2316-13.4465-30.3288-13.5381-30.5562C572.4683,234.1026,573.8955,231.7785,574.3256,231.1737Z" transform="translate(0 0)"/>
    <path class="cls-2" d="M359.7008,408.36c4.6939-.3519-1.297-.4317,17.96,1.2927,7.2806-.6875,5.2924-.8094,9.0648.3419,7.6125-.799,3.6023-.805,18.2507.2195,3.9071-.9615-.5266-.6626,24.294-1.0735,3.8353-.8782,1.7389.0216,9.403-4.5617-.7033,23.4015-.5195,23.44-7.3486,22.4917-5.3052,1.2432-3.7813,1.11-6.889.7559-5.6,1.5635-19.4989.46-35.6309,2.5127-3.0137-.5531-1.91-.5123-4.81-.0733-2.9824-.4453-1.3983-.4608-7.2283.183-.7258.7763-.73.4912-.12,1.244,2.8153,1.0984,1.7053,1.01,4.81.5489,3.4566.4881,1.0393.2442,12.1833,1.049l4.8588-.7075c3.1343,1.0907,1.52,1.0056,7.3237.1709,11.5419.98,9.12,1.078,12.28.134,11.9562.63,8.6873.7014,14.8663-.1584,3.14.1837,2.5458.2033,3.191.0244a31.47,31.47,0,0,0-.5076,4.8422c-1.4446-.1552-.7626-.31-2.9732.8049-2.7561.366-1.6329.387-4.8588-.0122-5.3737,1.299-4.4729,1.0827-7.3971.7686l-2.4415.6342c-4.3748-.1464-28.1371.7317-36.0175,1.61-3.0756-.5272-1.8859-.5341-5.1727-.0732-3.257-.4455-1.5357-.4711-7.8327.2317-.7269.7924-.749.5063-.0484,1.2442,3.0751,1.0685,1.8858.9883,5.1734.5121,3.6984.4633,1.1119.22,13.03,1.0612l5.2453-.6587c3.2831,1.12,1.5347,1.0231,7.8562.2439,12.3629,1.0917,9.7832,1.1706,13.1983.2439,25.1436-.0161,16.55.188,22.1907-.7805,0,8.5293,1.2972,5.8374,1.16,10.4893-.121,4.1228-.9909,4.1228-1.1361,8.2453-.1967,6.6831,1.7669,16.74-.2644,44.9533,15.2675.9861,11.7664.761,16.8486,1.0854-.0968-3.8053,1.74-4.0736,1.8855-7.44.3927-3.7636-1.8653-5.0383-1.9581-8.9771-.121-4.1225.3369-25.4988.2406-29.6094-.121-4.1224,1.6436-4.1224,1.5469-8.2453-.121-4.1223-1.1118-4.11-1.2328-8.2329-.2225-8.9709-3.2094-7.2319,2.1033-8.0865a13.09,13.09,0,0,1,5.076.8293c6.4694-.5125,4.7385-.5726,7.9046.1343,3.3792-.4762,2.171-.4391,5.2454-.0732,38.323-.628,23.858.5127,33.7938-.6587,3.1335.4832,1.9463.51,5.1733-.0122,3.1428.3377,2.0537.5747,8.2428-1.1465-.8369-.747-.1061-.4014-3.2636-1.3662-3.389.6251.5628.5442-15.2527-.4267-6.1588.7622-4.48.8777-7.6149-.3049-6.4848.66-3.1485.81-15.1565-.9026-3.48.6829-.6025.7812-14.9872-1.1465-3.1054.2782-1.9657.371-4.9791-.3048-5.8688-.0429-4.6313.0366-6.3094-.2564.9826-4.1739-.8161-7.2413-1.1119-9.5138,2.78-.0588,2.012-.2176,3.384.598,2.0665-.2793,1.3932-.3354,2.9732.1706,1.868-.0884,1.2339-.2,2.7561.4148,6.5714.2365,1.6365.5957,9.9832-.1587,3.1914.4978,1.9384.5476,5.4389-.0974,1.6428.5677.9466.5432,2.6834.0974,1.4345.3753.9186.6483,4.3507-.9148l-1.5226-1.4636c-2.5477.7346-.554.08-3.94.0489-4.4976-.9665-3.0523-.9474-6.43-.2561-1.3391-1.2134-.375-1.071-3.7227-.5491-5.22-1.9169-3.8592-1.74-5.8255-1.1709-4.5834-2.0636-3.199-1.6849-6.2126-1.854-.8215-.7368-.3028-.6044-2.006-.5122-1.6923-.9892-1.4223-.9243-1.6684-.8415.9111-6.0634-2.107-13.576-.1688-11.8433,6.659,1.4965,5.0232.9444,7.5175,2.4027,3.8047.3839,2.5477.1341,5.39,1.1587,35.2289,3.4445,28.4836,3.1467,35.8,2.4149,3.2777.4832,2.0308.5132,5.4389-.0244,3.0717.2718,2.0983.5945,8.5331-1.2929-.8838-.6918-.1426-.3993-3.4808-1.293-3.4491.6671-.4715.6468-15.6162-.4023-6.3123.57-4.8618.6677-6.5266-.0855-1.4239-.6442-.1692-.5149-6.2846-.3293-10.4468-2.92-8.0439-2.5283-11.6758-2.415-8.875-3.7136-4.9076-2.5338-11.6757-4.44-1.3346-1.1989-.6852-1.2249-7.1067-2.3176.0938-1.56-.4776-13.63-.4833-13.7581,11.2275,1.2773-12.7144,1.0219,40.6349,1.5491,6.0911-1.2,4.3614-1.0478,7.832-.8174,2.9589-.7466,1.77-.6379,5.1486-.561,5.8678-1.3709,4.8032-.9086,5.2217-1.8662-1.0638-.6666-.2181-.3829-3.6985-1.0857-2.8719.79-1.7038.6713-5.0525.61-12.4168.22-9.0673-.0667-15.2775,1.1468-3.1612-.9659-1.9891-.8523-5.1244-.6221-2.9879.6-1.8443.5822-4.98.1828-8.4671-1.4045-6.1961-1.2969-9.645-.7927-16.3639-4.5608-13.9538-3.7987-15.1807-4.4518a44.2344,44.2344,0,0,0,.2419-5.5012c.7.5069.2584.4637,1.9818.11,1.3533.5-.4956.2791,10.8295.9392,4.9252.2871,3.87.09,5.125.7075a11.6272,11.6272,0,0,1,3.4566.2928c5.83-.5417,4.2949-.5685,7.0347,0,2.8427-.6,2.0868-.6174,3.4566-.0489,1.46-.4452.8723-.4422,2.2721-.0122,2.754-.7619,3.1968-.4988,1.2086-2.7321-1.3291.5031-.7834.4912-2.1027.0731-1.3864-.0161-.5271.1277-3.9889-.817-2.8313.66-2.0495.7913-2.9732-.4515-2.67.4977-1.7449.5766-4.0609-.2072-2.0053-1.2113-1.2506-1.0827-2.9007-.5124-2.3518-.7315.5147-.2279-15.8818-2.5368-2.5282-.0294-1.9464.1144-2.7071-.561-1.6425.1947-1.2293,1.4894-1.5716-8.5749,9.81.1351-2.0687.182,26.3973,1.0857,10.559-.9806,7.6634-.8836,13.1742-.561,5.1634-.82,3.7326-.7812,6.5024-.305,2.5529-.5272,1.5619-.5089,4.3029-.1709,5.8042-1.616,5.5634-1.4738,1.8855-2.8051-2.524.5707-1.54.5419-4.2786.2195a14.422,14.422,0,0,1-4.303-.232c-5.3574-.3375-3.4083-.4094-8.4848.4392-1.8435-1.0384-2.1865-1.2451-6.3578-.3293-9.5708-1.6143-7.4376-1.5446-10.37-.8781-9.7393-2.0426-5.54-1.4612-18.7092-2.4272-.5563-8.5988-2.4029-14.0511-1.5474-14.0511.4845.6686-.6211.4142,6.382,1.0246,1.5228.7839.81.6639,3.19.4147.4874.6914.1113.6029,1.45.3415.6106.57.1889.5368,1.6194.122,1.83-.7079,1.417-.26,1.6194-2.0734-1.2472.3069-.8716.3548-1.45-.1832-.9345-.1786-.4568.0468-2.1512-1.2076l-1.91.28c.22-1.2694.6513-1.0229-1.6926-.7927-1.6247-2.05-.9323-1.8135-2.61-1.3907l-1.2328-1.6464c-1.9259-.15-1.54.0126-1.6926-.6343-1.22.1027-.9463.1581-1.2807-.195,0-4.75-.2265-4.71,2.2963-3.3664,4.12-.4687,3.0752-.539,4.81.1828,2.1283-.4267,1.3817-.441,3.2636-.0122,5.0982-.5293-2.2654.7967,12.6661.3049,1.9767-.484,1.242-.447,3.191-.2317a5,5,0,0,0,3.1426-.061c1.9769-.287,1.2-.3457,3.1184.2075,1.9142-.44,1.1948-.4514,3.1426-.0369,3.1193-.6346,5.1957-.7,1.571-2.7318-1.8324.4841-1.1388.4835-3.0217.0852a6.7851,6.7851,0,0,1-2.9974-.3657c-3.5687-.4979-2.1722-.56-6.0674.1462-1.5963-1.1569-.9341-.9763-2.8522-.9148-2.01.5067-.7459.6119-5.85-.6465-1.7354-.5992-.9522-.6023-3.0216.0122-3.623-.6449-2.3549-.3047-5.4874-1.549-3.6552.0439-2.72.1758-4.3028-.5-2.0435.246-1.3191.2759-3.1184-.2072a25.4548,25.4548,0,0,0-.6769-4.6594l6.8895.3171c1.8585,1.03,1.0079.8246,3.77.78,2.1617.7525,1.2959.5732,3.82.72,2.1936.9118-.6444.4654,15.7366,2.0247,4.718,1.0135,2.9052.8292,7.953.6831,2.1532.7341,1.2367.6574,3.9157.4267,2.3447.63,1.0225.5614,6.0433.1953.7584-.7507.702-.4673.3386-1.2319-2.0394-1.2411-1.1077-1.0638-3.6984-.7564-2.4178-.6342-.6413-.2343-9.0408-1.9635-5.1442.1841-3.0108.3757-9.4514-1-10.3576-2.62-7.0421-1.5342-14.7458-4.6834-7.94-1.1527-9.574-1.7267-12.1348-1.9517-.3285-1.9507-1.7146-10.2909,1.7887-9.2821.3146.0977.3382.5854.6527.6587.3624.0854,1.1846-.2195,1.5469-.1587.3146.0488.6067.3876.8947.4514.3167.07,1.0635-.061,1.3539.0244,1.2221.2852-.816.5363,3.2629.866,1.5716.1465,4.8346.1221,6.3579.3659.6043.0977,1.5933.5921,2.2479.6343.6753.0435,2.0065-.4148,2.6834-.3293.3624.0488.7248.488,1.0877.5121.3624.0367.9909-.3171,1.3532-.3049.8976.0324.3788.9132,3.7228-.2194.3423-.9319.482-.312-1.0635-2.11a4.7813,4.7813,0,0,1-1.1118.3782c-1.4277.0181-3.5292-1.3052-4.9313-1.3785-.6286-.0366-1.8856.5125-2.4173.3538-.4592-.1343-.0242-.8782-.4592-1.0247-.5076-.1828-1.8614.2931-2.4415.1832-1.136-.22-1.8855-1.7566-3.07-1.915-.4108-.0611-1.1362.3415-1.5232.2927-1.45-.1707-2.5377-1.9639-3.9158-2.2319-.3146-.061-1.0184.1613-1.3055.073-.2688-.0828-.2177-.4878-.4591-.5855a17.7233,17.7233,0,0,0-1.91-.2439c-.5559-.1465-1.2812-.7807-1.91-.7926-.1061-.5727-2.3378-8.629.5317-7.66.29.0973.4356.4755.7011.5854a34.9345,34.9345,0,0,0,7.7359,2.2319c.6313.0918,2.03-.012,2.6828.0365,6.1093.4408,4.5184,1.12,5.3422,1.2685.3387.0733,1.04-.2072,1.378-.1583.3139.0484.5337.4591.87.5a15.6484,15.6484,0,0,0,3.2388-.8049,1.0477,1.0477,0,0,0-.3624-1.5857c-.29-.0977-.9916.2439-1.3055.195-.3145-.0366-.5764-.38-.8463-.4755-.2143-.0754-.7979-.11-1.0393-.1828a19.608,19.608,0,0,1-2.49-1.2442c-.4107-.2075-2.1033.268-2.49.1462-.58-.1831-1.4981-1.0063-2.1753-1-.5465.0049-.3324.0432-2.2243-1.8659-.4523-.3853-.7305-.0426-1.2571-.0244-.9273.0416-1.1779-1.1362-1.74-2.0249-2.0033-.5564-1.4176-.2767-2.6351-1.1831-4.0625-1.46-3.3745-1.3076-3.9162-1.1709-.2171-2.7352-1.0835-2.229,1.62-2.3783,1.6745.7376.92.6394,3.36.3168.6076.675.2126.594,1.5232.3174.7324.57.2938.5389,1.692.11,1.7935-.7057,1.4258-.2458,1.4258-2.11a3.2984,3.2984,0,0,1-.9909.2561c-.1445-.0217-1.7-1.44-2.9248-1.5853-.4834-.0489-1.5232.5-1.934.3412-.3624-.1462.5028-.8142.1452-.9636-.3434-.1435-1.3054.3418-1.6684.232-.6285-.2273.6306-1.1894.1694-1.3785-.4933-.2489-.7232,1.0916-3.94-1.0732-.2286-8.6692-.1009-8.6965-2.32-9.7211-2.1276,0-1.813.78-1.7652,1.6342-7.444,8.2158-5.9106,5.8678-7.7353,10.1847-1.8271,1.58-1.4912.9723-1.6435,2.6467-2.6771,2.09-2.2414,2.0192-1.7161,3.1591l3.2152.1706c-.0645-.9908-.8408-.39,4.762-2.89.029-1.7121-.29-1.4107.9666-1.4758a14.3509,14.3509,0,0,1,.7737,4.0373l-2.9006.4756c1.7346,1.1827,1.7724.7557-.1452,1.6464,1.1311,1.1271,1.0176.73.6527,1.7444l-1.4264.6343c1.1915,2.543-.609,1.7193-1.0876,2.3051-.1936.2194.3381.7075.1935.9392-.1451.1831-.943.4026-1.136.5732-.1936.1828-.121.6465-.363.8171a9.8863,9.8863,0,0,1-1.4264.427c-3.6742,1.3537-9.2336,5.3791-13.5365,6.1474-.4592.0732-1.499-.1465-1.9582-.0611s-.9425.5855-1.3779.6832c-.4591.0973-1.45-.0733-1.91.0122a7.92,7.92,0,0,0-2.9968,1.1953c-.8071.8808,2.3671,1.7521,3.07,1.6952.5076-.0485,1.0151-.5976,1.4743-.6953.1041-.0233,6.769-.1269,9.4036-.8779.8941-.2563,2.0059-1.1711,2.828-1.4883,1.9908-.7377,9.8262-2.2284,11.82-3,.105,2.2766.8782,8.7345-2.3448,8.599-.3865,0-1.0392-.3782-1.4258-.3416-.6775.0611-1.378.83-1.9823,1.0125a9.4951,9.4951,0,0,1-3.5776.28c-.3411.0445-.75.3782-1.0877.4026a12.14,12.14,0,0,1-1.3054-.2075,34.9246,34.9246,0,0,0-7.0831,1.0246,10.0845,10.0845,0,0,1-1.16.5244c-.4845.0817-2.1116-.2366-2.49-.2072-.442.0319-1.8879.6777-2.4173.6586-.3624-.0122-.87-.4148-1.2329-.4148-.3865,0-.87.39-1.257.4026-.3382.0122-.87-.3171-1.2323-.3293a7.1928,7.1928,0,0,0-2.5141.61c-1.06.6523.5055,1.4865,1.1361,2.1223a5.9684,5.9684,0,0,1,1.33-.39,12.1244,12.1244,0,0,1,1.2807.305c.3145.0366.9672-.0489,1.3054-.0245,1.0157.0733,2.9248.6831,3.94.6221.7489-.0488,1.815-.8242,2.5383-.7684.5577.0431.8955.8,1.45.8417.7274.0545,1.7888-.6466,2.49-.732,4.04-.5475,10.5755.619,12.2559.4759,2.6005-.2215,2.477-2.4787,2.1269,3.11l-1.3533-.22c-1.2638,1.108-.6283.8273-2.4657,1.2075-8.9686,1.8557-3.647.79-17.3082,2.0735-7.7758,1.45-5.6015,1.2552-9.8627,1.0246-3.974.8491-2.8659.8057-5.0276.3294-2.1.5376-1.2934.4908-3.3846.1343-4.0308.8484-3.2474.484-3.698,1.3781.5477.7218.0871.4075,2.1753,1.4025,2.1311-.5528,1.0048-.4828,5.125-.2194,6.27.6449,4.349.7428,8.5809-.2561,2.344,1.0444,1.1893.9855,5.2218.0488,8.6987.8021,6.7641.9213,8.823-.0853,8.9346.278,6.5808.45,10.781-.61,2.0723.09,1.8055.1432,2.0549.0488-.4216,4.073-.768,6.3138.3624,8.66-.0323.4068.362.3268-1.9581.195-.7545,1.1577-.2837.8531-1.9577,1.39-2.3439-.1688-1.3617-.3935-4.3512,1.1589-2.3114-.1536-1.5326-.29-3.1669.61a6.1385,6.1385,0,0,0-3.3114.5488c-12.4888,1.4441-9.3414.9114-13.7547,2.0978-4.5357-.0768-2.9154-.22-7.0343.7319-2.2839-.4456-1.4407-.445-3.5533.0729-2.2561-.3691-1.4344-.3955-3.5534.22-2.7355.91-2.3674.6035-1.91,1.3418,2.2891,1.1094,1.3487.9977,3.7227.4759,2.5111.3735.6372.2207,9.524.6461,4.2644-1.1121,3.0017-1.12,5.6809-.1828,4.3536-1.1676,1.9067-.9952,11.216-.5854,2.0945-1.0732-.0533-.73,11.579-1.2686,2.0421-.9688,1.1742-.7485,3.82-.8659.2353-.1528.141-.6065.2414,2.4272-1.37.8908-1.4575.7847.0241.4755A17.2193,17.2193,0,0,1,440.87,339.8c-1.5742-.8416-.8347-.92-2.6587.4148-2.7629-.49-1.7853-.6219-3.7711.4881-2.3745.3532-1.465.3415-3.9883-.0244-4.2393,1.3329-2.9883,1.17-5.6083.8781-2.1869.8277-1.33.6662-3.747.6221-2.3134.5526-1.431.4755-3.8673.2561-2.2682.2681-11.3016,1.0724-11.5789,1.0976-4.5064,1.25-2.8919-.2219-7.8321.6709-2.4911.3525-1.5833.3664-3.9647-.1462-2.38.454-1.4754.4667-3.94.0363a11.418,11.418,0,0,1-4.0125.5491c-.641.7781-.6329.494-.1452,1.2319,2.3372,1.1058,1.3994,1.01,3.9883.5488a13.7811,13.7811,0,0,0,4.0609.3293,20.7784,20.7784,0,0,0,4.0615.4633c2.5856.246,1.6489.3334,4.0609-.4876,2.5537-.0922,1.605-.2415,4.1577.7683,4.8184-.8933,2.94-.7977,8.146-.5366,5.1068.5854,3.766.6807,6.14-.2561,10.1532.3952,7.4451.5254,12.3769-.4272,2.7392.1845,1.44.3,5.85-.6217a7.0689,7.0689,0,0,0-.2171,1.1828c0,.3659.0235.5613.0235.8662-1.3207-.4126-.8864-.5181-1.5226.4756-1.1549.2763-.6636.289-2.1754-.122-1.8031,1.2031-1.1887,1.07-2.6834.7318-.8736.7492-.4449.641-1.813.5489-1.1255.5521-.1494.3772-4.9072.6342-4.554,1.42-3.2429,1.2337-5.9222.988-2.3808.8351-1.6979.7974-3.07.305-1.246.5216-.7146.4971-2.0543.0976-2.8212.8934-2.9734.6371-1.0157,2.7566,2.207-.8417.2861-.069,3.312-.1709,4.1189.6732,2.8933.7633,5.5115-.2195l1.3291.8171c2.6084-.96,1.1041-.8952,6.8895-.0485l.8464-.72c5.8887.4979,4.3858.589,6.913-.2564.8486.1183.7917-.1458.7253,1.5616-.0725,1.8626.9469,1.6-2.0065,1.2441-1.7692,1.1121-.9728.8413-3.4082,1.2561-2.927-.3533-1.47-.4886-6.0674.854-2.8292-.292-1.8466-.3663-4.2545.4389a10.4181,10.4181,0,0,0-4.2786.4026,79.4342,79.4342,0,0,0-17.2834,1.6223c-5.5676-.1844-3.5584-.2929-8.7509.5855-2.8-.4609-1.7883-.4514-4.3991.0607-2.8022-.3688-1.35-.4267-6.6.3782-.5981.83-.6191.5176.0241,1.2441,2.7065,1.0275,1.6828.9666,4.4481.4144a16.1591,16.1591,0,0,0,4.4964.22,47.0025,47.0025,0,0,0,6.768.5122c5.25-.9806,3.7612-1.0258,6.7443-.0122a14.4728,14.4728,0,0,0,4.3513-.8049c10.7211.7261,8.4909.8708,11.2644-.122,15.7891-.2573-.4221,1.2613,20.3541-.7439,0,.8889-.2416,7.5367-1.2088,8.2819-3.501-.123-2.3309-.3567-4.6416.9755-2.814.5858-1.6368.5135-5.0759.39-5.3377,1.7128-3.7525,1.4526-7.1309,1.33-14.939,1.9317-9.7855,1.3789-22.723,2.5-6.1787.9517-3.7757.8342-10.4428.6342-6.297.8641-4.5557.8178-7.9047.3417-3.1616.4978-1.9449.4907-5.2937.122-6.2029.8147-5.1006.476-5.8739,1.354.7615.7218.0609.4024,3.2878,1.4147,3.191-.5125,1.9632-.4965,5.3421-.1587,12.88.5857,9.36.7,16.0265-.3293,3.5283,1.013,1.7384.9723,8.0981-.0245,12.9249.5118,10.2549.7164,13.6091-.39,21.004-.8267,9.1371-.059,20.4267-2.0368l-.8221,1.7441c1.0088.1753,1.745.0144-4.2787.6343-10.6213,3.1631-29.8,2.594-51.6579,5.025-7.0084-1.0065-1.5969.4759-8.92-.4026-7.0358.5991-5.7672.2953-6.7686,1.159.7915.7372.1312.44,3.0459,1.3659.6745.2142.0439.2073,3.36-.1706.3393-.0387,3.3742.195,3.7222.195,13.982.9078,10.0911.962,17.6706-.0366,3.95,1.0269,1.9321.9846,9.1374-.0122,14.3752.568,11.3915.7611,15.229-.329l21.9494-1.549c-.67,2.911-.1394,3.7127-.8464,6.9644l-.7011-.2075c-.8693.2114-.7958-.0049.0726.9881-1.83-.2154-1.3188-.4543-1.9582.927-1.68-.2464-1.112-.4172-2.4173.9146-1.5823-.23-1.0813-.3531-1.9339.4759-1.4906-.0158-.9953-.1-2.127.4267-5.965.4608-3.8278.1022-9.282,1.6834-3.1656-.1538-2.0491-.2737-4.8346.6342-1.6429-.4451-1.0014-.47-2.49.0975-1.6123-.3531-.802-.4245-3.6737.4392-.3046.8441-.5414.429,1.2328,1.8659.305.247.1264.2351.6763.0369,1.0333-.3723.5517-.3451,2.1517-.0369a9.6281,9.6281,0,0,1,2.9491.11c2.8792.3209,1.8265.4655,4.762-.5854l1.571.793c2.9891-1.0466,1.243-.94,8.0014-.2806,1.4022-1.02-.1727-.7563,7.2035-.7563l.5075-.2072c.3146,1.0488.7979,1.83,1.1367,2.8784-1.3135-.3852-.6782-.5483-2.78.8659-3.5916-.3686-2.359-.4781-5.3179.6343-7.3958.0615-4.7651-.1833-11.41,1.2075-3.7739-.2763-2.4411-.3562-5.7771.4636-39.0893,1.513-25.1234,1.759-35.0756,1.0977-7.136.5417-5.2007.5874-8.8229-.0733-3.5971.3073-2.2517.3762-5.8739-.2073C354.9706,406.8919,354.7672,406.5038,359.7008,408.36Z" transform="translate(0 0)"/>
    <path class="cls-3" d="M554.1246,458.6114c2.3654,4.4523,1.3493,3.99,4.4095,3.99-.0364-1.8586-.0912-3.7171-.1458-5.5939C555.633,456.9668,553.0036,456.5941,554.1246,458.6114Z" transform="translate(0 0)"/>
    <path class="cls-3" d="M549.3143,427.1989a2.95,2.95,0,0,0,0,.4011c1.5489,1.2388,1.0934,3.68,2.9337,4.7008,1.8038,2.9883,3.5895,6.0127,5.43,8.9829-.2733-5.0471-.6377-10.1126-1.0568-15.2144a32.3282,32.3282,0,0,0-5.3022-.2552C550.2436,425.76,550.0436,426.7434,549.3143,427.1989Z" transform="translate(0 0)"/>
    <path class="cls-3" d="M548.2029,399.0115c2.4287,4.7886,4.8576,9.8952,7.1607,13.793q-.7923-7.5161-1.8037-15.0868a5.7962,5.7962,0,0,1-3.8445-.5647C549.1361,396.7667,547.3192,397.5753,548.2029,399.0115Z" transform="translate(0 0)"/>
    <path class="cls-3" d="M304.7924,451.9426c0-.9382-1.5462-2.8289-2.1137-3.5712-.1689,4.6541-.1053,2.049,1.5488,3.6441C304.3369,452.125,304.5736,451.9608,304.7924,451.9426Z" transform="translate(0 0)"/>
    <path class="cls-3" d="M302.1136,467.1206c2.0224-.0182,3.8992-.6924,5.8489-.7471a.9266.9266,0,0,0,.7652-.4008c2.66-4.4885,1.4586-2.7722,2.4962-5.5027-.9292-.0545-1.7856-.2734-2.7148-.2734-2.0955-.0364-4.1543-.0182-6.25-.0364C302.2049,462.4925,302.15,464.8065,302.1136,467.1206Z" transform="translate(0 0)"/>
  </g>
  <g>
    <path class="cls-1" d="M0,589.2477v-65.25H36.2788v7.2207h-21.75v21.75H29.0576v7.3093H14.5288v21.75h21.75v7.22Z" transform="translate(0 0)"/>
    <path class="cls-1" d="M94.22,538.5277v65.25H79.7778v-21.75q-.87,7.2216-7.3076,7.2207H65.249a14.7066,14.7066,0,0,1-14.5288-14.53v-21.75a14.5546,14.5546,0,0,1,14.5288-14.441Zm-14.4424,7.22H72.47a7.2785,7.2785,0,0,0-7.2212,7.2207v21.75a7.0826,7.0826,0,0,0,2.1314,5.1328,6.874,6.874,0,0,0,5.09,2.1758,6.9752,6.9752,0,0,0,5.1763-2.1758,7.0883,7.0883,0,0,0,2.1313-5.1328Z" transform="translate(0 0)"/>
    <path class="cls-1" d="M152.2485,538.5277v50.72H137.8061v-7.22q-.87,7.2216-7.3076,7.2207h-7.2212a14.6291,14.6291,0,0,1-14.5288-14.5293V538.5277h14.5288v36.191a7.0826,7.0826,0,0,0,2.1314,5.1328,6.8744,6.8744,0,0,0,5.09,2.1758,6.9754,6.9754,0,0,0,5.1763-2.1758,7.0887,7.0887,0,0,0,2.1313-5.1328v-36.191Z" transform="translate(0 0)"/>
    <path class="cls-1" d="M166.7768,531.2187v-7.221h14.5289v7.2207Zm0,58.0293v-50.72h14.5289v50.72Z" transform="translate(0 0)"/>
    <path class="cls-1" d="M195.7475,538.5277h14.5289v7.22q0-3.6533,1.8271-5.4375a7.4246,7.4246,0,0,1,5.394-1.7832h7.3077a14.556,14.556,0,0,1,14.4423,14.4414v21.75a14.5552,14.5552,0,0,1-14.4423,14.5293H210.2764v14.53H195.7475Zm14.5289,43.5h7.2211a7.278,7.278,0,0,0,7.3077-7.2482c0-.02,0-.04,0-.06v-21.75a6.9508,6.9508,0,0,0-2.1314-5.0889,7.05,7.05,0,0,0-5.1763-2.1318,7.2783,7.2783,0,0,0-7.2211,7.2207Z" transform="translate(0 0)"/>
    <path class="cls-1" d="M261.0836,523.9977H275.526v14.53h7.3076v7.22H275.526v28.971a6.5362,6.5362,0,0,0,2.3486,5.4375,7.13,7.13,0,0,0,4.2632,1.8711h.6958v7.22h-7.3075a14.5555,14.5555,0,0,1-14.4425-14.529v-28.971H253.776v-7.22h7.3076Z" transform="translate(0 0)"/>
    <path class="cls-1" d="M340.7759,589.2477H326.3336v-36.279a6.9512,6.9512,0,0,0-2.1314-5.0889,7.05,7.05,0,0,0-5.1762-2.1318,7.2783,7.2783,0,0,0-7.2212,7.2207v36.279H297.2759v-50.72h14.5288v7.22a8.82,8.82,0,0,1,2.2622-5.4375,6.7949,6.7949,0,0,1,4.959-1.7832h7.3077q7.3938,0,10.875,5.1328a10.7428,10.7428,0,0,1,4.437-3.872,15.1,15.1,0,0,1,6.438-1.2608h7.2212a14.0431,14.0431,0,0,1,10.2226,4.2627,13.8273,13.8273,0,0,1,4.3062,10.179v36.279H355.3047v-36.279a6.9944,6.9944,0,0,0-2.1314-5.0459,6.8845,6.8845,0,0,0-5.09-2.1748,7.09,7.09,0,0,0-5.1328,2.1318,6.8778,6.8778,0,0,0-2.1748,5.0889Z" transform="translate(0 0)"/>
    <path class="cls-1" d="M427.7759,567.4977H398.8047v7.2207a7.0827,7.0827,0,0,0,2.1313,5.1328,6.8744,6.8744,0,0,0,5.09,2.1758h7.3076q7.2207,0,7.2212-7.3086h7.2212q-1.6541,14.5317-14.4424,14.5293H398.8047a14.6289,14.6289,0,0,1-14.5288-14.5293v-21.75A13.827,13.827,0,0,1,388.582,542.79a14.0406,14.0406,0,0,1,10.2227-4.2627h14.5289a14.556,14.556,0,0,1,14.4424,14.4414Zm-28.9712-7.22h14.5289v-7.309a6.9512,6.9512,0,0,0-2.1314-5.0889,7.05,7.05,0,0,0-5.1762-2.1318,7.2783,7.2783,0,0,0-7.2212,7.2207Z" transform="translate(0 0)"/>
    <path class="cls-1" d="M442.3042,589.2477v-50.72H456.833v7.22a8.82,8.82,0,0,1,2.2622-5.4375,6.7953,6.7953,0,0,1,4.959-1.7832h7.3076a14.5562,14.5562,0,0,1,14.4424,14.4414v36.2793H471.3618v-36.279a6.9512,6.9512,0,0,0-2.1313-5.0889,7.05,7.05,0,0,0-5.1763-2.1318,7.2783,7.2783,0,0,0-7.2212,7.2207v36.279Z" transform="translate(0 0)"/>
    <path class="cls-1" d="M507.64,523.9977h14.4424v14.53H529.39v7.22h-7.3076v28.971a6.5362,6.5362,0,0,0,2.3486,5.4375,7.13,7.13,0,0,0,4.2632,1.8711h.6958v7.22h-7.3077A14.5554,14.5554,0,0,1,507.64,574.7184V545.7477h-7.3077v-7.22H507.64Z" transform="translate(0 0)"/>
    <path class="cls-1" d="M616.39,545.7477h7.2212v7.2207a14.0981,14.0981,0,0,1-4.1323,10.3965,13.28,13.28,0,0,1-9.7007,4.1328h-.6958v7.2207q0,4.8735-4.1763,9.7012a13.0611,13.0611,0,0,1-10.2661,4.8281H580.1113a13.1856,13.1856,0,0,1-10.31-4.8281q-4.2209-4.83-4.2192-9.7012v-7.2207a16.0177,16.0177,0,0,1,3.6539-9.7q3.654-4.83,10.875-4.8291-14.53-1.6509-14.5285-14.4409a14.7068,14.7068,0,0,1,14.5288-14.53H594.64a13.8252,13.8252,0,0,1,10.1792,4.3067,14.0413,14.0413,0,0,1,4.2632,10.2226v7.2207H594.64v-7.22a7.278,7.278,0,0,0-7.2472-7.3086h-.06a6.9464,6.9464,0,0,0-5.09,2.1319,7.045,7.045,0,0,0-2.1314,5.1767v3.5664q0,6.4395,7.2212,7.3086v7.2207q-7.2225.9579-7.2212,7.2207v10.875a6.82,6.82,0,0,0,2.1314,5.4815,7.5639,7.5639,0,0,0,5.09,1.8271,7.6877,7.6877,0,0,0,5.1763-1.8271,6.8249,6.8249,0,0,0,2.1313-5.4815V560.2777h14.4423A7.2778,7.2778,0,0,0,616.39,553.03v-7.2821Z" transform="translate(0 0)"/>
    <path class="cls-1" d="M659.8027,589.2477v-65.25h3.3926l30.9722,30.8848,30.8852-30.8848H732.36v65.25H717.8315V549.4023l-25.4038,25.4033L667.11,549.4023v39.8454Z" transform="translate(0 0)"/>
    <path class="cls-1" d="M775.86,560.2777v-7.309a6.9512,6.9512,0,0,0-2.1313-5.0889,7.05,7.05,0,0,0-5.1763-2.1318h-7.2212q-6.4392,0-7.2212,7.2207h-7.3076q1.7388-14.44,14.5288-14.4414H775.86a14.5561,14.5561,0,0,1,14.4424,14.4414v36.279H775.86v-7.22q-.87,7.2216-7.3076,7.2207h-7.2212a14.629,14.629,0,0,1-14.5288-14.5293,13.8271,13.8271,0,0,1,4.3062-10.1787,14.04,14.04,0,0,1,10.2226-4.2627Zm0,7.2207h-7.3076a7.2785,7.2785,0,0,0-7.2212,7.2207,7.0828,7.0828,0,0,0,2.1314,5.1328,6.8744,6.8744,0,0,0,5.09,2.1758,6.9752,6.9752,0,0,0,5.1763-2.1758,7.0881,7.0881,0,0,0,2.1313-5.1328Z" transform="translate(0 0)"/>
    <path class="cls-1" d="M841.11,552.9687h-7.2211q-.87-7.22-7.3077-7.2207a7.2785,7.2785,0,0,0-7.2212,7.2207v21.75a7.0826,7.0826,0,0,0,2.1314,5.1328,6.8744,6.8744,0,0,0,5.09,2.1758q6.4374,0,7.3077-7.3086H841.11q-.8708,14.5313-14.5288,14.5293H819.36a14.629,14.629,0,0,1-14.5288-14.5293v-21.75a13.8271,13.8271,0,0,1,4.3062-10.1787,14.0406,14.0406,0,0,1,10.2226-4.2627h7.2212Q840.3263,538.5278,841.11,552.9687Z" transform="translate(0 0)"/>
    <path class="cls-1" d="M855.5513,589.2477v-65.25H870.08v21.75a8.8207,8.8207,0,0,1,2.2622-5.4375,6.7952,6.7952,0,0,1,4.959-1.7832h7.3076a14.5561,14.5561,0,0,1,14.4424,14.4414v36.2793H884.6089v-36.279a6.9516,6.9516,0,0,0-2.1314-5.0889,7.05,7.05,0,0,0-5.1762-2.1318,7.2783,7.2783,0,0,0-7.2212,7.2207v36.279Z" transform="translate(0 0)"/>
    <path class="cls-1" d="M913.58,531.2187v-7.221h14.5288v7.2207Zm0,58.0293v-50.72h14.5288v50.72Z" transform="translate(0 0)"/>
    <path class="cls-1" d="M942.55,589.2477v-50.72h14.5288v7.22a8.82,8.82,0,0,1,2.2622-5.4375,6.7953,6.7953,0,0,1,4.959-1.7832h7.3076A14.5561,14.5561,0,0,1,986.05,552.9684v36.2793H971.6074v-36.279a6.9512,6.9512,0,0,0-2.1313-5.0889A7.05,7.05,0,0,0,964.3,545.748a7.2783,7.2783,0,0,0-7.2212,7.2207v36.279Z" transform="translate(0 0)"/>
    <path class="cls-1" d="M1044.0781,567.4977h-28.9712v7.2207a7.0824,7.0824,0,0,0,2.1314,5.1328,6.874,6.874,0,0,0,5.09,2.1758h7.3077q7.2209,0,7.2211-7.3086h7.2212q-1.6537,14.5314-14.4423,14.5293H1015.107a14.6292,14.6292,0,0,1-14.5288-14.5293v-21.75a13.8267,13.8267,0,0,1,4.3062-10.1787,14.04,14.04,0,0,1,10.2226-4.2627h14.5289a14.5561,14.5561,0,0,1,14.4423,14.4414Zm-28.9712-7.22h14.5288v-7.309a6.9507,6.9507,0,0,0-2.1313-5.0889,7.05,7.05,0,0,0-5.1763-2.1318,7.2785,7.2785,0,0,0-7.2212,7.2207Z" transform="translate(0 0)"/>
    <path class="cls-1" d="M1073.1352,589.2477h-14.5288v-50.72h14.5288v14.441q.8687-7.22,4.4805-10.831,3.61-3.6093,10.0484-3.61h7.2211v14.441h-14.5288a6.9473,6.9473,0,0,0-5.09,2.1319,7.0451,7.0451,0,0,0-2.1314,5.1767Z" transform="translate(0 0)"/>
    <path class="cls-1" d="M1109.4136,596.4687q.5223,7.3081,7.2212,7.3086h7.2211a7.2778,7.2778,0,0,0,7.3077-7.2479q0-.03,0-.0607v-14.441q-.87,7.2216-7.3077,7.2207h-7.2211a14.6292,14.6292,0,0,1-14.5289-14.5293V538.5277h14.5289v36.191a7.0823,7.0823,0,0,0,2.1313,5.1328,6.8742,6.8742,0,0,0,5.09,2.1758,6.9751,6.9751,0,0,0,5.1762-2.1758,7.0884,7.0884,0,0,0,2.1314-5.1328v-36.191h14.4424v57.941a14.0416,14.0416,0,0,1-4.2632,10.2227,13.8246,13.8246,0,0,1-10.1793,4.3063h-14.5288q-12.7887,0-14.5289-14.5293Z" transform="translate(0 0)"/>
  </g>
  <g>
    <path d="M151.8794,60.1543l16.4541-4.3555,29.7031,112.1924,8.1777-2.1651q3.4482-.9138,4.75-5.7578a20.2743,20.2743,0,0,0-.2133-10.5625L184.7886,51.4414l16.3559-4.33,29.7031,112.1933,8.2759-2.1915q3.35-.8876,4.6514-5.73a20.2651,20.2651,0,0,0-.2139-10.5645L217.6,42.7548l16.4546-4.3564,20.707,78.2158q5.21,19.6788.7236,35.9873-4.4874,16.3062-16.1132,19.3862l-21.1841,5.6084-1.1582-4.3731a17.0513,17.0513,0,0,1-10.4688,7.4512l-21.2822,5.6348Z" transform="translate(0 0)"/>
    <path d="M280.8408,59.27,297.583,56.2q6.8173-1.248,13.2671,6.2363,6.449,7.4868,8.5835,19.125l7.8437,42.7852q2.1343,11.6425-1.2265,21.0117T315.8745,155.98l-16.7427,3.0679q-6.819,1.251-13.3174-6.2256-6.4987-7.4736-8.665-19.2871l-7.8437-42.7861q-2.133-11.6352,1.2924-20.9336Q274.0229,60.521,280.8408,59.27Zm5.2075,28.41,7.8443,42.788a20.2484,20.2484,0,0,0,4.3066,9.6465q3.2409,3.8305,6.65,3.2041,3.5084-.6446,5.1807-5.373a20.2665,20.2665,0,0,0,.605-10.5469L302.7916,84.61a19.8063,19.8063,0,0,0-4.292-9.5615q-3.2263-3.7428-6.7339-3.1-3.4086.6255-5.0962,5.2676a19.7954,19.7954,0,0,0-.6212,10.4635Z" transform="translate(0 0)"/>
    <path d="M351.62,47.623l16.8657-2.3017q6.8666-.9361,12.9683,6.8369,6.1,7.7724,7.7,19.4951l5.8789,43.1015q1.6,11.7276-2.1851,20.9327-3.7857,9.2094-10.6523,10.1455L365.33,148.1338q-6.8694.936-13.0186-6.8291-6.1517-7.7637-7.7739-19.6622L338.6585,78.541q-1.5987-11.72,2.2475-20.8526Q344.7531,48.5626,351.62,47.623Zm3.9038,28.6182,5.8789,43.1006a20.2524,20.2524,0,0,0,3.8623,9.8349q3.0615,3.9741,6.4956,3.5049,3.5348-.4835,5.4209-5.1308a20.26,20.26,0,0,0,1.0869-10.5087L372.39,73.9405a19.8129,19.8129,0,0,0-3.85-9.7481q-3.0519-3.8847-6.5854-3.4034-3.4335.4659-5.331,5.0293a19.7851,19.7851,0,0,0-1.1,10.4229Z" transform="translate(0 0)"/>
    <path d="M465.9551,136.7324l-16.84,1.64-1.3994-14.374q.3846,14.4756-7.1221,15.2031l-8.4194.8213q-6.9.671-12.7466-7.3252-5.8476-7.9937-7.0122-19.9463l-4.2168-43.2939q-1.146-11.7759,3.0484-20.752,4.1952-8.9736,11.0932-9.6474l16.9414-1.65-2.8169-28.92,16.84-1.6416Zm-25.274-84.95-8.5214.83q-3.4491.3354-5.5209,4.82a19.787,19.787,0,0,0-1.4986,10.374l4.2168,43.2949a20.2467,20.2467,0,0,0,3.48,9.9756q2.9063,4.0884,6.3564,3.75,3.5492-.3443,5.6143-4.917a20.2755,20.2755,0,0,0,1.4906-10.459Z" transform="translate(0 0)"/>
    <path d="M520.1553,60.32l-8.4414.5469q-2.056-14.3394-8.9712-13.8907a7.8173,7.8173,0,0,0-6.5157,3.4746q-2.041,3.1862-1.6577,9.087.4065,6.2519,13.4458,16.7392,10.6671,8.5518,12.5865,14.5264a53.4933,53.4933,0,0,1,2.371,12.924q.7779,11.9823-3.6543,20.8125-4.4318,8.833-11.45,9.2871l-8.4419.5479q-16.9872,1.1029-18.8676-27.8936l8.5434-.5547q1.9629,14.5182,8.88,14.07,4.5777-.2973,6.6182-3.4814,2.0383-3.1816,1.6455-9.2608-.3933-6.0747-13.4336-16.5654-10.6668-8.5473-12.6382-14.5234a51.7888,51.7888,0,0,1-2.4214-12.9209q-.7778-11.9809,3.7051-20.8154,4.4824-8.8315,11.3984-9.2832l8.4424-.5479Q517.2662,31.5615,520.1553,60.32Z" transform="translate(0 0)"/>
    <path class="cls-4" d="M567.0693,130.9316,563.3662.4834,580.3808,0l3.294,116.0117,25.4707-.7227.41,14.4366Z" transform="translate(0 0)"/>
    <path class="cls-4" d="M643.5869,28.2177l17.0215.086q6.93.0351,11.8823,8.5869,4.95,8.5518,4.8916,20.3828l-.2192,43.499q-.06,11.8345-5.0982,20.42-5.0383,8.587-11.9677,8.5518l-17.022-.085q-6.9322-.0336-11.9331-8.5869-5.0025-8.5473-4.9414-20.5566l.2192-43.499q.0594-11.8316,5.148-20.333Q636.6559,28.1877,643.5869,28.2177Zm-.1455,28.8848-.2192,43.4981A20.2577,20.2577,0,0,0,645.667,110.88q2.4742,4.3638,5.941,4.38,3.566.0177,6.0864-4.3193a20.274,20.274,0,0,0,2.5489-10.2539l.2192-43.499a19.8013,19.8013,0,0,0-2.4454-10.19q-2.4771-4.2758-6.0435-4.2939-3.4658-.0176-5.9839,4.2324a19.7953,19.7953,0,0,0-2.5483,10.1669Z" transform="translate(0 0)"/>
    <path class="cls-4" d="M748.3642,30.7763,743.89,146.5732q-.4576,11.8227-5.7807,20.2363-5.3239,8.4156-12.2491,8.1465l-17.0083-.6572q-14.9721-.5772-15.8867-29.6924l8.5551.3291q.0471,14.628,7.8893,14.9326l8.4531.3272q3.5648.1362,6.2246-4.0254a20.1731,20.1731,0,0,0,2.8955-10.25l1.1152-28.8613q-1.5768,14.3937-9.1128,14.1l-8.4541-.3262q-6.9264-.2681-11.6376-8.9824-4.7124-8.7114-4.2491-20.7119l1.6808-43.4668q.4563-11.8242,5.827-20.1485,5.37-8.3217,12.2964-8.0576ZM730.8994,44.5547l-8.5547-.3311q-3.4644-.1333-6.1235,4.0293a19.7917,19.7917,0,0,0-2.8881,10.0752l-1.68,43.4668a20.2517,20.2517,0,0,0,2.0985,10.3545q2.3271,4.4442,5.79,4.5781,3.5641.1377,6.228-4.1133a20.26,20.26,0,0,0,2.8921-10.1611Z" transform="translate(0 0)"/>
    <path class="cls-4" d="M819.3193,35.7558l-8.7676,115.5519q-.8949,11.7963-6.5268,20.0088-5.6331,8.2089-12.5435,7.6845l-16.9721-1.2871Q759.5686,176.58,759.7344,147.45l8.5376.6494q-.4966,14.6191,7.33,15.2138l8.4361.6407q3.5559.27,6.37-3.793a20.1629,20.1629,0,0,0,3.2735-10.1348l2.1855-28.8007q-2.11,14.326-9.63,13.7529l-8.4359-.6406q-6.9126-.5245-11.2969-9.4073-4.3849-8.88-3.477-20.8545l3.291-43.375q.8943-11.7961,6.5713-19.9179,5.6754-8.1181,12.5869-7.5957Zm-17.9634,13.12-8.5371-.6484q-3.457-.2622-6.268,3.8a19.7808,19.7808,0,0,0-3.2608,9.9609l-3.2915,43.376a20.259,20.259,0,0,0,1.7134,10.4248q2.1606,4.5279,5.6167,4.7891,3.5566.27,6.3765-3.8789a20.2723,20.2723,0,0,0,3.2666-10.0479Z" transform="translate(0 0)"/>
    <path class="cls-4" d="M828.1015,138.67,838.9836,37.8134,855.9075,39.64,845.0249,140.497Zm12.45-115.3877,1.5493-14.3584,16.9238,1.8252-1.5493,14.3594Z" transform="translate(0 0)"/>
    <path class="cls-4" d="M861.2471,142.205,875.8677,41.8232l16.8437,2.4531-2.0815,14.29q1.5571-7.1587,4.19-10.38a6.5286,6.5286,0,0,1,6.2632-2.6924l8.4727,1.2354q6.8577.999,10.5713,10.1552,3.7119,9.1582,2.0078,20.8643L911.6783,149.55l-16.7432-2.4385,10.4576-71.8a19.81,19.81,0,0,0-1.0044-10.4326q-1.8582-4.5777-5.3872-5.0928-3.4294-.4995-6.5147,3.3594a19.7845,19.7845,0,0,0-3.938,9.7129l-10.4575,71.8Z" transform="translate(0 0)"/>
    <path class="cls-4" d="M997.9131,63.4756,973.91,176.8466q-2.4507,11.5739-9.1211,18.9668T951.3379,201.77l-16.6529-3.5264q-14.6578-3.1026-10.6333-31.9541l8.3765,1.7744Q930,182.4907,937.6767,184.1152l8.2764,1.752q3.49.74,6.8159-2.9141a20.159,20.159,0,0,0,4.5879-9.6113l5.9829-28.2579q-3.99,13.9219-11.3676,12.3555l-8.2769-1.7519q-6.7815-1.4357-9.95-10.8223-3.1707-9.3838-.6831-21.1318l9.0105-42.5557q2.4507-11.5767,9.1529-18.8711t13.4829-5.8623ZM978.3691,74.1l-8.3759-1.7735q-3.392-.7177-6.7168,2.9366a19.79,19.79,0,0,0-4.5513,9.44l-9.0108,42.5566a20.2562,20.2562,0,0,0,.3169,10.56q1.5411,4.7754,4.9322,5.4912,3.49.74,6.8344-2.999a20.2647,20.2647,0,0,0,4.5694-9.5264Z" transform="translate(0 0)"/>
  </g>
</svg>
